<svg id="icon" xmlns="http://www.w3.org/2000/svg" width="32.8" height="32.8" viewBox="0 0 32.8 32.8">
  <defs>
    <style>
      .cls-1 {
        fill: #24b5ee;
      }
    </style>
  </defs>
  <path id="Caminho_472" data-name="Caminho 472" class="cls-1" d="M12.441,11.953a1.613,1.613,0,0,0-1.644,1.58,1.565,1.565,0,0,0,.821,1.361v1.8a.823.823,0,0,0,1.645,0V14.9a1.566,1.566,0,0,0,.823-1.361A1.615,1.615,0,0,0,12.441,11.953Z" transform="translate(3.959 4.383)"/>
  <path id="Caminho_473" data-name="Caminho 473" class="cls-1" d="M16.4,0A16.4,16.4,0,1,0,32.8,16.4,16.4,16.4,0,0,0,16.4,0Zm0,6.833A5.175,5.175,0,0,1,21.867,12.3H20.158a3.758,3.758,0,0,0-7.517,0H10.933A5.175,5.175,0,0,1,16.4,6.833ZM23.233,22.55a2.051,2.051,0,0,1-2.05,2.05H11.617a2.051,2.051,0,0,1-2.05-2.05V15.717a2.051,2.051,0,0,1,2.05-2.05h9.567a2.051,2.051,0,0,1,2.05,2.05Z"/>
</svg>
