<svg id="Grupo_770" data-name="Grupo 770" xmlns="http://www.w3.org/2000/svg" xmlns:xlink="http://www.w3.org/1999/xlink" width="124.925" height="32.39" viewBox="0 0 124.925 32.39">
  <defs>
    <style>
      .cls-1, .cls-2, .cls-3 {
        fill: #fff;
      }

      .cls-1 {
        clip-rule: evenodd;
      }

      .cls-3 {
        fill-rule: evenodd;
      }

      .cls-4 {
        clip-path: url(#clip-path);
      }

      .cls-5 {
        clip-path: url(#clip-path-2);
      }
    </style>
    <clipPath id="clip-path">
      <path id="Caminho_4" data-name="Caminho 4" class="cls-1" d="M497.024,673.644c-5.7-.877-10.838.512-13.565,4.211-4.547,6.168-.656,16.419,8.691,22.9s20.611,6.73,25.158.563a9.761,9.761,0,0,0,1.832-4.789,5.677,5.677,0,0,1-.959.186,8.5,8.5,0,0,1-1.14,2.1c-4.128,5.563-14.368,5.327-22.871-.527a27.523,27.523,0,0,1-3-2.383,2.07,2.07,0,0,1-.287-.267c-6.065-5.732-8.187-13.24-4.639-18.021C488.474,674.614,492.475,673.3,497.024,673.644Z" transform="translate(-481.558 -673.39)"/>
    </clipPath>
    <clipPath id="clip-path-2">
      <path id="Caminho_6" data-name="Caminho 6" class="cls-1" d="M527.173,699.2a7.352,7.352,0,0,1-1.222,2.5,8.465,8.465,0,0,1-4.413,2.946,9.846,9.846,0,0,0,6.4-3.583,7.943,7.943,0,0,0,.887-1.487,5.942,5.942,0,0,1-.6-.077l-.027-.005q-.132-.024-.26-.055l-.025-.006c-.06-.014-.119-.03-.177-.046l-.025-.007-.05-.014-.025-.008-.025-.007-.049-.015-.024-.008-.073-.024-.024-.008-.072-.025-.024-.008-.047-.018-.024-.009-.024-.009-.047-.019Zm-6.843-17.649c-8.161-5.526-17.989-5.748-21.951-.5-2.248,2.979-2.124,7.081-.106,11.08-1.213-3.2-1.07-6.355.72-8.734,3.417-4.54,11.61-4.611,18.782-.343l.041-.028.108-.072.016-.011.021-.014.108-.07.038-.024.112-.071.034-.021.126-.077.026-.015.118-.071.035-.02.123-.071.011-.006.011-.006.123-.069.037-.021.118-.064.039-.021.117-.062.03-.016.133-.068h0l.007,0,.009,0,.141-.069h0l.006,0,.008,0,.144-.069,0,0h0l.148-.068,0,0,0,0,.008,0,.144-.064,0,0h0l.008,0,.15-.064h0l.159-.065h.007l0,0h.01l0,0h0l0,0h.006l0,0h.02l0,0h.023l0,0h.01l0,0h.027l0,0h.081Z" transform="translate(-496.726 -677.259)"/>
    </clipPath>
  </defs>
  <g id="Grupo_768" data-name="Grupo 768" transform="translate(0)">
    <g id="Grupo_6" data-name="Grupo 6">
      <path id="Caminho_1" data-name="Caminho 1" class="cls-2" d="M257.654,703.577h3.758v1.494h-3.758v9.791a4.689,4.689,0,0,0,.461,2.506,1.519,1.519,0,0,0,1.315.647,4.006,4.006,0,0,0,1.042-.133,6.026,6.026,0,0,0,.871-.3,5.613,5.613,0,0,0,.786-.465l.478.929a5.472,5.472,0,0,1-1.059.73,8.265,8.265,0,0,1-1.384.5,7.546,7.546,0,0,1-2,.232,5.124,5.124,0,0,1-3.639-1.228,4.712,4.712,0,0,1-1.315-3.618V705.07h-2.05v-1.494h2.05V700.59l1.708-1.991h2.733Zm-17.723,1.261a5.437,5.437,0,0,0-1.9.3,3.544,3.544,0,0,0-1.247.736q.034.2.1.465a3.17,3.17,0,0,1,.1.57,7.192,7.192,0,0,1,.034.73v11.539h-4.442V707.892a9.754,9.754,0,0,0-.085-1.344,3.172,3.172,0,0,0-.325-1.062,1.562,1.562,0,0,0-.718-.68,2.815,2.815,0,0,0-1.23-.233h-.342v-1h3.382a4.807,4.807,0,0,1,1.828.282,2.134,2.134,0,0,1,1.042.946,7.155,7.155,0,0,1,.734-.548,4.843,4.843,0,0,1,1.025-.5,9.091,9.091,0,0,1,1.384-.365,10.007,10.007,0,0,1,1.845-.149,7.145,7.145,0,0,1,4.852,1.444q1.64,1.444,1.64,4.663v9.824h-4.442v-9.9a5.032,5.032,0,0,0-.923-3.435A3.018,3.018,0,0,0,239.931,704.838Zm-28.657,6.539a8.947,8.947,0,0,1,.564-3.187,7.472,7.472,0,0,1,1.623-2.589,7.572,7.572,0,0,1,2.579-1.726,9.665,9.665,0,0,1,6.868,0,7.578,7.578,0,0,1,2.58,1.726,7.475,7.475,0,0,1,1.623,2.589,9.285,9.285,0,0,1,0,6.373,7.476,7.476,0,0,1-1.623,2.589,7.579,7.579,0,0,1-2.58,1.726,9.669,9.669,0,0,1-6.868,0,7.573,7.573,0,0,1-2.579-1.726,7.473,7.473,0,0,1-1.623-2.589A8.945,8.945,0,0,1,211.274,711.377Zm11.787,0a14.641,14.641,0,0,0-.222-2.639,7.974,7.974,0,0,0-.666-2.108,3.729,3.729,0,0,0-1.127-1.394,2.729,2.729,0,0,0-3.143,0,3.732,3.732,0,0,0-1.127,1.394,7.974,7.974,0,0,0-.666,2.108,15.8,15.8,0,0,0,0,5.277,7.972,7.972,0,0,0,.666,2.108,3.734,3.734,0,0,0,1.127,1.394,2.73,2.73,0,0,0,3.143,0,3.731,3.731,0,0,0,1.127-1.394,7.972,7.972,0,0,0,.666-2.108A14.637,14.637,0,0,0,223.061,711.377ZM206.4,704.34a8.61,8.61,0,0,0-2.375-4.63,6.416,6.416,0,0,0-4.561-1.61,8.519,8.519,0,0,0-2.938.5,5.64,5.64,0,0,0-2.392,1.709,8.645,8.645,0,0,0-1.606,3.219,18.4,18.4,0,0,0-.581,5.029,16.243,16.243,0,0,0,.41,3.668,9.443,9.443,0,0,0,1.315,3.137,6.536,6.536,0,0,0,5.791,2.987,8.339,8.339,0,0,0,4.373-1.211,8.81,8.81,0,0,0,3.246-3.535l1.2.9a10.556,10.556,0,0,1-3.929,4.049,12.047,12.047,0,0,1-5.911,1.294,12.55,12.55,0,0,1-4.8-.863,9.978,9.978,0,0,1-3.536-2.39A10.355,10.355,0,0,1,187.913,713a12.861,12.861,0,0,1-.752-4.447,12.73,12.73,0,0,1,.854-4.7,11.8,11.8,0,0,1,2.357-3.784,11.008,11.008,0,0,1,3.57-2.539,10.831,10.831,0,0,1,4.493-.929,13.74,13.74,0,0,1,5.176.814,8,8,0,0,1,2.921,1.875,3.978,3.978,0,0,1,.786,2.224q.1,1.361.1,2.821Z" transform="translate(-187.161 -690.495)"/>
      <g id="Grupo_3" data-name="Grupo 3" transform="translate(77.494)">
        <path id="Caminho_2" data-name="Caminho 2" class="cls-3" d="M497.024,673.644c-5.7-.877-10.838.512-13.565,4.211-4.547,6.168-.656,16.419,8.691,22.9s20.611,6.73,25.158.563a9.761,9.761,0,0,0,1.832-4.789,5.677,5.677,0,0,1-.959.186,8.5,8.5,0,0,1-1.14,2.1c-4.128,5.563-14.368,5.327-22.871-.527a27.523,27.523,0,0,1-3-2.383,2.07,2.07,0,0,1-.287-.267c-6.065-5.732-8.187-13.24-4.639-18.021C488.474,674.614,492.475,673.3,497.024,673.644Z" transform="translate(-481.558 -673.39)"/>
        <g id="Grupo_2" data-name="Grupo 2" class="cls-4">
          <path id="Caminho_3" data-name="Caminho 3" class="cls-2" d="M408.227,628.729l32.358,41.117,41.183-33.5-32.358-41.117Z" transform="translate(-427.53 -615.802)"/>
        </g>
      </g>
      <g id="Grupo_5" data-name="Grupo 5" transform="translate(81.487 1.019)">
        <path id="Caminho_5" data-name="Caminho 5" class="cls-3" d="M527.173,699.2a7.352,7.352,0,0,1-1.222,2.5,8.465,8.465,0,0,1-4.413,2.946,9.846,9.846,0,0,0,6.4-3.583,7.943,7.943,0,0,0,.887-1.487,5.942,5.942,0,0,1-.6-.077l-.027-.005q-.132-.024-.26-.055l-.025-.006c-.06-.014-.119-.03-.177-.046l-.025-.007-.05-.014-.025-.008-.025-.007-.049-.015-.024-.008-.073-.024-.024-.008-.072-.025-.024-.008-.047-.018-.024-.009-.024-.009-.047-.019Zm-6.843-17.649c-8.161-5.526-17.989-5.748-21.951-.5-2.248,2.979-2.124,7.081-.106,11.08-1.213-3.2-1.07-6.355.72-8.734,3.417-4.54,11.61-4.611,18.782-.343l.041-.028.108-.072.016-.011.021-.014.108-.07.038-.024.112-.071.034-.021.126-.077.026-.015.118-.071.035-.02.123-.071.011-.006.011-.006.123-.069.037-.021.118-.064.039-.021.117-.062.03-.016.133-.068h0l.007,0,.009,0,.141-.069h0l.006,0,.008,0,.144-.069,0,0h0l.148-.068,0,0,0,0,.008,0,.144-.064,0,0h0l.008,0,.15-.064h0l.159-.065h.007l0,0h.01l0,0h0l0,0h.006l0,0h.02l0,0h.023l0,0h.01l0,0h.027l0,0h.081Z" transform="translate(-496.726 -677.259)"/>
        <g id="Grupo_4" data-name="Grupo 4" class="cls-5" transform="translate(0 0)">
          <rect id="Retângulo_4" data-name="Retângulo 4" class="cls-2" width="43.545" height="42.945" transform="translate(-14.666 9.804) rotate(-38.664)"/>
        </g>
      </g>
      <path id="Caminho_7" data-name="Caminho 7" class="cls-2" d="M550.35,706.891c0,3.742-.965,6.385-2.527,6.385-2.122,0-2.951-3.665-2.951-7,0-4.4,1.042-6.385,2.488-6.385,2.1,0,2.99,3.665,2.99,7m2.257-.752c0-3.067-1.022-7.118-4.842-7.118-3.568,0-5.15,3.491-5.15,7.986,0,2.739,1.042,7.137,4.842,7.137C550.774,714.144,552.607,710.923,552.607,706.139Zm-15.688,8.005a4.822,4.822,0,0,0,5.035-4.957,3.843,3.843,0,0,0-3.935-3.916,4.4,4.4,0,0,0-2.508.695c-.116.077-.212.154-.212.289s.077.193.154.193a2.894,2.894,0,0,0,.424-.116,3.208,3.208,0,0,1,1-.135c1.273,0,2.72,1.177,2.72,3.858,0,2.238-1.1,3.241-2.431,3.241-1.948,0-2.932-2.411-2.932-4.668a10.324,10.324,0,0,1,4.919-9.008c.212-.116.482-.251.482-.424,0-.116-.116-.174-.232-.174a1.175,1.175,0,0,0-.424.116c-4.186,1.678-7.156,5.71-7.156,9.471C531.827,712.1,533.948,714.144,536.919,714.144Zm-12.312,0c3.761,0,6.1-2.257,6.1-4.957a4.07,4.07,0,0,0-3.434-3.8v-.039c.771-.27,2.816-1.582,2.816-3.472,0-.907-.675-2.855-4.379-2.855a8.364,8.364,0,0,0-3.414.695c-.251.116-.27.193-.27.366a19.06,19.06,0,0,0,.135,1.929c.019.212.077.27.154.27.1,0,.174-.058.174-.289,0-1.138,1.158-2.045,2.681-2.045a2.416,2.416,0,0,1,2.566,2.373,3.575,3.575,0,0,1-2.99,3.318c-.212.039-.347.135-.347.27,0,.154.115.231.617.328a3.82,3.82,0,0,1,3.26,3.665c0,2.3-1.582,3.3-3.492,3.3a2.641,2.641,0,0,1-2.893-2.565c0-.154-.058-.27-.174-.27s-.174.135-.212.366a18.288,18.288,0,0,0-.135,2.411.513.513,0,0,0,.328.54A7.09,7.09,0,0,0,524.607,714.144Z" transform="translate(-433.393 -692.274)"/>
      <path id="Caminho_8" data-name="Caminho 8" class="cls-3" d="M645.331,703.865a2.252,2.252,0,1,1-2.252,2.252,2.252,2.252,0,0,1,2.252-2.252m0-.236a2.488,2.488,0,1,1-2.488,2.488A2.488,2.488,0,0,1,645.331,703.628Z" transform="translate(-522.894 -696.644)"/>
      <path id="Caminho_9" data-name="Caminho 9" class="cls-2" d="M646.391,707.325h.435a2.255,2.255,0,0,0,.528-.036.315.315,0,0,0,.165-.124.377.377,0,0,0,.06-.219.353.353,0,0,0-.079-.238.358.358,0,0,0-.221-.114q-.073-.01-.429-.01h-.459Zm-.59,1.68v-2.913h1.239a2.117,2.117,0,0,1,.679.079.665.665,0,0,1,.338.279.837.837,0,0,1,.128.459.778.778,0,0,1-.192.542.921.921,0,0,1-.574.269,1.346,1.346,0,0,1,.313.244,3.359,3.359,0,0,1,.334.474l.355.568h-.7l-.422-.636a3.964,3.964,0,0,0-.311-.427.459.459,0,0,0-.177-.12.982.982,0,0,0-.3-.033h-.119v1.217Z" transform="translate(-524.613 -698.076)"/>
    </g>
  </g>
</svg>
