<svg xmlns="http://www.w3.org/2000/svg" xmlns:xlink="http://www.w3.org/1999/xlink" width="485.067" height="125.767" viewBox="0 0 485.067 125.767">
  <defs>
    <style>
      .cls-1, .cls-2, .cls-3 {
        fill: #fff;
      }

      .cls-1 {
        clip-rule: evenodd;
      }

      .cls-3 {
        fill-rule: evenodd;
      }

      .cls-4 {
        clip-path: url(#clip-path);
      }

      .cls-5 {
        clip-path: url(#clip-path-2);
      }
    </style>
    <clipPath id="clip-path">
      <path id="Caminho_4" data-name="Caminho 4" class="cls-1" d="M541.609,674.376c-22.117-3.4-42.083,1.99-52.671,16.35-17.657,23.948-2.549,63.753,33.746,88.907s80.03,26.13,97.686,2.184a37.9,37.9,0,0,0,7.114-18.593,22.052,22.052,0,0,1-3.722.724,33,33,0,0,1-4.425,8.14c-16.029,21.6-55.789,20.683-88.806-2.046a106.8,106.8,0,0,1-11.635-9.252,8.055,8.055,0,0,1-1.114-1.035c-23.55-22.257-31.788-51.409-18.011-69.973C508.412,678.141,523.95,673.045,541.609,674.376Z" transform="translate(-481.558 -673.39)"/>
    </clipPath>
    <clipPath id="clip-path-2">
      <path id="Caminho_6" data-name="Caminho 6" class="cls-1" d="M614.947,762.461a28.553,28.553,0,0,1-4.746,9.709,32.866,32.866,0,0,1-17.134,11.441c10.4-1.773,19.162-6.4,24.832-13.911a30.894,30.894,0,0,0,3.443-5.774,22.939,22.939,0,0,1-2.333-.3l-.1-.019c-.342-.062-.679-.134-1.011-.213l-.1-.023c-.232-.056-.461-.117-.688-.179l-.1-.027-.193-.055-.1-.03-.1-.028-.191-.058-.095-.031c-.1-.03-.19-.061-.284-.093l-.093-.032c-.1-.031-.189-.064-.281-.1l-.093-.033-.184-.068-.092-.034-.092-.036-.183-.072Zm-26.57-68.527c-31.689-21.456-69.849-22.32-85.233-1.932-8.729,11.568-8.247,27.492-.411,43.024-4.71-12.412-4.155-24.677,2.8-33.912,13.269-17.63,45.078-17.9,72.927-1.331l.159-.107q.208-.141.418-.279l.063-.042.082-.053.421-.273.146-.093c.145-.093.29-.184.437-.275l.131-.082q.246-.152.491-.3l.1-.059c.152-.092.307-.184.46-.275l.135-.078q.236-.139.476-.276l.043-.024.042-.024c.159-.09.317-.179.477-.268l.143-.08.459-.25.152-.081.455-.24.117-.06c.172-.089.345-.177.517-.264l.005,0,.027-.013.034-.017q.273-.137.549-.27h0l.022-.01.03-.014q.279-.136.56-.267l.018-.008.005,0c.19-.09.383-.179.576-.265l.015-.008.014-.007.031-.013.558-.248.015-.006.008,0,.03-.013c.192-.084.387-.167.581-.248l0,0q.307-.129.617-.253l.012-.005.013,0,.013-.006.012-.005.006,0,.006,0,.013,0,.012-.006.013-.005.012-.005h0l.012-.006.012-.005.014-.006.013,0,0,0,.006,0,.013-.005.013-.005.013-.005.012-.005h0l.015-.006.011-.005.013,0,.013-.005.006,0,.007,0,.012,0,.013-.005.013,0,.011-.006h0l.012,0,.013,0,.012-.005.013-.006.006,0,.007,0,.012-.005.013,0,.013-.005.013,0h0l.012,0,.014,0,.013-.005.014-.006.005,0,.007,0,.013-.005.012-.005.013-.005.013-.005h0l.012,0,.013-.005.013,0,.013-.005,0,0,.008,0,.013-.006.013,0,.012-.005.013-.005h0l.014,0,.012-.005.013-.005.013-.005h.006l.007,0,.012-.005.013,0,.015,0,.011,0h0l.013-.005C588.73,694.179,588.556,694.055,588.377,693.934Z" transform="translate(-496.726 -677.259)"/>
    </clipPath>
  </defs>
  <g id="Grupo_769" data-name="Grupo 769" transform="translate(-647.6 -570.115)">
    <g id="Grupo_768" data-name="Grupo 768" transform="translate(647.6 570.115)">
      <g id="Grupo_6" data-name="Grupo 6" transform="translate(0)">
        <path id="Caminho_1" data-name="Caminho 1" class="cls-2" d="M460.876,723.671h14.593v5.8H460.876v38.018q0,7.217,1.792,9.73a5.9,5.9,0,0,0,5.107,2.513,15.54,15.54,0,0,0,4.046-.516,23.392,23.392,0,0,0,3.382-1.16,21.753,21.753,0,0,0,3.052-1.8l1.857,3.608A21.25,21.25,0,0,1,476,782.695a32.124,32.124,0,0,1-5.373,1.934,29.287,29.287,0,0,1-7.762.9q-9.021,0-14.129-4.768t-5.106-14.047V729.47h-7.96v-5.8h7.96v-11.6l6.632-7.732h10.613Zm-68.818,4.9a21.12,21.12,0,0,0-7.363,1.159,13.766,13.766,0,0,0-4.842,2.857q.132.773.4,1.8a12.285,12.285,0,0,1,.4,2.213,27.954,27.954,0,0,1,.133,2.834v44.806H363.534V740.425a37.867,37.867,0,0,0-.331-5.218,12.316,12.316,0,0,0-1.26-4.125,6.069,6.069,0,0,0-2.786-2.641,10.934,10.934,0,0,0-4.775-.9h-1.327v-3.866h13.133a18.66,18.66,0,0,1,7.1,1.1,8.29,8.29,0,0,1,4.046,3.674,27.853,27.853,0,0,1,2.852-2.127,18.81,18.81,0,0,1,3.98-1.933,35.3,35.3,0,0,1,5.373-1.418,38.851,38.851,0,0,1,7.164-.58q12.47,0,18.838,5.607t6.369,18.106v38.147H404.661V745.795q0-9.473-3.582-13.338A11.719,11.719,0,0,0,392.058,728.569Zm-111.27,25.389a34.738,34.738,0,0,1,2.188-12.373,29.012,29.012,0,0,1,6.3-10.052,29.392,29.392,0,0,1,10.015-6.7,37.522,37.522,0,0,1,26.666,0,29.416,29.416,0,0,1,10.016,6.7,29.026,29.026,0,0,1,6.3,10.052,36.051,36.051,0,0,1,0,24.744,29.026,29.026,0,0,1-6.3,10.052,29.422,29.422,0,0,1-10.016,6.7,37.537,37.537,0,0,1-26.666,0,29.4,29.4,0,0,1-10.015-6.7,29.012,29.012,0,0,1-6.3-10.052A34.732,34.732,0,0,1,280.788,753.957Zm45.769,0a56.86,56.86,0,0,0-.863-10.246,30.97,30.97,0,0,0-2.587-8.184,14.479,14.479,0,0,0-4.378-5.412,10.6,10.6,0,0,0-12.206,0,14.489,14.489,0,0,0-4.378,5.412,30.962,30.962,0,0,0-2.587,8.184,61.344,61.344,0,0,0,0,20.491,30.954,30.954,0,0,0,2.587,8.184,14.49,14.49,0,0,0,4.378,5.413,10.6,10.6,0,0,0,12.206,0,14.479,14.479,0,0,0,4.378-5.413,30.962,30.962,0,0,0,2.587-8.184A56.852,56.852,0,0,0,326.557,753.957Zm-64.7-27.323q-2.522-11.727-9.221-17.977t-17.71-6.25a33.076,33.076,0,0,0-11.41,1.933,21.9,21.9,0,0,0-9.287,6.637,33.569,33.569,0,0,0-6.235,12.5q-2.257,7.8-2.256,19.525a63.068,63.068,0,0,0,1.592,14.241,36.667,36.667,0,0,0,5.107,12.179,25.378,25.378,0,0,0,22.487,11.6,32.382,32.382,0,0,0,16.981-4.7,34.207,34.207,0,0,0,12.6-13.726l4.643,3.48q-6.234,10.7-15.256,15.723t-22.951,5.025a48.738,48.738,0,0,1-18.64-3.35,38.749,38.749,0,0,1-13.731-9.278,40.21,40.21,0,0,1-8.49-13.92A49.939,49.939,0,0,1,187.161,743a49.43,49.43,0,0,1,3.317-18.236,45.827,45.827,0,0,1,9.154-14.691,42.73,42.73,0,0,1,13.864-9.859,42.048,42.048,0,0,1,17.446-3.609q12.469,0,20.1,3.159t11.343,7.281a15.443,15.443,0,0,1,3.052,8.635q.4,5.283.4,10.954Z" transform="translate(-187.161 -672.877)"/>
        <g id="Grupo_3" data-name="Grupo 3" transform="translate(300.898)">
          <path id="Caminho_2" data-name="Caminho 2" class="cls-3" d="M541.609,674.376c-22.117-3.4-42.083,1.99-52.671,16.35-17.657,23.948-2.549,63.753,33.746,88.907s80.03,26.13,97.686,2.184a37.9,37.9,0,0,0,7.114-18.593,22.052,22.052,0,0,1-3.722.724,33,33,0,0,1-4.425,8.14c-16.029,21.6-55.789,20.683-88.806-2.046a106.8,106.8,0,0,1-11.635-9.252,8.055,8.055,0,0,1-1.114-1.035c-23.55-22.257-31.788-51.409-18.011-69.973C508.412,678.141,523.95,673.045,541.609,674.376Z" transform="translate(-481.558 -673.39)"/>
          <g id="Grupo_2" data-name="Grupo 2" class="cls-4">
            <path id="Caminho_3" data-name="Caminho 3" class="cls-2" d="M408.227,725.31,533.868,884.962,693.777,754.88,568.137,595.227Z" transform="translate(-483.177 -675.116)"/>
          </g>
        </g>
        <g id="Grupo_5" data-name="Grupo 5" transform="translate(316.401 3.955)">
          <path id="Caminho_5" data-name="Caminho 5" class="cls-3" d="M614.947,762.461a28.553,28.553,0,0,1-4.746,9.709,32.866,32.866,0,0,1-17.134,11.441c10.4-1.773,19.162-6.4,24.832-13.911a30.894,30.894,0,0,0,3.443-5.774,22.939,22.939,0,0,1-2.333-.3l-.1-.019c-.342-.062-.679-.134-1.011-.213l-.1-.023c-.232-.056-.461-.117-.688-.179l-.1-.027-.193-.055-.1-.03-.1-.028-.191-.058-.095-.031c-.1-.03-.19-.061-.284-.093l-.093-.032c-.1-.031-.189-.064-.281-.1l-.093-.033-.184-.068-.092-.034-.092-.036-.183-.072Zm-26.57-68.527c-31.689-21.456-69.849-22.32-85.233-1.932-8.729,11.568-8.247,27.492-.411,43.024-4.71-12.412-4.155-24.677,2.8-33.912,13.269-17.63,45.078-17.9,72.927-1.331l.159-.107q.208-.141.418-.279l.063-.042.082-.053.421-.273.146-.093c.145-.093.29-.184.437-.275l.131-.082q.246-.152.491-.3l.1-.059c.152-.092.307-.184.46-.275l.135-.078q.236-.139.476-.276l.043-.024.042-.024c.159-.09.317-.179.477-.268l.143-.08.459-.25.152-.081.455-.24.117-.06c.172-.089.345-.177.517-.264l.005,0,.027-.013.034-.017q.273-.137.549-.27h0l.022-.01.03-.014q.279-.136.56-.267l.018-.008.005,0c.19-.09.383-.179.576-.265l.015-.008.014-.007.031-.013.558-.248.015-.006.008,0,.03-.013c.192-.084.387-.167.581-.248l0,0q.307-.129.617-.253l.012-.005.013,0,.013-.006.012-.005.006,0,.006,0,.013,0,.012-.006.013-.005.012-.005h0l.012-.006.012-.005.014-.006.013,0,0,0,.006,0,.013-.005.013-.005.013-.005.012-.005h0l.015-.006.011-.005.013,0,.013-.005.006,0,.007,0,.012,0,.013-.005.013,0,.011-.006h0l.012,0,.013,0,.012-.005.013-.006.006,0,.007,0,.012-.005.013,0,.013-.005.013,0h0l.012,0,.014,0,.013-.005.014-.006.005,0,.007,0,.013-.005.012-.005.013-.005.013-.005h0l.012,0,.013-.005.013,0,.013-.005,0,0,.008,0,.013-.006.013,0,.012-.005.013-.005h0l.014,0,.012-.005.013-.005.013-.005h.006l.007,0,.012-.005.013,0,.015,0,.011,0h0l.013-.005C588.73,694.179,588.556,694.055,588.377,693.934Z" transform="translate(-496.726 -677.259)"/>
          <g id="Grupo_4" data-name="Grupo 4" class="cls-5" transform="translate(0 0)">
            <rect id="Retângulo_4" data-name="Retângulo 4" class="cls-2" width="169.079" height="166.749" transform="translate(-56.946 38.068) rotate(-38.664)"/>
          </g>
        </g>
        <path id="Caminho_7" data-name="Caminho 7" class="cls-2" d="M633.907,729.58c0,14.531-3.746,24.793-9.812,24.793-8.239,0-11.459-14.232-11.459-27.189,0-17.077,4.044-24.792,9.662-24.792,8.163,0,11.61,14.232,11.61,27.188m8.763-2.921c0-11.908-3.97-27.638-18.8-27.638-13.855,0-20,13.557-20,31.009,0,10.636,4.045,27.713,18.8,27.713C635.555,757.742,642.671,745.234,642.671,726.659Zm-60.915,31.083c10.935,0,19.55-7.64,19.55-19.249,0-6.666-4.719-15.2-15.279-15.2a17.085,17.085,0,0,0-9.737,2.7c-.45.3-.824.6-.824,1.123s.3.749.6.749a11.2,11.2,0,0,0,1.648-.45,12.464,12.464,0,0,1,3.9-.524c4.944,0,10.561,4.569,10.561,14.98,0,8.689-4.269,12.584-9.438,12.584-7.565,0-11.384-9.363-11.384-18.126,0-17.9,10.335-30.035,19.1-34.979.824-.45,1.873-.974,1.873-1.648,0-.45-.449-.674-.9-.674a4.561,4.561,0,0,0-1.647.449c-16.252,6.517-27.787,22.17-27.787,36.776C561.982,749.8,570.221,757.742,581.755,757.742Zm-47.805,0c14.6,0,23.667-8.763,23.667-19.249,0-9.064-7.789-13.482-13.332-14.754v-.15c3-1.049,10.935-6.142,10.935-13.483,0-3.52-2.621-11.085-17-11.085a32.479,32.479,0,0,0-13.256,2.7c-.974.449-1.049.75-1.049,1.423a74.022,74.022,0,0,0,.525,7.489c.073.824.3,1.049.6,1.049.374,0,.674-.225.674-1.123,0-4.419,4.495-7.939,10.412-7.939,7.639,0,9.962,6.067,9.962,9.213,0,8.762-8.239,12.207-11.61,12.882-.824.15-1.348.525-1.348,1.049,0,.6.449.9,2.4,1.273,3.67.674,12.658,4.195,12.658,14.23,0,8.913-6.142,12.808-13.557,12.808-7.566,0-11.235-5.168-11.235-9.961,0-.6-.225-1.049-.674-1.049s-.675.524-.824,1.423a71,71,0,0,0-.525,9.362,1.993,1.993,0,0,0,1.274,2.1C524.362,756.919,528.632,757.742,533.95,757.742Z" transform="translate(-179.781 -672.824)"/>
        <path id="Caminho_8" data-name="Caminho 8" class="cls-3" d="M652.5,704.546a8.744,8.744,0,1,1-8.744,8.744,8.744,8.744,0,0,1,8.744-8.744m0-.918a9.662,9.662,0,1,1-9.662,9.662A9.661,9.661,0,0,1,652.5,703.628Z" transform="translate(-177.098 -676.509)"/>
        <path id="Caminho_9" data-name="Caminho 9" class="cls-2" d="M648.092,710.88h1.69a8.755,8.755,0,0,0,2.052-.14,1.223,1.223,0,0,0,.639-.479,1.463,1.463,0,0,0,.233-.851,1.369,1.369,0,0,0-.307-.925,1.391,1.391,0,0,0-.857-.442q-.281-.038-1.667-.039h-1.783ZM645.8,717.4V706.092h4.812a8.222,8.222,0,0,1,2.636.306,2.586,2.586,0,0,1,1.315,1.082,3.258,3.258,0,0,1,.5,1.783,3.022,3.022,0,0,1-.746,2.1,3.579,3.579,0,0,1-2.229,1.045,5.224,5.224,0,0,1,1.216.948,13.111,13.111,0,0,1,1.3,1.839l1.38,2.206h-2.731l-1.639-2.47a15.463,15.463,0,0,0-1.208-1.66,1.782,1.782,0,0,0-.686-.468,3.842,3.842,0,0,0-1.157-.127h-.463V717.4Z" transform="translate(-175.247 -674.967)"/>
      </g>
    </g>
  </g>
</svg>
