<svg id="Grupo_775" data-name="Grupo 775" xmlns="http://www.w3.org/2000/svg" width="114.043" height="21.351" viewBox="0 0 114.043 21.351">
  <defs>
    <style>
      .cls-1 {
        fill: #00518a;
      }

      .cls-2 {
        fill: #24b5ee;
      }
    </style>
  </defs>
  <path id="Caminho_460" data-name="Caminho 460" class="cls-1" d="M4157.015,1348.672a2.317,2.317,0,0,0-.22.815,6.83,6.83,0,1,1,.138-2.717c.013.084-.03.191.083.242Zm-6.867,4.674a5.561,5.561,0,1,0-5.583-5.545A5.584,5.584,0,0,0,4150.148,1353.346Z" transform="translate(-4042.972 -1337.055)"/>
  <path id="Caminho_461" data-name="Caminho 461" class="cls-2" d="M3471.659,1291.763a3.457,3.457,0,0,1,1.3.679,2.137,2.137,0,0,1,.5,2.358,2.177,2.177,0,0,1-1.977,1.394,2.155,2.155,0,0,1-2.391-1.856,2.19,2.19,0,0,1,1.386-2.39c.156-.057.337-.054.463-.184Z" transform="translate(-3422.252 -1291.763)"/>
  <path id="Caminho_462" data-name="Caminho 462" class="cls-2" d="M3088.6,1291.763c.146.133.344.1.514.158a2.194,2.194,0,0,1-.607,4.272,2.225,2.225,0,0,1-2.28-1.3,2.284,2.284,0,0,1,.524-2.508,3.238,3.238,0,0,1,1.293-.622Z" transform="translate(-3069.642 -1291.763)"/>
  <path id="Caminho_463" data-name="Caminho 463" class="cls-2" d="M2889.141,1314.822c.3.117.574.208.833.324a4.65,4.65,0,0,1,2.95,4.273,5.82,5.82,0,0,1-5.007,6.1,12.514,12.514,0,0,1-2.4.229c-1.943,0-3.886-.006-5.829.006-.29,0-.384-.068-.383-.371q.013-9.758,0-19.517c0-.279.086-.355.36-.354,2.022.01,4.045-.015,6.066.012a6.288,6.288,0,0,1,4.271,1.51,4.637,4.637,0,0,1,1.547,4.158A4.489,4.489,0,0,1,2889.141,1314.822Zm-6.107,4.99c0,.854,0,1.709,0,2.564,0,.207.037.313.279.3,1.066-.034,2.134.038,3.2-.077a2.758,2.758,0,0,0,2.623-3.331,2.73,2.73,0,0,0-2.5-2.211c-1.117-.149-2.24-.037-3.359-.077-.243-.008-.238.134-.237.3C2883.035,1318.129,2883.033,1318.97,2883.033,1319.812Zm0-8.6q0,1.2,0,2.407c0,.169,0,.316.238.307a15.4,15.4,0,0,0,2.486-.1,2.493,2.493,0,0,0,2.131-2.51,2.451,2.451,0,0,0-2.02-2.629,11.8,11.8,0,0,0-2.638-.148c-.235,0-.195.166-.2.3Q2883.031,1310.029,2883.033,1311.212Z" transform="translate(-2879.307 -1304.422)"/>
  <path id="Caminho_464" data-name="Caminho 464" class="cls-1" d="M3770.782,1353.174h-5.708c-.481,0-.466,0-.417-.478a11.238,11.238,0,0,1,4.958-8.175,21.2,21.2,0,0,0,2.886-2.275,2.654,2.654,0,0,0,.818-2.479,2.164,2.164,0,0,0-2.073-1.655,8.809,8.809,0,0,0-4.423.825c-.758.326-.757.328-1.03-.47q-.249-.728-.505-1.452c-.052-.147-.078-.262.114-.349a12.109,12.109,0,0,1,7.735-1.1A4.528,4.528,0,0,1,3776,1342.7a10.375,10.375,0,0,1-2.41,2.433c-.964.758-1.972,1.46-2.865,2.305a6.582,6.582,0,0,0-1.791,2.613c-.1.29-.053.381.278.379,2.431-.013,4.863.005,7.293-.019.42,0,.506.122.486.505a16.208,16.208,0,0,0,0,1.816c.024.386-.123.447-.467.444C3774.614,1353.166,3772.7,1353.174,3770.782,1353.174Z" transform="translate(-3694.362 -1331.87)"/>
  <path id="Caminho_465" data-name="Caminho 465" class="cls-1" d="M3935.122,1341.044c0,1.686.006,3.371-.006,5.057,0,.275.072.36.351.351.647-.02,1.3.008,1.943-.012.285-.009.356.09.349.359q-.026.987,0,1.975c.006.254-.06.34-.327.332-.646-.019-1.3.009-1.942-.013-.289-.01-.381.057-.375.363.019,1.2,0,2.4.016,3.6,0,.3-.085.375-.376.369-.819-.019-1.639-.022-2.458,0-.312.009-.37-.1-.366-.383.015-1.2,0-2.4.013-3.6,0-.28-.079-.349-.354-.348-2.392.011-4.784,0-7.176.014-.318,0-.357-.1-.4-.393a4.009,4.009,0,0,1,1.057-3.179c2.535-3.154,4.976-6.381,7.442-9.588a.763.763,0,0,1,.72-.358,14.807,14.807,0,0,0,1.546,0c.286-.013.348.086.346.355C3935.116,1337.646,3935.122,1339.345,3935.122,1341.044Zm-3.1-.417-4.34,5.829c1.342,0,2.634-.009,3.925.007.3,0,.339-.118.337-.372C3931.933,1344.277,3931.9,1342.464,3932.019,1340.626Z" transform="translate(-3841.064 -1332.109)"/>
  <path id="Caminho_466" data-name="Caminho 466" class="cls-2" d="M3547.351,1377.2c1.283,0,2.5,0,3.707,0,.2,0,.264.148.354.274l3.083,4.257c.03.042.067.079.131.154.492-.672.972-1.326,1.451-1.982.59-.808,1.184-1.615,1.765-2.43a.6.6,0,0,1,.557-.278c1.135.015,2.271.006,3.492.006-.365.5-.689.959-1.021,1.408-1.346,1.822-2.689,3.648-4.051,5.459a.473.473,0,0,0-.01.681q2.478,3.329,4.933,6.675a.422.422,0,0,1,.144.318h-1.878c-.542,0-1.084-.009-1.625,0a.482.482,0,0,1-.455-.234c-1.028-1.435-2.076-2.855-3.1-4.3-.223-.316-.309-.254-.5.015-1.027,1.419-2.072,2.826-3.111,4.237a.513.513,0,0,1-.441.279c-1.176-.01-2.351,0-3.528,0-.061-.192.089-.28.167-.384q2.466-3.313,4.948-6.615a.438.438,0,0,0,.018-.635c-1.6-2.172-3.191-4.358-4.782-6.54C3547.532,1377.469,3547.468,1377.37,3547.351,1377.2Z" transform="translate(-3494.221 -1370.41)"/>
  <path id="Caminho_467" data-name="Caminho 467" class="cls-2" d="M3169.5,1333.644c0-1.329-.015-2.66.01-3.988.007-.378-.117-.464-.468-.449-.62.026-1.241,0-1.862.011-.219,0-.3-.062-.3-.29q.016-1.145,0-2.291c0-.23.084-.292.3-.289.647.01,1.3-.01,1.942.01.289.009.392-.065.385-.37-.02-.895,0-1.791-.012-2.685,0-.229.054-.357.294-.424,1-.28,2-.568,3-.875.3-.093.383-.045.378.279-.017,1.211,0,2.422-.014,3.633-.006.336.065.453.43.445,1.2-.025,2.4,0,3.606-.014.281,0,.38.044.275.352q-.387,1.138-.716,2.3c-.069.243-.218.22-.388.22-.938,0-1.876.014-2.814-.008-.322-.008-.394.1-.393.4.012,2.251,0,4.5.01,6.753a4.656,4.656,0,0,0,.089.861c.153.793.842,1.15,1.83.962a4.058,4.058,0,0,0,1.475-.543c.177-.116.258-.093.342.1.293.689.6,1.373.908,2.057a.257.257,0,0,1-.129.388,4.952,4.952,0,0,1-2.394.718c-.911-.025-1.825-.044-2.734,0a2.675,2.675,0,0,1-2.343-1.221,3.47,3.47,0,0,1-.7-2.175C3169.5,1336.225,3169.5,1334.935,3169.5,1333.644Z" transform="translate(-3144.057 -1319.564)"/>
  <path id="Caminho_468" data-name="Caminho 468" class="cls-2" d="M3331.071,1380.091c0-2.277.007-4.554-.008-6.831,0-.335.1-.423.425-.414.778.022,1.559.02,2.337,0,.3-.007.465.058.5.385.036.285.148.559.2.843.056.322.15.348.383.117a6.019,6.019,0,0,1,2.157-1.435,4.172,4.172,0,0,1,3.306.12c.265.122.307.258.193.518-.356.82-.695,1.647-1.035,2.474-.081.2-.159.311-.4.185a3.19,3.19,0,0,0-3.428.34,1.816,1.816,0,0,0-.946,1.751c.065,2.947.02,5.9.033,8.844,0,.333-.093.421-.42.413q-1.426-.032-2.853,0c-.346.008-.452-.089-.45-.441C3331.078,1384.671,3331.071,1382.381,3331.071,1380.091Z" transform="translate(-3295.206 -1366.066)"/>
  <path id="Caminho_469" data-name="Caminho 469" class="cls-2" d="M3094.759,1384.481c0,2.278-.007,4.556.007,6.834,0,.326-.083.427-.417.419-.99-.022-1.982-.015-2.973,0-.251,0-.343-.06-.342-.328q.011-6.953,0-13.905c0-.282.116-.318.353-.316,1,.009,2.009.016,3.013,0,.315-.006.366.112.365.39C3094.755,1379.872,3094.759,1382.176,3094.759,1384.481Z" transform="translate(-3074.229 -1370.398)"/>
  <path id="Caminho_470" data-name="Caminho 470" class="cls-2" d="M3473.953,1384.421c0-2.276.006-4.552-.007-6.828,0-.327.086-.427.418-.42.99.021,1.981.015,2.971,0,.255,0,.34.07.339.332q-.01,6.947,0,13.894c0,.272-.1.327-.348.325-.977-.011-1.954-.019-2.931,0-.346.008-.453-.088-.451-.44C3473.96,1389,3473.953,1386.71,3473.953,1384.421Z" transform="translate(-3426.746 -1370.393)"/>
  <path id="Caminho_471" data-name="Caminho 471" class="cls-1" d="M4223.918,1385.844c0-.618.013-1.237-.006-1.854-.009-.267.082-.358.335-.327a1.082,1.082,0,0,0,.277,0c.279-.039.357.075.353.351-.017.907.008,1.815-.014,2.722-.007.306.092.372.381.366.9-.018,1.8.017,2.692-.017.431-.016.342.24.345.476s.069.482-.35.473c-1.227-.028-2.455-.016-3.684-.005-.253,0-.344-.063-.335-.33C4223.931,1387.081,4223.918,1386.462,4223.918,1385.844Z" transform="translate(-4117.185 -1376.361)"/>
</svg>
