<svg id="responder" xmlns="http://www.w3.org/2000/svg" width="11.248" height="8.436" viewBox="0 0 11.248 8.436">
  <defs>
    <style>
      .cls-1 {
        fill: #404e67;
      }
    </style>
  </defs>
  <g id="Grupo_115" data-name="Grupo 115" transform="translate(0 0)">
    <path id="Caminho_184" data-name="Caminho 184" class="cls-1" d="M11.239,72.134a6.1,6.1,0,0,0-6.087-5.787V64.7a.7.7,0,0,0-.7-.7.694.694,0,0,0-.473.188S1.014,66.93.162,67.786a.658.658,0,0,0,0,.865c.852.855,3.814,3.6,3.814,3.6a.694.694,0,0,0,.473.188.7.7,0,0,0,.7-.7V70.094c3.372.047,5.62,1.112,5.62,2.107a.234.234,0,0,0,.234.234h.009a.235.235,0,0,0,.225-.3Z" transform="translate(0 -64)"/>
  </g>
</svg>
