<svg id="curtir" xmlns="http://www.w3.org/2000/svg" width="10.5" height="10.072" viewBox="0 0 10.5 10.072">
  <g id="Grupo_112" data-name="Grupo 112" transform="translate(0 3.216)">
    <g id="Grupo_111" data-name="Grupo 111">
      <path id="Caminho_182" data-name="Caminho 182" d="M1.714,167.256H.343A.343.343,0,0,0,0,167.6v6.17a.343.343,0,0,0,.343.343H1.714a.343.343,0,0,0,.343-.343V167.6A.343.343,0,0,0,1.714,167.256Z" transform="translate(0 -167.256)" fill="#00a6ff"/>
    </g>
  </g>
  <g id="Grupo_114" data-name="Grupo 114" transform="translate(2.742 0)">
    <g id="Grupo_113" data-name="Grupo 113">
      <path id="Caminho_183" data-name="Caminho 183" d="M140.628,13.65c-.055-.009-2.64,0-2.64,0l.361-.985a1.777,1.777,0,0,0-.6-2.088,1.185,1.185,0,0,0-.793-.117.572.572,0,0,0-.349.262,1.424,1.424,0,0,0-.11.486,2.1,2.1,0,0,1-.581,1.112c-.532.519-2.186,2.017-2.186,2.017V19.82h5.713a1.038,1.038,0,0,0,.9-1.533,1.038,1.038,0,0,0,.343-1.371,1.038,1.038,0,0,0,.343-1.371A1.046,1.046,0,0,0,140.628,13.65Z" transform="translate(-133.726 -10.433)" fill="#00a6ff"/>
    </g>
  </g>
</svg>
