<svg id="Grupo_670" data-name="Grupo 670" xmlns="http://www.w3.org/2000/svg" width="41.227" height="41.227" viewBox="0 0 41.227 41.227">
  <path id="Caminho_180" data-name="Caminho 180" d="M20.614,0A20.614,20.614,0,1,1,0,20.614,20.614,20.614,0,0,1,20.614,0Z" transform="translate(0 0)" fill="#8ad6ff"/>
  <g id="Grupo_667" data-name="Grupo 667" transform="translate(12.287 9.438)">
    <g id="Grupo_218" data-name="Grupo 218" transform="translate(0)">
      <path id="Caminho_195" data-name="Caminho 195" d="M117.086,200.864a.864.864,0,0,0-.864-.864h-8.9a.864.864,0,0,0,0,1.728h8.9A.864.864,0,0,0,117.086,200.864Z" transform="translate(-103.008 -191.36)" fill="#fff"/>
      <path id="Caminho_196" data-name="Caminho 196" d="M107.323,280a.864.864,0,1,0,0,1.728h5.4a.864.864,0,1,0,0-1.728Z" transform="translate(-103.008 -267.904)" fill="#fff"/>
      <path id="Caminho_197" data-name="Caminho 197" d="M32.915,20.39h-2.89A1.73,1.73,0,0,1,28.3,18.662V3.456a1.73,1.73,0,0,1,1.728-1.728H40.648a1.73,1.73,0,0,1,1.728,1.728V8.769a.864.864,0,0,0,1.728,0V3.456A3.46,3.46,0,0,0,40.648,0H30.026A3.46,3.46,0,0,0,26.57,3.456V18.662a3.46,3.46,0,0,0,3.456,3.456h2.89a.864.864,0,1,0,0-1.728Z" transform="translate(-26.57 0)" fill="#fff"/>
      <path id="Caminho_198" data-name="Caminho 198" d="M253.152,272.782a2.6,2.6,0,0,0-3.665,0l-4.743,4.733a.864.864,0,0,0-.216.36l-1.033,3.4a.864.864,0,0,0,1.057,1.084l3.487-.966a.865.865,0,0,0,.38-.221l4.733-4.725A2.6,2.6,0,0,0,253.152,272.782Zm-5.793,7.007-1.754.486.513-1.69,3.2-3.193,1.222,1.222Zm4.572-4.563-.167.167-1.222-1.222.167-.166a.864.864,0,0,1,1.222,1.221Z" transform="translate(-234.088 -260.273)" fill="#fff"/>
      <path id="Caminho_199" data-name="Caminho 199" d="M116.222,120h-8.9a.864.864,0,0,0,0,1.728h8.9a.864.864,0,1,0,0-1.728Z" transform="translate(-103.008 -114.816)" fill="#fff"/>
    </g>
  </g>
</svg>
