<svg xmlns="http://www.w3.org/2000/svg" width="15.92" height="17.367" viewBox="0 0 15.92 17.367">
  <g id="trash" transform="translate(-18.269)">
    <g id="Grupo_124" data-name="Grupo 124" transform="translate(18.269)">
      <path id="Caminho_186" data-name="Caminho 186" d="M34.087,3a.352.352,0,0,0-.26-.1H30.333l-.791-1.888a1.567,1.567,0,0,0-.61-.712A1.6,1.6,0,0,0,28.038,0H24.42a1.6,1.6,0,0,0-.893.294,1.567,1.567,0,0,0-.611.712l-.791,1.888H18.631a.348.348,0,0,0-.362.362V3.98a.348.348,0,0,0,.362.362h1.085V15.106a2.473,2.473,0,0,0,.531,1.6,1.592,1.592,0,0,0,1.278.661h9.407a1.576,1.576,0,0,0,1.278-.684,2.567,2.567,0,0,0,.531-1.623V4.342h1.086a.348.348,0,0,0,.362-.362V3.256A.353.353,0,0,0,34.087,3ZM24.25,1.571a.319.319,0,0,1,.192-.124h3.584a.319.319,0,0,1,.192.124l.543,1.323H23.7Zm7.044,13.489a1.281,1.281,0,0,1-.079.458,1.02,1.02,0,0,1-.164.305c-.057.064-.1.1-.119.1H21.525c-.023,0-.062-.032-.119-.1a1.014,1.014,0,0,1-.164-.305,1.285,1.285,0,0,1-.079-.458V4.342H31.294V15.061Z" transform="translate(-18.269)" fill="#ff5e5e"/>
      <path id="Caminho_187" data-name="Caminho 187" d="M128.267,171.685h.724a.348.348,0,0,0,.362-.362v-6.513a.348.348,0,0,0-.362-.362h-.724a.348.348,0,0,0-.362.362v6.513a.348.348,0,0,0,.362.362Z" transform="translate(-123.563 -157.936)" fill="#ff5e5e"/>
      <path id="Caminho_188" data-name="Caminho 188" d="M201.356,171.685h.724a.348.348,0,0,0,.362-.362v-6.513a.348.348,0,0,0-.362-.362h-.724a.348.348,0,0,0-.362.362v6.513a.348.348,0,0,0,.362.362Z" transform="translate(-193.758 -157.936)" fill="#ff5e5e"/>
      <path id="Caminho_189" data-name="Caminho 189" d="M274.445,171.685h.723a.348.348,0,0,0,.362-.362v-6.513a.348.348,0,0,0-.362-.362h-.723a.348.348,0,0,0-.362.362v6.513a.348.348,0,0,0,.362.362Z" transform="translate(-263.952 -157.936)" fill="#ff5e5e"/>
    </g>
  </g>
</svg>
