<svg xmlns="http://www.w3.org/2000/svg" width="26" height="26" viewBox="0 0 26 26">
  <g id="Grupo_902" data-name="Grupo 902" transform="translate(-1275 -254)">
    <path id="Caminho_180" data-name="Caminho 180" d="M13,0A13,13,0,1,1,0,13,13,13,0,0,1,13,0Z" transform="translate(1275 254)" fill="#8ad6ff"/>
    <g id="Grupo_873" data-name="Grupo 873">
      <g id="Grupo_872" data-name="Grupo 872">
        <path id="Caminho_481" data-name="Caminho 481" d="M9.565,18H8.435a1.659,1.659,0,0,1-1.657-1.657v-.382a7.267,7.267,0,0,1-1.128-.468l-.271.271a1.657,1.657,0,0,1-2.344,0l-.8-.8a1.657,1.657,0,0,1,0-2.344l.271-.271a7.267,7.267,0,0,1-.468-1.128H1.657A1.659,1.659,0,0,1,0,9.565V8.435A1.659,1.659,0,0,1,1.657,6.778h.382A7.269,7.269,0,0,1,2.508,5.65l-.271-.271a1.657,1.657,0,0,1,0-2.344l.8-.8a1.657,1.657,0,0,1,2.344,0l.271.271a7.274,7.274,0,0,1,1.128-.468V1.657A1.659,1.659,0,0,1,8.435,0h1.13a1.659,1.659,0,0,1,1.657,1.657v.382a7.267,7.267,0,0,1,1.128.468l.271-.271a1.657,1.657,0,0,1,2.344,0l.8.8a1.657,1.657,0,0,1,0,2.344l-.271.271a7.267,7.267,0,0,1,.468,1.128h.382A1.659,1.659,0,0,1,18,8.435v1.13a1.659,1.659,0,0,1-1.657,1.657h-.382a7.269,7.269,0,0,1-.468,1.128l.271.271a1.657,1.657,0,0,1,0,2.344l-.8.8a1.657,1.657,0,0,1-2.344,0l-.271-.271a7.274,7.274,0,0,1-1.128.468v.382A1.659,1.659,0,0,1,9.565,18ZM5.826,14.385a6.216,6.216,0,0,0,1.611.669.527.527,0,0,1,.4.511v.779a.6.6,0,0,0,.6.6h1.13a.6.6,0,0,0,.6-.6v-.779a.527.527,0,0,1,.4-.511,6.216,6.216,0,0,0,1.611-.669.527.527,0,0,1,.641.081l.552.552a.6.6,0,0,0,.852,0l.8-.8a.6.6,0,0,0,0-.852l-.552-.552a.527.527,0,0,1-.081-.641,6.215,6.215,0,0,0,.669-1.611.527.527,0,0,1,.511-.4h.779a.6.6,0,0,0,.6-.6V8.435a.6.6,0,0,0-.6-.6h-.779a.527.527,0,0,1-.511-.4,6.216,6.216,0,0,0-.669-1.611.527.527,0,0,1,.081-.641l.552-.552a.6.6,0,0,0,0-.852l-.8-.8a.6.6,0,0,0-.852,0l-.552.552a.527.527,0,0,1-.641.081,6.216,6.216,0,0,0-1.611-.669.527.527,0,0,1-.4-.511V1.657a.6.6,0,0,0-.6-.6H8.435a.6.6,0,0,0-.6.6v.779a.527.527,0,0,1-.4.511,6.216,6.216,0,0,0-1.611.669.527.527,0,0,1-.641-.081l-.552-.552a.6.6,0,0,0-.852,0l-.8.8a.6.6,0,0,0,0,.852l.552.552a.527.527,0,0,1,.081.641,6.215,6.215,0,0,0-.669,1.611.527.527,0,0,1-.511.4H1.657a.6.6,0,0,0-.6.6v1.13a.6.6,0,0,0,.6.6h.779a.527.527,0,0,1,.511.4,6.216,6.216,0,0,0,.669,1.611.527.527,0,0,1-.081.641l-.552.552a.6.6,0,0,0,0,.852l.8.8a.6.6,0,0,0,.852,0l.552-.552a.53.53,0,0,1,.641-.081Z" transform="translate(1278.833 258)" fill="#fff"/>
        <path id="Caminho_482" data-name="Caminho 482" d="M147.945,151.29a3.345,3.345,0,1,1,3.345-3.345A3.349,3.349,0,0,1,147.945,151.29Zm0-5.789a2.444,2.444,0,1,0,2.444,2.444A2.447,2.447,0,0,0,147.945,145.5Z" transform="translate(1139.948 119.114)" fill="#fff"/>
      </g>
    </g>
  </g>
</svg>
