<svg id="Grupo_750" data-name="Grupo 750" xmlns="http://www.w3.org/2000/svg" width="25.666" height="25.666" viewBox="0 0 25.666 25.666">
  <path id="Caminho_434" data-name="Caminho 434" d="M16.417,11.76,11.069,7.91a.707.707,0,0,0-.642-.107c-.214.214-.428.428-.428.642v7.807a.588.588,0,0,0,.321.535c.107,0,.214.107.321.107a.808.808,0,0,0,.428-.107l5.347-3.85a.588.588,0,0,0,.321-.535,3.56,3.56,0,0,0-.321-.642Zm0,0" transform="translate(0.694 0.539)" fill="#8ad6ff"/>
  <path id="Caminho_435" data-name="Caminho 435" d="M12.833,0A12.833,12.833,0,1,0,25.666,12.833,12.871,12.871,0,0,0,12.833,0Zm0,23.527A10.694,10.694,0,1,1,23.527,12.833,10.59,10.59,0,0,1,12.833,23.527Zm0,0" fill="#8ad6ff"/>
</svg>
