<svg id="move-option" xmlns="http://www.w3.org/2000/svg" width="11.493" height="11.493" viewBox="0 0 11.493 11.493">
  <defs>
    <style>
      .cls-1 {
        fill: #404e67;
      }
    </style>
  </defs>
  <path id="Caminho_265" data-name="Caminho 265" class="cls-1" d="M11.371,5.463,9.73,3.821a.41.41,0,0,0-.7.289v.821H6.568V2.468h.821a.408.408,0,0,0,.289-.7L6.035.127a.4.4,0,0,0-.577,0L3.816,1.769a.411.411,0,0,0,.289.7h.821V4.931H2.463V4.11a.408.408,0,0,0-.7-.289L.122,5.463a.4.4,0,0,0,0,.577L1.764,7.682a.411.411,0,0,0,.7-.289V6.573H4.926V9.035H4.1a.408.408,0,0,0-.289.7l1.642,1.642a.4.4,0,0,0,.577,0L7.677,9.735a.411.411,0,0,0-.289-.7H6.568V6.573H9.031v.821a.408.408,0,0,0,.7.289L11.372,6.04a.4.4,0,0,0,0-.577Z" transform="translate(0 -0.005)"/>
</svg>
