<svg xmlns="http://www.w3.org/2000/svg" xmlns:xlink="http://www.w3.org/1999/xlink" width="18" height="18" viewBox="0 0 18 18">
  <defs>
    <clipPath id="clip-path">
      <rect id="Retângulo_139" data-name="Retângulo 139" width="18" height="18" fill="#404e67"/>
    </clipPath>
  </defs>
  <g id="Grupo_744" data-name="Grupo 744" transform="translate(0 0.171)">
    <path id="Caminho_426" data-name="Caminho 426" d="M203.187,337.174c-.149.038-.3.067-.447.1a.72.72,0,0,0-.577.837.71.71,0,0,0,.294.457.737.737,0,0,0,.544.12q.267-.051.534-.115a.719.719,0,1,0-.346-1.4Zm0,0" transform="translate(-192.423 -320.905)" fill="#404e67"/>
    <path id="Caminho_427" data-name="Caminho 427" d="M330.211,109.119a.707.707,0,0,0,.27.361.718.718,0,0,0,1.1-.813c-.058-.173-.12-.346-.188-.51a.718.718,0,1,0-1.333.534c.053.14.106.284.154.428Zm0,0" transform="translate(-314.125 -102.497)" fill="#404e67"/>
    <path id="Caminho_428" data-name="Caminho 428" d="M257.454,313.908c-.125.082-.26.164-.39.241a.718.718,0,0,0-.265.982.793.793,0,0,0,.207.231.726.726,0,0,0,.775.034q.238-.137.462-.289a.716.716,0,0,0,.2-1,.709.709,0,0,0-.991-.2Zm0,0" transform="translate(-244.351 -298.664)" fill="#404e67"/>
    <path id="Caminho_429" data-name="Caminho 429" d="M343.529,165.183a.72.72,0,0,0-1.439.053c0,.154.01.308,0,.457a.718.718,0,0,0,.308.606.672.672,0,0,0,.4.13.72.72,0,0,0,.736-.7c0-.178,0-.366-.01-.544Zm0,0" transform="translate(-325.629 -156.55)" fill="#404e67"/>
    <path id="Caminho_430" data-name="Caminho 430" d="M302.975,274.039a.716.716,0,0,0-1.006.144c-.091.12-.188.241-.284.356a.718.718,0,0,0,.082,1.015.364.364,0,0,0,.053.038.722.722,0,0,0,.962-.12c.116-.14.231-.284.342-.428a.726.726,0,0,0-.149-1.006Zm0,0" transform="translate(-287.004 -260.69)" fill="#404e67"/>
    <g id="Grupo_743" data-name="Grupo 743" transform="translate(0 -0.171)">
      <g id="Grupo_741" data-name="Grupo 741" clip-path="url(#clip-path)">
        <path id="Caminho_431" data-name="Caminho 431" d="M332.113,222.133a.721.721,0,0,0-.9.472c-.043.144-.1.289-.149.433a.722.722,0,0,0,.26.847.62.62,0,0,0,.159.082.72.72,0,0,0,.929-.414c.063-.168.125-.342.178-.515a.729.729,0,0,0-.472-.9Zm0,0" transform="translate(-315.084 -211.216)" fill="#404e67"/>
      </g>
      <g id="Grupo_742" data-name="Grupo 742" clip-path="url(#clip-path)">
        <path id="Caminho_432" data-name="Caminho 432" d="M7.619,16.388A7.453,7.453,0,0,1,5.771,15.8a.036.036,0,0,0-.019-.01c-.14-.067-.274-.135-.409-.207h0a7.415,7.415,0,0,1-.717-.447A7.513,7.513,0,0,1,4.655,2.828a.048.048,0,0,0,.024-.019,7.528,7.528,0,0,1,8.435-.067l-.563.813c-.154.226-.063.39.212.366L15.207,3.7a.4.4,0,0,0,.366-.524L14.919.817c-.072-.265-.26-.3-.419-.072l-.563.813A8.9,8.9,0,0,0,7.422.172c-.231.038-.457.087-.683.144h0a.208.208,0,0,0-.024,0,8.849,8.849,0,0,0-4.922,3.3c-.01.014-.019.024-.029.038-.038.053-.082.111-.12.168-.063.091-.13.188-.188.279a.121.121,0,0,0-.019.034A8.827,8.827,0,0,0,.007,9.382V9.4c.01.183.024.366.043.544,0,.01,0,.024,0,.034.019.183.043.361.077.544a8.9,8.9,0,0,0,2.5,4.817l.01.01,0,0a9.148,9.148,0,0,0,1.145.958A8.863,8.863,0,0,0,7.364,17.8a.719.719,0,1,0,.255-1.415Zm0,0" transform="translate(0.003 0.159)" fill="#404e67"/>
      </g>
    </g>
    <path id="Caminho_433" data-name="Caminho 433" d="M165.382,65.2a.581.581,0,0,0-.582.582v5.8l5.307,2.743a.6.6,0,0,0,.265.067.584.584,0,0,0,.269-1.1l-4.677-2.416v-5.1a.581.581,0,0,0-.582-.582Zm0,0" transform="translate(-156.87 -62.038)" fill="#404e67"/>
  </g>
</svg>
