<svg id="responder" xmlns="http://www.w3.org/2000/svg" width="16.994" height="12.746" viewBox="0 0 16.994 12.746">
  <g id="Grupo_115" data-name="Grupo 115" transform="translate(0 0)">
    <path id="Caminho_184" data-name="Caminho 184" d="M.015,76.29c.057-4.724,4.13-8.572,9.2-8.743V65.062A1.063,1.063,0,0,1,10.273,64a1.048,1.048,0,0,1,.714.284s4.475,4.143,5.762,5.435a.995.995,0,0,1,0,1.307c-1.287,1.292-5.762,5.435-5.762,5.435a1.048,1.048,0,0,1-.714.284,1.063,1.063,0,0,1-1.061-1.062V73.207c-5.094.072-8.49,1.68-8.49,3.184a.354.354,0,0,1-.354.354H.354a.355.355,0,0,1-.339-.456Z" transform="translate(0 -64)" fill="#404e67"/>
  </g>
</svg>
