<svg xmlns="http://www.w3.org/2000/svg" width="11.25" height="11.493" viewBox="0 0 11.25 11.493">
  <defs>
    <style>
      .cls-1 {
        fill: #fff;
      }
    </style>
  </defs>
  <path id="Caminho_263" data-name="Caminho 263" class="cls-1" d="M5.918,11.493,4.151,8.431H1.941A1.579,1.579,0,0,1,.293,6.936V1.5A1.579,1.579,0,0,1,1.941,0H9.9a1.579,1.579,0,0,1,1.648,1.5V6.936A1.578,1.578,0,0,1,9.9,8.431H7.686ZM1.941.828a.756.756,0,0,0-.82.667V6.936a.756.756,0,0,0,.82.666H4.628L5.917,9.836,7.206,7.6H9.894a.756.756,0,0,0,.82-.666V1.5a.757.757,0,0,0-.82-.667H1.941Z" transform="translate(-0.293)"/>
</svg>
