<svg xmlns="http://www.w3.org/2000/svg" width="18" height="18" viewBox="0 0 18 18">
  <g id="save-file-option" transform="translate(-0.003)">
    <path id="Caminho_203" data-name="Caminho 203" d="M17.768,4.969a2.725,2.725,0,0,0-.563-.89L13.925.8a2.729,2.729,0,0,0-.891-.562A2.7,2.7,0,0,0,12,0H1.128a1.085,1.085,0,0,0-.8.328,1.084,1.084,0,0,0-.328.8v15.75a1.085,1.085,0,0,0,.328.8,1.086,1.086,0,0,0,.8.328h15.75A1.12,1.12,0,0,0,18,16.875V6A2.706,2.706,0,0,0,17.768,4.969ZM7.5,1.875A.38.38,0,0,1,7.878,1.5h2.25a.38.38,0,0,1,.375.375v3.75A.38.38,0,0,1,10.128,6H7.878A.38.38,0,0,1,7.5,5.625Zm6,14.625h-9V12h9Zm3,0H15V11.625A1.12,1.12,0,0,0,13.878,10.5H4.128A1.12,1.12,0,0,0,3,11.625V16.5H1.5V1.5H3V6.375A1.12,1.12,0,0,0,4.128,7.5h6.75A1.12,1.12,0,0,0,12,6.375V1.5a1.263,1.263,0,0,1,.457.117,1.263,1.263,0,0,1,.4.234l3.293,3.293a1.262,1.262,0,0,1,.234.4A1.291,1.291,0,0,1,16.5,6V16.5Z" transform="translate(0 0)" fill="#404e67"/>
  </g>
</svg>
