<svg id="Grupo_639" data-name="Grupo 639" xmlns="http://www.w3.org/2000/svg" width="26.461" height="18.295" viewBox="0 0 26.461 18.295">
  <g id="Grupo_638" data-name="Grupo 638">
    <path id="Caminho_417" data-name="Caminho 417" d="M25.843,88.612c-.181-.367-4.054-6.752-4.153-6.911a3.935,3.935,0,0,0-3.93-1.831h0a1.813,1.813,0,0,0-3.358.95v3.169H12.06V80.819A1.813,1.813,0,0,0,8.7,79.869,3.935,3.935,0,0,0,4.771,81.7c-.01.016-.04.065-.769,1.287a.443.443,0,0,0,.761.454c.6-1.005.746-1.249.763-1.277a3.05,3.05,0,0,1,5.649,1.6h0v4.364A6.025,6.025,0,0,0,3.3,85.894l.656-1.1A.443.443,0,1,0,3.2,84.34C2.255,85.918.774,88.286.587,88.676A6.03,6.03,0,1,0,12.06,91.27V90.093H14.4V91.27a6.03,6.03,0,1,0,11.441-2.658ZM11.174,81.279a3.956,3.956,0,0,0-1.545-1.152.927.927,0,0,1,1.545.692v.46ZM6.03,96.414a5.144,5.144,0,1,1,5.144-5.144A5.15,5.15,0,0,1,6.03,96.414Zm6.03-8.907V84.873H14.4v2.634Zm2.342,1.7H12.06v-.815H14.4Zm.886-8.389a.928.928,0,0,1,1.546-.692,3.956,3.956,0,0,0-1.546,1.152Zm0,2.945h0a3.05,3.05,0,0,1,5.649-1.6c.053.086,1.16,1.942,2.225,3.729a6.025,6.025,0,0,0-7.874,2.233V83.763Zm5.144,12.651a5.144,5.144,0,1,1,5.144-5.144A5.15,5.15,0,0,1,20.431,96.414Z" transform="translate(0 -79.005)" fill="#404e67"/>
  </g>
</svg>
