<svg id="Grupo_93" data-name="Grupo 93" xmlns="http://www.w3.org/2000/svg" width="25.457" height="22.884"><defs><style>.cls-1{fill:#404e67}</style></defs><g id="briefing"><g id="Grupo_92" data-name="Grupo 92"><g id="Grupo_69" data-name="Grupo 69"><g id="Grupo_68" data-name="Grupo 68"><path id="Caminho_155" data-name="Caminho 155" class="cls-1" d="M111.7 144.41a.638.638 0 00-.894.122l-2.819 3.709-.847-.741a.638.638 0 00-.84.96l1.361 1.191a.638.638 0 00.42.158h.064a.638.638 0 00.444-.249l3.233-4.253a.638.638 0 00-.122-.897z" transform="translate(-106.079 -144.28)"/></g></g><g id="Grupo_71" data-name="Grupo 71" transform="translate(8.112)"><g id="Grupo_70" data-name="Grupo 70"><path id="Caminho_156" data-name="Caminho 156" class="cls-1" d="M218.328 144.277h-16.069a.638.638 0 000 1.276h16.069a.638.638 0 100-1.276z" transform="translate(-201.621 -144.277)"/></g></g><g id="Grupo_73" data-name="Grupo 73" transform="translate(8.112 2.127)"><g id="Grupo_72" data-name="Grupo 72"><path id="Caminho_157" data-name="Caminho 157" class="cls-1" d="M212.692 169.326h-10.433a.638.638 0 000 1.276h10.433a.638.638 0 000-1.276z" transform="translate(-201.621 -169.326)"/></g></g><g id="Grupo_75" data-name="Grupo 75" transform="translate(8.112 4.253)"><g id="Grupo_74" data-name="Grupo 74"><path id="Caminho_158" data-name="Caminho 158" class="cls-1" d="M215.074 194.376h-12.815a.638.638 0 100 1.276h12.815a.638.638 0 100-1.276z" transform="translate(-201.621 -194.376)"/></g></g><g id="Grupo_77" data-name="Grupo 77" transform="translate(0 8.677)"><g id="Grupo_76" data-name="Grupo 76"><path id="Caminho_159" data-name="Caminho 159" class="cls-1" d="M111.7 246.612a.638.638 0 00-.894.122l-2.819 3.709-.847-.741a.638.638 0 10-.84.96l1.361 1.191a.639.639 0 00.42.158h.064a.638.638 0 00.444-.249l3.233-4.253a.638.638 0 00-.122-.897z" transform="translate(-106.079 -246.482)"/></g></g><g id="Grupo_79" data-name="Grupo 79" transform="translate(8.112 8.677)"><g id="Grupo_78" data-name="Grupo 78"><path id="Caminho_160" data-name="Caminho 160" class="cls-1" d="M218.328 246.481h-16.069a.638.638 0 000 1.276h16.069a.638.638 0 000-1.276z" transform="translate(-201.621 -246.481)"/></g></g><g id="Grupo_81" data-name="Grupo 81" transform="translate(8.112 10.804)"><g id="Grupo_80" data-name="Grupo 80"><path id="Caminho_161" data-name="Caminho 161" class="cls-1" d="M212.692 271.53h-10.433a.638.638 0 000 1.276h10.433a.638.638 0 000-1.276z" transform="translate(-201.621 -271.53)"/></g></g><g id="Grupo_83" data-name="Grupo 83" transform="translate(8.112 12.931)"><g id="Grupo_82" data-name="Grupo 82"><path id="Caminho_162" data-name="Caminho 162" class="cls-1" d="M215.074 296.579h-12.815a.638.638 0 100 1.276h12.815a.638.638 0 100-1.276z" transform="translate(-201.621 -296.579)"/></g></g><g id="Grupo_85" data-name="Grupo 85" transform="translate(8.112 17.354)"><g id="Grupo_84" data-name="Grupo 84"><path id="Caminho_163" data-name="Caminho 163" class="cls-1" d="M218.328 348.685h-16.069a.638.638 0 000 1.276h16.069a.638.638 0 000-1.276z" transform="translate(-201.621 -348.685)"/></g></g><g id="Grupo_87" data-name="Grupo 87" transform="translate(8.112 19.481)"><g id="Grupo_86" data-name="Grupo 86"><path id="Caminho_164" data-name="Caminho 164" class="cls-1" d="M212.692 373.734h-10.433a.638.638 0 000 1.276h10.433a.638.638 0 000-1.276z" transform="translate(-201.621 -373.734)"/></g></g><g id="Grupo_89" data-name="Grupo 89" transform="translate(8.112 21.608)"><g id="Grupo_88" data-name="Grupo 88"><path id="Caminho_165" data-name="Caminho 165" class="cls-1" d="M215.074 398.783h-12.815a.638.638 0 000 1.276h12.815a.638.638 0 100-1.276z" transform="translate(-201.621 -398.783)"/></g></g><g id="Grupo_91" data-name="Grupo 91" transform="translate(0 17.354)"><g id="Grupo_90" data-name="Grupo 90"><path id="Caminho_166" data-name="Caminho 166" class="cls-1" d="M110.543 348.685h-3.4a1.065 1.065 0 00-1.063 1.063v3.4a1.065 1.065 0 001.063 1.063h3.4a1.064 1.064 0 001.063-1.063v-3.4a1.065 1.065 0 00-1.063-1.063zm-.213 4.253h-2.977v-2.977h2.977z" transform="translate(-106.077 -348.685)"/></g></g></g></g></svg>
