<svg xmlns="http://www.w3.org/2000/svg" width="29.882" height="23.286" viewBox="0 0 29.882 23.286">
  <g id="Grupo_870" data-name="Grupo 870" transform="translate(1431.111 4026)">
    <path id="Caminho_95" data-name="Caminho 95" d="M38.053,152.3v5.1l-2.8,1.963.59.841,1.315-.923v9.388h13.9v-9.388l1.314.923.59-.841-4.51-3.167-.59.841,2.169,1.523v9.082H47.025v-6.917H41.2v6.917H38.19v-9.082l5.924-4.16,2.915,2.047.59-.841-3.505-2.461-2.294,1.611V152.3Zm4.178,9.451H46v5.89H42.231Zm-1.438-6.274-1.712,1.2v-3.352h1.712Zm0,0" transform="translate(-1466.369 -4174.735)" fill="#404e67"/>
    <path id="Caminho_96" data-name="Caminho 96" d="M238.305,132.094a1.884,1.884,0,1,0,.707.746l1.558-1.558h9.787v-1.027H240.145Zm-.961,2.475a.856.856,0,1,1,.856-.856A.857.857,0,0,1,237.344,134.569Zm0,0" transform="translate(-1652.887 -4154.199)" fill="#404e67"/>
    <path id="Caminho_97" data-name="Caminho 97" d="M317,250.488h-6.719l-1.84,1.84a1.884,1.884,0,1,0,.707.746l1.558-1.558H317Zm-9.52,4.315a.856.856,0,1,1,.856-.856A.857.857,0,0,1,307.481,254.8Zm0,0" transform="translate(-1718.23 -4266.215)" fill="#404e67"/>
    <path id="Caminho_98" data-name="Caminho 98" d="M289.446,362.707a1.884,1.884,0,1,0,.961,3.5l1.84,1.84h7.4v-1.027h-6.979l-1.558-1.558a1.883,1.883,0,0,0-1.668-2.757Zm0,2.74a.856.856,0,1,1,.856-.856A.857.857,0,0,1,289.446,365.447Zm0,0" transform="translate(-1701.427 -4370.763)" fill="#404e67"/>
    <path id="Caminho_103" data-name="Caminho 103" d="M318.121,100.195h4.109v1.027h-4.109Zm0,0" transform="translate(-1729.897 -4126.195)" fill="#404e67"/>
    <path id="Caminho_104" data-name="Caminho 104" d="M423.328,100.195h1.027v1.027h-1.027Zm0,0" transform="translate(-1827.913 -4126.195)" fill="#404e67"/>
    <path id="Caminho_105" data-name="Caminho 105" d="M393.27,100.195H394.3v1.027H393.27Zm0,0" transform="translate(-1799.909 -4126.195)" fill="#404e67"/>
    <path id="Caminho_106" data-name="Caminho 106" d="M437.355,395.773h1.027V396.8h-1.027Zm0,0" transform="translate(-1840.981 -4401.569)" fill="#404e67"/>
    <path id="Caminho_107" data-name="Caminho 107" d="M372.227,395.773h3.424V396.8h-3.424Zm0,0" transform="translate(-1780.305 -4401.569)" fill="#404e67"/>
    <path id="Caminho_108" data-name="Caminho 108" d="M442.363,220.43h1.027v1.027h-1.027Zm0,0" transform="translate(-1845.647 -4238.211)" fill="#404e67"/>
    <path id="Caminho_109" data-name="Caminho 109" d="M388.258,220.43h2.671v1.027h-2.671Zm0,0" transform="translate(-1795.24 -4238.211)" fill="#404e67"/>
  </g>
</svg>
