<svg xmlns="http://www.w3.org/2000/svg" width="37" height="37" viewBox="0 0 37 37">
  <g id="Grupo_899" data-name="Grupo 899" transform="translate(1754 3989)">
    <rect id="Retângulo_161" data-name="Retângulo 161" width="37" height="37" rx="18.5" transform="translate(-1754 -3989)" fill="#8ad6ff"/>
    <path id="Caminho_474" data-name="Caminho 474" d="M15.437,1.875a6.265,6.265,0,0,0-9.164,8.535l-.746.746-.76-.76a.444.444,0,0,0-.628,0L.575,13.959a1.964,1.964,0,1,0,2.778,2.778l3.563-3.563a.444.444,0,0,0,0-.628l-.76-.76.746-.746a6.265,6.265,0,0,0,8.535-9.164ZM2.725,16.108A1.075,1.075,0,1,1,1.2,14.587L3.192,12.6,4.713,14.12Zm2.617-2.617L3.82,11.971l.632-.632L5.973,12.86Zm9.467-3.384a5.377,5.377,0,1,1,1.575-3.8A5.383,5.383,0,0,1,14.808,10.107Z" transform="translate(-1744 -3979.043)" fill="#404e67"/>
    <path id="Caminho_475" data-name="Caminho 475" d="M205.1,58.372a4.338,4.338,0,1,0,0,6.137h0A4.345,4.345,0,0,0,205.1,58.372Zm-.628,5.509a3.449,3.449,0,1,1,0-4.88A3.455,3.455,0,0,1,204.468,63.881Z" transform="translate(-1935.021 -4034.178)" fill="#404e67"/>
    <path id="Caminho_476" data-name="Caminho 476" d="M276.8,117.036a2.343,2.343,0,0,0-3.309,0,.444.444,0,0,0,.628.628,1.453,1.453,0,0,1,2.052,0,.444.444,0,0,0,.628-.628Z" transform="translate(-2008.141 -4091.429)" fill="#404e67"/>
  </g>
</svg>
