<svg xmlns="http://www.w3.org/2000/svg" width="16" height="17.853" viewBox="0 0 16 17.853">
  <defs>
    <style>
      .cls-1 {
        fill: #404e67;
      }
    </style>
  </defs>
  <g id="writing" transform="translate(-26.57)">
    <g id="Grupo_219" data-name="Grupo 219" transform="translate(26.57)">
      <g id="Grupo_218" data-name="Grupo 218" transform="translate(0)">
        <path id="Caminho_195" data-name="Caminho 195" class="cls-1" d="M115.037,200.7a.7.7,0,0,0-.7-.7h-7.183a.7.7,0,1,0,0,1.395h7.183A.7.7,0,0,0,115.037,200.7Z" transform="translate(-103.673 -193.026)"/>
        <path id="Caminho_196" data-name="Caminho 196" class="cls-1" d="M107.156,280a.7.7,0,0,0,0,1.395h4.363a.7.7,0,0,0,0-1.395Z" transform="translate(-103.673 -270.237)"/>
        <path id="Caminho_197" data-name="Caminho 197" class="cls-1" d="M31.692,16.458H29.36a1.4,1.4,0,0,1-1.395-1.395V2.79A1.4,1.4,0,0,1,29.36,1.395h8.574A1.4,1.4,0,0,1,39.328,2.79V7.078a.7.7,0,0,0,1.395,0V2.79A2.793,2.793,0,0,0,37.933,0H29.36a2.793,2.793,0,0,0-2.79,2.79V15.063a2.793,2.793,0,0,0,2.79,2.79h2.332a.7.7,0,0,0,0-1.395Z" transform="translate(-26.57)"/>
        <path id="Caminho_198" data-name="Caminho 198" class="cls-1" d="M251.283,272.636a2.094,2.094,0,0,0-2.958,0l-3.829,3.82a.7.7,0,0,0-.175.291l-.834,2.745a.7.7,0,0,0,.853.875l2.815-.78a.7.7,0,0,0,.307-.178l3.821-3.814A2.1,2.1,0,0,0,251.283,272.636Zm-4.676,5.656-1.416.392.414-1.364,2.583-2.578.986.986Zm3.691-3.684-.135.135-.986-.986.135-.134a.7.7,0,0,1,.987.986Z" transform="translate(-235.894 -262.539)"/>
        <path id="Caminho_199" data-name="Caminho 199" class="cls-1" d="M114.339,120h-7.183a.7.7,0,0,0,0,1.395h7.183a.7.7,0,1,0,0-1.395Z" transform="translate(-103.673 -115.816)"/>
      </g>
    </g>
  </g>
</svg>
