<svg xmlns="http://www.w3.org/2000/svg" width="26" height="26" viewBox="0 0 26 26">
  <defs>
    <style>
      .cls-1 {
        fill: #8ad6ff;
      }

      .cls-2 {
        fill: #fff;
      }
    </style>
  </defs>
  <g id="Grupo_903" data-name="Grupo 903" transform="translate(-1513.333 -1006)">
    <path id="Caminho_180" data-name="Caminho 180" class="cls-1" d="M13,0A13,13,0,1,1,0,13,13,13,0,0,1,13,0Z" transform="translate(1513.333 1006)"/>
    <g id="export" transform="translate(1519.933 1010.555)">
      <path id="Caminho_193" data-name="Caminho 193" class="cls-2" d="M14.289,23.348H12.064v1.32h2.225c.662,0,1.175.338,1.175.629v5.854c0,.291-.513.629-1.175.629H5.879c-.662,0-1.175-.338-1.175-.629V25.3c0-.291.513-.629,1.175-.629H8.1v-1.32H5.879a2.248,2.248,0,0,0-2.5,1.949v5.854a2.248,2.248,0,0,0,2.5,1.949h8.41a2.249,2.249,0,0,0,2.5-1.949V25.3A2.249,2.249,0,0,0,14.289,23.348Z" transform="translate(-3.384 -18.211)"/>
      <path id="Caminho_194" data-name="Caminho 194" class="cls-2" d="M22.616,3.29a.658.658,0,0,0,.467-.193l.826-.826V8.986a.66.66,0,0,0,1.32,0V2.226L26.1,3.1a.66.66,0,0,0,.933-.933L25.063.193A.657.657,0,0,0,24.6,0h-.01a.657.657,0,0,0-.466.193L22.149,2.164a.66.66,0,0,0,.467,1.127Z" transform="translate(-17.87)"/>
    </g>
  </g>
</svg>
