<svg xmlns="http://www.w3.org/2000/svg" width="112.197" height="102.917" viewBox="0 0 112.197 102.917">
  <defs>
    <style>
      .cls-1 {
        fill: #404e67;
      }
    </style>
  </defs>
  <g id="Grupo_378" data-name="Grupo 378" transform="translate(-1900.703 -211.611)">
    <path id="Caminho_249" data-name="Caminho 249" class="cls-1" d="M1953.585,303.023h-19.248c-.5,0-1,0-1.5-.006-1.065-.014-1.823-.539-1.863-1.6-.043-1.135.824-1.565,1.836-1.574,3.665-.031,7.331-.028,11-.029q14.373,0,28.745,0c.584,0,1.168-.021,1.75.009,1.126.057,2.314.168,2.212,1.7-.086,1.29-1.086,1.513-2.182,1.5-1.166-.018-2.333,0-3.5,0Z" transform="translate(-15.106 -44.016)"/>
    <path id="Caminho_250" data-name="Caminho 250" class="cls-1" d="M1953.9,324.431c-6.58,0-13.161.019-19.741-.016-1.251-.007-3.066.4-3.1-1.525-.034-1.858,1.666-1.673,3.005-1.673q19.742.006,39.485,0c.416,0,.833-.01,1.249.008,1.074.046,1.75.571,1.755,1.682,0,1.058-.755,1.436-1.663,1.469-1.58.057-3.164.048-4.746.05Q1962.023,324.436,1953.9,324.431Z" transform="translate(-15.149 -54.696)"/>
    <path id="Caminho_251" data-name="Caminho 251" class="cls-1" d="M1953.677,281.387q-10,0-20,0c-1.146,0-2.645.193-2.7-1.427-.056-1.73,1.4-1.7,2.714-1.7q20.121.023,40.243,0c1.208,0,2.545-.077,2.555,1.582.01,1.728-1.43,1.536-2.573,1.538Q1963.8,281.4,1953.677,281.387Z" transform="translate(-15.111 -33.258)"/>
    <path id="Caminho_252" data-name="Caminho 252" class="cls-1" d="M1970.164,373.087c-.382,1.146-.936,1.935-2.19,1.483a4.166,4.166,0,0,1-1.419-.995c-1.49-1.47-2.824-1.989-4.54-.124-1.139,1.238-2.692,1.106-4.01-.079-.309-.278-.62-.554-.941-.818-1.46-1.2-2.577-3.581-4.264-3.49-1.47.08-2.837,2.087-4.245,3.249-.768.634-1.52,1.289-2.292,1.919a1.432,1.432,0,0,1-2.2-.046,1.413,1.413,0,0,1,.073-2.2c2.44-2.128,4.89-4.247,7.414-6.272a2.362,2.362,0,0,1,3.2.308,21.69,21.69,0,0,1,2.372,2.208c1.73,2.005,3.412,3.389,5.669.589a1.607,1.607,0,0,1,2.063-.33,22.751,22.751,0,0,1,4.773,3.564A3.674,3.674,0,0,1,1970.164,373.087Z" transform="translate(-21.393 -76.657)"/>
    <g id="Grupo_374" data-name="Grupo 374" transform="translate(1900.703 211.611)">
      <path id="Caminho_254" data-name="Caminho 254" class="cls-1" d="M2010.873,227.067a3.223,3.223,0,0,1-.477-3.345,8,8,0,0,0-2.12-8.5c-5-4.993-12.387-5.143-16.148,1.637-4.073,7.34-8.476,14.5-12.741,21.73-.774,1.313-1.576,2.608-2.365,3.911a23.115,23.115,0,0,1-.555-6.307,3.669,3.669,0,0,0-1.12-2.9q-10.219-10.127-20.353-20.34a3.156,3.156,0,0,0-2.423-1.036c-3.17.038-6.341.027-9.51.009-1.144-.007-2.082.343-2.059,1.611.023,1.3,1.045,1.527,2.144,1.52,2.086-.015,4.182.125,6.255-.043,1.953-.158,2.387.606,2.336,2.425-.126,4.5-.07,9.008-.049,13.513.023,4.738,1.127,5.795,5.966,5.8,4.505,0,9.013.085,13.514-.04,1.793-.05,2.239.539,2.2,2.256-.114,4.5-.063,9.009-.022,13.513a6.037,6.037,0,0,1-.873,3.3q-5.875,9.855-11.625,19.784a3.314,3.314,0,0,1-3.333,1.913c-11.6-.1-23.193-.065-34.79-.067-1.752,0-3.5.039-5.255.052a1.41,1.41,0,0,0-1.594,1.509,1.535,1.535,0,0,0,1.616,1.556c.583.018,1.168.009,1.752.009q18.021,0,36.042.022c.749,0,1.625-.39,2.326.375-.485.824-.949,1.606-1.408,2.392s-.9,1.6-1.381,2.372a3.037,3.037,0,0,0-.5,2.854c.768,1.571.047,2.668-.72,3.865a32.107,32.107,0,0,0-1.773,3c-1.27,2.558-.62,4.783,1.74,6.212,2.49,1.507,4.487,1.111,6.22-1.366.9-1.291,1.633-2.7,2.445-4.06.332-.554.536-1.194,1.407-1.2,1.83-.008,2.777-1.271,3.6-2.68q2.765-4.733,5.548-9.454l.532.126c0,8.4-.085,16.793.054,25.187.04,2.359-.537,3.1-3.006,3.089q-31.786-.153-63.573-.011c-2.343.01-2.958-.673-2.937-2.954.107-11.344.051-22.689.053-34.034q0-27.4.018-54.806c0-3.953.484-4.392,4.522-4.407,5.172-.02,10.345.007,15.518,0q5.256,0,10.512-.029c1.029,0,1.834-.334,1.835-1.542s-.785-1.544-1.824-1.558q-.5-.007-1-.007c-8.677,0-17.354-.023-26.03,0-4.773.015-6.752,2.066-6.752,6.9q0,45.047,0,90.094c0,4.146,1.416,5.592,5.51,5.592q32.412.005,64.824-.008c4.1,0,5.4-1.285,5.412-5.36.026-8.592.185-17.189-.045-25.775-.117-4.377.282-8.405,3.065-11.965.728-.931,1.345-2.172-.166-2.947-1.451-.745-2.043.477-2.649,1.5-3.424,5.8-6.877,11.582-10.284,17.39-2.559,4.362-2.462,4.234-6.811,1.992-2.188-1.128-2.049-2.073-.933-3.927,5.747-9.545,11.389-19.154,17.018-28.77,3.084-5.269,3.021-5.265,8.115-2.1,1.071.665,1.4,1.139.606,2.3-1.122,1.645-2.008,3.449-3.035,5.161-.547.913-.635,1.773.334,2.362a1.576,1.576,0,0,0,2.345-.661c1.031-1.708,2.01-3.447,3.058-5.144.366-.593.508-1.565,1.484-1.452,2.522.294,3.462-1.477,4.5-3.24q6.938-11.838,13.935-23.641c.279-.472.38-1.292,1.078-1.239.779.06.91.934,1.1,1.5a7.205,7.205,0,0,1-.841,6.2c-3.449,5.785-6.847,11.6-10.27,17.4-.553.938-.87,1.911.215,2.625s1.88.116,2.454-.863c3.657-6.241,7.375-12.449,10.942-18.741A8.745,8.745,0,0,0,2010.873,227.067Zm-54.614,6.488c-1.08,0-1.448-.6-1.447-1.583q.01-6.924,0-13.864l15.215,15.444C1965.654,233.552,1960.957,233.548,1956.259,233.555Zm2.261,58.809c.486.378,1.314.4,1.33,1.277.012.6-2.819,5.23-3.343,5.429a4.838,4.838,0,0,1-.541.132c-1.07-.338-2.1-.791-1.336-2.23.772-1.46,1.7-2.839,2.5-4.281C1957.511,292.021,1957.937,291.911,1958.52,292.364Zm47.929-67.525q-8.179,13.831-16.281,27.707c-.64,1.1-1.1,1.62-2.429.754-2.639-1.721-5.383-3.288-8.141-4.817-1.27-.7-1.591-1.33-.777-2.694,5.53-9.272,10.953-18.607,16.478-27.882,1.642-2.756,4.051-3.672,6.78-2.879,3.278.952,5.571,3.56,5.547,6.31A7.837,7.837,0,0,1,2006.449,224.84Z" transform="translate(-1900.703 -211.611)"/>
    </g>
  </g>
</svg>
