<svg xmlns="http://www.w3.org/2000/svg" width="25.211" height="23.015" viewBox="0 0 25.211 23.015">
  <defs>
    <style>
      .cls-1 {
        fill: #fff;
      }

      .cls-2 {
        fill: #404e67;
      }
    </style>
  </defs>
  <g id="Grupo_904" data-name="Grupo 904" transform="translate(-1251 -1007.985)">
    <path id="União_1" data-name="União 1" class="cls-1" d="M5.606,14V8.393H0V5.606H5.606V0H8.393V5.606H14V8.393H8.393V14Z" transform="translate(1251 1012)"/>
    <g id="surface1" transform="translate(1258.182 1007.985)">
      <path id="Caminho_114" data-name="Caminho 114" class="cls-2" d="M2.305,9.668a.384.384,0,0,1-.543,0L.612,8.517a.384.384,0,0,1,0-.542L8.476.111a.383.383,0,0,1,.542,0l1.151,1.151a.383.383,0,0,1,0,.542Zm-.88-1.422.608.608L3.218,7.671l-.608-.608ZM8.747.925,3.152,6.52l.608.608L9.355,1.534Zm0,0" transform="translate(7.747 0.001)"/>
      <path id="Caminho_115" data-name="Caminho 115" class="cls-2" d="M203.418,421.2a49.872,49.872,0,0,1,12.37,0,.384.384,0,0,1,.336.381v1.534a.383.383,0,0,1-.431.381c-.736-.092-1.474-.161-2.213-.22l.726,9.784a.383.383,0,0,1-.383.412h-8.439a.384.384,0,0,1-.383-.412l.726-9.784c-.739.059-1.477.128-2.213.22a.409.409,0,0,1-.047,0,.384.384,0,0,1-.384-.384v-1.534A.384.384,0,0,1,203.418,421.2Zm9.991,11.5-.54-7.288h-6.533l-.54,7.288Zm-.6-8.055-.106-1.433a49.119,49.119,0,0,0-6.207,0l-.106,1.433Zm-8.964-1.967a49.925,49.925,0,0,1,11.507,0v-.762a49.173,49.173,0,0,0-11.507,0Zm0,0" transform="translate(-203.082 -410.457)"/>
      <path id="Caminho_116" data-name="Caminho 116" class="cls-2" d="M391.641,156.2a.384.384,0,0,1,.756,0,1.484,1.484,0,0,0,1.219,1.219.383.383,0,0,1,0,.756A1.484,1.484,0,0,0,392.4,159.4a.384.384,0,0,1-.756,0,1.484,1.484,0,0,0-1.219-1.219.383.383,0,0,1,0-.756A1.484,1.484,0,0,0,391.641,156.2Zm.378,2.145a2.256,2.256,0,0,1,.548-.548.548.548,0,1,0-1.1,0A2.257,2.257,0,0,1,392.019,158.347Zm0,0" transform="translate(-385.498 -152.046)"/>
      <path id="Caminho_117" data-name="Caminho 117" class="cls-2" d="M533.867,33.51a1.484,1.484,0,0,0-1.219,1.219.384.384,0,0,1-.756,0,1.484,1.484,0,0,0-1.22-1.219.384.384,0,0,1,0-.756,1.484,1.484,0,0,0,1.22-1.219.384.384,0,0,1,.756,0,1.484,1.484,0,0,0,1.219,1.219.384.384,0,0,1,0,.756Zm-1.6-.926a2.252,2.252,0,0,1-.548.548.548.548,0,0,0,1.1,0A2.251,2.251,0,0,1,532.269,32.584Zm0,0" transform="translate(-529.201 -30.446)"/>
      <path id="Caminho_118" data-name="Caminho 118" class="cls-2" d="M360.021,719l-.287-3.452-.765.064.287,3.452Zm0,0" transform="translate(-350.816 -697.93)"/>
      <path id="Caminho_119" data-name="Caminho 119" class="cls-2" d="M373.4,654.275l-.048-.767-.766.048.048.767Zm0,0" transform="translate(-364.53 -637.422)"/>
      <path id="Caminho_120" data-name="Caminho 120" class="cls-2" d="M282.922,46.75V47.9h1.151v.767h-1.151v1.151h-.767V48.668H281V47.9h1.151V46.75Zm0,0" transform="translate(-272.949 -45.599)"/>
    </g>
  </g>
</svg>
