<svg id="Grupo_371" data-name="Grupo 371" xmlns="http://www.w3.org/2000/svg" width="74.11" height="102.917" viewBox="0 0 74.11 102.917">
  <defs>
    <style>
      .cls-1 {
        fill: #404e67;
      }
    </style>
  </defs>
  <path id="Caminho_240" data-name="Caminho 240" class="cls-1" d="M1034.777,331.119c-.077-.608-.145-1.22-.265-1.82-1.319-6.587-2.663-13.17-3.97-19.759a10.088,10.088,0,0,0-7.987-8.444c-4.438-1.113-8.887-2.184-13.318-3.324-.855-.22-2.125.044-2.187-1.45-.055-1.314,0-2.371,1.4-3.266a18.969,18.969,0,0,0,9.207-15.516,2.174,2.174,0,0,1,1.755-2.267,5.481,5.481,0,0,0,3.994-4.37c.549-3.691.618-7.457.825-11.2a1.335,1.335,0,0,0-1.323-1.564c-1.073-.054-1.522.589-1.568,1.558-.061,1.3-.052,2.606-.113,3.908-.019.4-.035,1.222-.608.872-1.081-.661-2.96-.4-2.852-2.617a5.181,5.181,0,0,0-3.316-5.056c-9.856-4.759-19.888-5.387-30.2-1.5-3.556,1.34-6.721,2.77-6.444,7.38.074,1.224-1.146,1.2-1.825,1.319-.933.158-.58-.828-.681-1.347-.117-.6-.142-1.215-.205-1.824A29.587,29.587,0,0,1,980.368,240c1.114-1.573,2.373-2.227,4.281-1.193a14,14,0,0,0,7.825,1.323q2.523-.175,5.039-.441c4.856-.507,9.641-.109,13.592,2.92,3.639,2.789,8.393,4.684,9.417,10.029a1.362,1.362,0,0,0,1.974.993c.886-.333.963-1.014.748-1.865-.834-3.307-2.3-6.166-5.455-7.836a9.329,9.329,0,0,1-1.992-1.519,20.769,20.769,0,0,0-10.9-5.431,32.6,32.6,0,0,0-8.7-.153c-3.265.315-6.586.9-9.772-.409-4.563-1.868-6.4-1.313-9.13,2.845-4.763,7.257-6.04,15.2-4.923,23.7.182,1.387.857,2.729.365,4.256-1.281,3.97-.069,6.447,3.9,8.165.778.337,1.283.673,1.34,1.6a19.659,19.659,0,0,0,9.652,16.248c1.2.751.991,1.75.985,2.783-.008,1.242-1.119,1.071-1.826,1.275-4.69,1.347-9.394,2.647-14.1,3.937-3.691,1.012-6.348,3.276-7.168,6.995q-2.589,11.735-4.652,23.584c-.625,3.589,1.573,6.236,5.231,6.385,5.435.221,10.884.081,16.327.075a1.436,1.436,0,0,0,1.642-1.507c.024-1.172-.833-1.317-1.709-1.4a3.884,3.884,0,0,0-.919-.009c-1.537.219-1.957-.44-1.929-1.95.092-4.829.024-9.66.035-14.491a38.774,38.774,0,0,0-2.322-14.155c-.22-.573-1.026-1.566.274-1.819,1.015-.2,2.134-1.4,3.168.331a24.694,24.694,0,0,0,10.093,9.449,5.31,5.31,0,0,1,3.026,4.3,4.114,4.114,0,0,0,8.109-.038,5.087,5.087,0,0,1,2.842-4.163,25.163,25.163,0,0,0,10.278-9.575c1-1.678,2.179-.323,3.183-.14,1.27.231.431,1.257.227,1.819a39.466,39.466,0,0,0-2.265,13.935c.034,4.753-.092,9.51.056,14.26.059,1.908-.592,2.286-2.346,2.267-7.666-.087-15.333-.04-23-.034-1.078,0-2.438-.065-2.459,1.368-.023,1.516,1.29,1.583,2.522,1.578,6.287-.026,12.574-.012,18.861-.013s12.574.041,18.86-.015C1033.147,338.219,1035.345,335.6,1034.777,331.119ZM1017.9,266.7a3.084,3.084,0,0,1,2.617,2.5,2.719,2.719,0,0,1-1.137,2.775c-.333.274-.741.714-1.188.383-.224-.166-.274-.661-.28-1.009C1017.884,269.858,1017.9,268.362,1017.9,266.7Zm-39.965,2.977c-.521.88.655,2.548-.7,2.66-1.293.106-2.078-1.311-2.061-2.766.016-1.369.871-2.737,1.975-2.635C978.7,267.084,977.431,268.765,977.936,269.68Zm-8.2,65.65c-6.341-.056-6.632-.319-5.467-6.545,1.177-6.29,2.442-12.563,3.726-18.832a4.4,4.4,0,0,1,1.568-3,30.053,30.053,0,0,1,1.987,10.631c.163,5.351-.013,10.711.084,16.065C971.663,335.2,971.031,335.342,969.736,335.33Zm5.813.017c-1.126-.011-1.13-.731-1.125-1.556.018-3.215.007-6.43.007-9.645.043-6.268.265-12.558-2.255-18.516a.918.918,0,0,1,.646-1.412c.929-.293,1.235.285,1.475.978a35.639,35.639,0,0,1,2.262,10.693c.154,5.967.074,11.941.106,17.911C976.67,334.614,976.7,335.358,975.549,335.347Zm5.694-55.481c-.773-3.422-.261-6.865-.455-9.843,0-2.9.058-5.357-.022-7.806a2.911,2.911,0,0,1,1.866-3.074c10.137-4.588,20.227-4.623,30.313.187a3.122,3.122,0,0,1,1.96,3.249c-.067,4.674.027,9.35-.047,14.023-.14,8.788-6.737,15.61-15.907,16.538C991.017,293.944,983.067,287.939,981.243,279.866Zm8.165,19.747c1.754-.233,2.2-1.343,2.043-2.938-.076-.767-.148-1.7.931-1.291a20.674,20.674,0,0,0,10.651.068c1.216-.32,1.268.4,1.192,1.242-.157,1.749.009,3.2,2.257,3.448.974.108.406.73.107,1.146-1.185,1.647-2.956,2.6-4.46,3.872-2.957,2.5-5.489,2.557-8.5.051-1.571-1.308-3.346-2.361-4.662-3.99C988.305,300.4,987.978,299.8,989.407,299.613Zm22.033,3.625a19.61,19.61,0,0,1-6.7,6.145c-2.875,1.489-5.323,3.326-5.689,6.929a1.2,1.2,0,0,1-1.283,1.209,1.317,1.317,0,0,1-1.216-1.337c-.339-3.286-2.459-5.134-5.164-6.518a20.058,20.058,0,0,1-7.51-6.921c-.277-.413-1.112-.927-.232-1.48.669-.42,1.489-.6,1.976.318,2.477,4.681,7.824,6,11.22,9.61a1.217,1.217,0,0,0,1.856.073c1.974-2.364,4.871-3.4,7.228-5.2a15.022,15.022,0,0,0,3.741-4.015,1.368,1.368,0,0,1,2.1-.6C1012.873,302.17,1011.785,302.767,1011.441,303.238Zm12.121,2.209c-3.61,9.072-1.895,18.58-2.3,27.913a5.027,5.027,0,0,0,0,.688c.084.861-.284,1.273-1.162,1.286-.964.013-1.094-.546-1.087-1.341.025-3.06.01-6.121.01-9.181-.073-6.035-.188-12.074,1.813-17.9.247-.719.54-1.422.778-2.144.23-.7.725-.678,1.285-.534A.83.83,0,0,1,1023.562,305.447Zm3.777,29.892c-.688,0-1.376-.017-2.064,0-.865.021-1.216-.349-1.191-1.242.218-7.7-.629-15.45.865-23.1.26-1.333.693-2.633,1.162-4.375,1.847,2.608,1.878,5.193,2.39,7.606,1.121,5.287,2.1,10.6,3.162,15.9C1032.512,334.356,1031.735,335.311,1027.339,335.339Z" transform="translate(-960.755 -235.396)"/>
</svg>
