<svg xmlns="http://www.w3.org/2000/svg" width="74.207" height="103.163" viewBox="0 0 74.207 103.163">
  <defs>
    <style>
      .cls-1 {
        fill: #404e67;
      }
    </style>
  </defs>
  <path id="Caminho_238" data-name="Caminho 238" class="cls-1" d="M793.486,330.594c-.472-2.476-1.02-4.938-1.467-7.418-.216-1.2-.581-2.132-2.039-1.773-1.332.327-1.228,1.259-.969,2.352.544,2.3.976,4.629,1.447,6.948.6,2.95-.126,4.008-3.091,4.234-1.831.14-3.682,0-5.513.133-1.456.108-1.983-.288-1.933-1.854.122-3.753.017-7.513.052-11.269.011-1.235-.1-2.573-1.541-2.606s-1.621,1.282-1.61,2.53c.033,3.757-.047,7.515.042,11.27.034,1.425-.265,1.952-1.847,1.943q-18.518-.106-37.038,0c-1.5.008-1.75-.488-1.719-1.825.086-3.755.013-7.514.04-11.27.009-1.2.035-2.571-1.465-2.639-1.66-.075-1.734,1.329-1.727,2.63.022,3.834-.027,7.668.029,11.5.017,1.126-.2,1.664-1.487,1.591-1.911-.109-3.836.036-5.748-.056-3.07-.147-3.89-1.271-3.289-4.306,1.349-6.814,2.751-13.618,4.031-20.445a7.821,7.821,0,0,1,6.386-6.652c4.294-1.044,8.592-2.067,12.872-3.163,1.242-.318,1.783-.016,2.319,1.222a8.42,8.42,0,0,0,8.406,5.264,8.589,8.589,0,0,0,8.409-5.642c.387-.952.615-1.3,1.7-1,4.782,1.28,9.613,2.383,14.383,3.706a6.674,6.674,0,0,1,5.048,5.393c.422,2.1.808,4.2,1.242,6.293a1.524,1.524,0,0,0,2.006,1.337c1.025-.243,1.216-1.058,1.032-1.981-.374-1.872-.84-3.727-1.145-5.609-.766-4.727-3.664-7.421-8.128-8.592-4.5-1.181-9.042-2.234-13.538-3.441-.646-.174-1.8.182-1.852-1.2a2.216,2.216,0,0,1,1.216-2.2,19.324,19.324,0,0,0,9.393-15.693,1.917,1.917,0,0,1,1.53-2.073c3.424-1.139,5.423-4.841,4.006-7.59a10.92,10.92,0,0,1-.929-5.294c-.015-2.223.015-4.447-.007-6.671-.08-8.026-4.439-13.864-12.113-16.128-3.542-1.045-6.961-2.273-9.873-4.667a3.6,3.6,0,0,0-4.871-.043c-2.979,2.448-6.486,3.667-10.091,4.746a16.211,16.211,0,0,0-6.428,3.407c-.795.723-1.528,1.484-.653,2.5.854,1,1.806.5,2.615-.2a16.8,16.8,0,0,1,6.739-3.3,22.87,22.87,0,0,0,9.028-4.313,1.445,1.445,0,0,1,2.063-.175c3.362,2.882,7.584,3.839,11.6,5.292,5.434,1.967,8.34,6.047,8.992,11.667a59.566,59.566,0,0,1,.075,7.584c-.006.485.428,1.312-.562,1.4-1.085.1-.976-.771-.961-1.413.068-3.138-1.695-4.8-4.384-6.023a37.055,37.055,0,0,0-28.567-1.265c-3.793,1.328-7.5,2.765-7.111,7.882.045.589-.284.775-.818.832-.726.077-.694-.411-.686-.861.057-3.442-.3-6.908.513-10.306.285-1.195.971-2.611-.745-3.039-1.924-.48-1.833,1.282-2.172,2.49-1.143,4.068-.523,8.228-.684,12.347a6.928,6.928,0,0,1-.394,2.686,5.963,5.963,0,0,0,3.665,8.458,1.93,1.93,0,0,1,1.536,2.066,19.474,19.474,0,0,0,9.5,15.628,2.263,2.263,0,0,1,1.077,2.251c.044,1.271-1,1.007-1.606,1.163-4.658,1.207-9.341,2.315-14,3.5a9.9,9.9,0,0,0-7.8,8.092q-2.182,10.659-4.2,21.351c-.964,5.154,1.246,7.769,6.431,7.775q15.184.018,30.367,0c10.276,0,20.552.017,30.828-.008C791.981,338.039,794.354,335.152,793.486,330.594Zm-16.907-62.974A2.66,2.66,0,0,1,779.142,270a2.784,2.784,0,0,1-1.127,2.826c-.7.556-1.429.812-1.434-.563C776.576,270.743,776.579,269.225,776.579,267.621Zm-40.416,5.622a1.89,1.89,0,0,1-1.2-.531,2.7,2.7,0,0,1-1.035-2.837c.27-1.35,1.178-2,2.622-2.4,0,1.6.038,3.025-.022,4.445C736.51,272.373,736.93,273.1,736.163,273.243ZM756.459,304a6.77,6.77,0,0,1-6.318-6.619c0-1.026.311-1.431,1.3-1.17a18.654,18.654,0,0,0,10.383.017c1.057-.322,1.078.3,1.1,1.086A6.716,6.716,0,0,1,756.459,304Zm-16.552-24.465c-.854-5.64-.2-11.319-.38-16.977a2.577,2.577,0,0,1,1.648-2.536c10.288-4.7,20.544-4.716,30.75.26a2.99,2.99,0,0,1,1.651,3.027c-.03,2.528-.009,5.057-.009,8.105-.219,3.124.368,6.786-.772,10.412a17.1,17.1,0,0,1-17.723,12.053C747.686,293.358,741.053,287.1,739.907,279.534Z" transform="translate(-719.455 -234.899)"/>
</svg>
