<svg id="Grupo_372" data-name="Grupo 372" xmlns="http://www.w3.org/2000/svg" width="74.316" height="103.11" viewBox="0 0 74.316 103.11">
  <defs>
    <style>
      .cls-1 {
        fill: #404e67;
      }
    </style>
  </defs>
  <path id="Caminho_242" data-name="Caminho 242" class="cls-1" d="M1276,330.96c-1.339-7.129-2.806-14.234-4.195-21.354a10.193,10.193,0,0,0-7.9-8.551,29.443,29.443,0,0,1-3.514-1.022c-3.573-1.446-7.635-1.565-10.778-4.216-1.966-1.659-2.017-2.961.142-4.362a19.15,19.15,0,0,0,9.065-14.653,2.694,2.694,0,0,1,2.01-2.6c2.174-.845,4.041-2.642,3.8-4.95a47.508,47.508,0,0,1,.142-7.958,52.675,52.675,0,0,0-.471-6.861c-.076-1.1-.4-2.109-1.665-2.007s-1.44,1.1-1.314,2.233c.161,1.457.2,2.927.313,4.707a20.452,20.452,0,0,0-5.843-3.021c-1.505-.387-2.015-1.173-2.05-2.75-.086-3.956.211-8-1.925-11.842,4.389-.084,7.226,1.5,8.551,4.722.4.98.8,1.988,2.071,1.57,1.446-.474,1.079-1.688.712-2.692a9.071,9.071,0,0,0-6.579-5.865c-5.308-1.4-10.635-2.734-15.952-4.106a5.492,5.492,0,0,0-2.731-.047c-5.69,1.443-11.394,2.842-17.044,4.431a8.336,8.336,0,0,0-6.288,7.159,33.29,33.29,0,0,0-.7,6.609c.165,3.786-2.129,7.662.361,11.381.132.2-.156.7-.287,1.041-1.407,3.708-.135,6.8,3.5,8.363.858.368,1.641.576,1.747,1.779a19.83,19.83,0,0,0,9.569,15.594,2.175,2.175,0,0,1,.13,3.741,15.435,15.435,0,0,1-5.637,2.933c-3.328.79-6.584,1.89-9.855,2.907a9.705,9.705,0,0,0-7.044,7.709q-2.255,10.877-4.314,21.794c-.873,4.613,1.488,7.487,6.176,7.494q30.822.048,61.644,0C1274.421,338.266,1276.831,335.4,1276,330.96Zm-19.758-29.007c1.1.137,2.892-.111,2.966,1.716.129,3.192,0,6.393.063,9.59.031,1.585-1.069,1.149-1.881,1.158s-1.919.4-1.848-1.18c.08-1.747.019-3.5.018-5.252,0-1.446-.071-2.9.034-4.336C1255.633,303.052,1254.986,301.8,1256.238,301.954Zm-3.592.088c0,4.034.667,8.232-.266,12.038a40.656,40.656,0,0,0-1.511,6.377c-.169,2.013-5.007,3.64-6.595,2.361-.426-.344-.339-.822-.34-1.267-.006-3.976,0-7.952,0-12.151,3.947,1.952,5.079,1.454,6.464-2.539A19.368,19.368,0,0,1,1252.646,302.042Zm-11.7,19.553c.029,1.639-1,1.363-1.969,1.383-1.016.021-2,.166-1.921-1.434.105-2.133.026-4.275.027-6.414,0-2.062.065-4.127-.019-6.185-.067-1.624,1.007-1.368,1.98-1.4,1.031-.03,1.948-.134,1.915,1.446Q1240.829,315.293,1240.947,321.6Zm-2.043-16.963c-1.794.47-2.63-.355-3.2-1.982-.826-2.362-1.9-4.636-2.839-6.961-.535-1.325-.643-2.182,1.361-1.653a18.3,18.3,0,0,0,9.508.017c1.942-.524,1.954.289,1.407,1.646-1.052,2.606-2.251,5.155-3.207,7.794C1241.3,305.243,1239.955,304.449,1238.9,304.633Zm10.746-4.576c-.692,2.323-1.588,4.587-2.42,6.868-.066.182-.277.31-.366.406-1.072.141-2.559-1.869-2.17-2.838q1.059-2.642,2.214-5.245c.216-.487.329-1.4,1.2-.877C1248.767,298.765,1249.968,298.994,1249.651,300.057Zm12.132-31.8c.232,1.617-.814,2.617-2.518,3.476-.064-.651-.128-1.009-.131-1.367-.011-1.51-.005-3.02-.005-4.644A2.819,2.819,0,0,1,1261.783,268.26Zm-34.9-15.109c.345-2.336-.043-4.726.479-7.075a5.9,5.9,0,0,1,3.519-4.421c7.979-3.735,7.9-3.656,15.165-.41a6.97,6.97,0,0,1,4.538,7.145c-.006.688,0,1.375,0,2.062.1,1.358.928,3.064.042,3.968-.826.842-2.421-.2-3.687-.343a58.787,58.787,0,0,0-18.457.474C1227.284,254.8,1226.661,254.671,1226.884,253.151Zm-9.333-6.3c.52-3.143,3.63-4.894,8.182-5.07-1.971,4.035-1.588,8.353-1.9,12.576-.05.667.1,1.351-.854,1.624a21.9,21.9,0,0,0-6.7,3.359C1216.712,254.845,1216.9,250.81,1217.551,246.852Zm.845,24.5c-1.282.137-2.147-1.366-2.157-2.738s.87-2.89,2.144-2.763c1.217.121.208,1.813.626,2.744C1218.578,269.528,1219.558,271.226,1218.4,271.349Zm-.316-9.076c5.268-7.1,33.953-8,41.881,0Zm3.952,13.6c-.356-3.025-.029-6.125-.11-9.188-.031-1.191.51-1.392,1.515-1.391,10.346.012,20.693.02,31.039-.035,1.379-.007,1.694.532,1.625,1.766-.085,1.528-.02,3.064-.02,5.311.4,4.943-.747,10.112-4.956,14.21-5.062,4.929-11.084,6.436-17.728,4.086C1226.552,288.215,1222.868,282.976,1222.032,275.875Zm7.844,22.515c1.313-.5,1.139.854,1.431,1.479.833,1.786,1.567,3.619,2.338,5.43a3.26,3.26,0,0,1-2.169,1.911c-.965.359-.822-.844-1.042-1.355-.688-1.6-1.14-3.3-1.863-4.877C1227.869,299.447,1228.794,298.8,1229.876,298.39Zm-4.3,4.067.409-.093c.513,1.4,1.051,2.786,1.535,4.192,1.48,4.3,2.408,4.741,6.585,2.927,0,4.115,0,8.155,0,12.194,0,.458.039,1.1-.458,1.181a8.981,8.981,0,0,1-5.173-.379c-1.3-.591-1.5-1.748-1.423-3.076.09-1.653.366-3.387-1.24-4.65-.258-.2-.224-.852-.226-1.3C1225.571,309.791,1225.578,306.124,1225.578,302.457Zm-6.693,1.1c.151-1.908,2.2-1.272,3.6-1.887,0,4.011-.037,7.817.023,11.621.018,1.151-.589,1.288-1.417,1.13s-2.227.682-2.259-1.026C1218.769,310.113,1218.627,306.816,1218.885,303.555ZM1216,305.031c-.077,1.452-.018,2.912-.016,4.369-.2,2.372.408,4.757-1.056,7.085-.842,1.339-.631,3.406-.111,4.95,1.423,4.217.314,8.5.709,12.729.089.954-.445,1.166-1.262,1.149-2.22-.045-4.442-.048-6.662-.091-2.172-.041-3.077-1.26-2.732-3.3.56-3.31,1.261-6.6,1.9-9.893.781-4.048,1.529-8.1,2.344-12.144a7.289,7.289,0,0,1,5.409-5.914C1215.632,303.638,1216.063,303.786,1216,305.031Zm1.653,13.415c.011-.075-.008-.155.01-.227.178-.706,4.483-1.305,5.861-.768,1.348.525.851,1.839.6,2.531-.565,1.553-2.139.35-3.006.765C1217.6,320.768,1217.325,320.573,1217.65,318.446Zm40.08,16.889a6.5,6.5,0,0,0-1.606,0c-2.018.3-2.814-.355-2.74-2.561.082-2.433-1.425-3.733-3.928-3.792-3.215-.076-6.433-.031-9.65-.022-1.031,0-2.167.073-2.075,1.48.083,1.286,1.119,1.423,2.2,1.413,2.91-.029,5.822.04,8.731-.032,1.379-.034,1.858.454,1.928,1.849.082,1.614-.748,1.689-1.956,1.673-3.216-.042-6.433-.014-9.65-.014v-.008c-3.293,0-6.587-.018-9.881.01-1.069.009-1.719-.181-1.658-1.506.058-1.245.234-2.114,1.765-2a22.29,22.29,0,0,0,2.756,0,1.391,1.391,0,0,0,1.485-1.417,1.26,1.26,0,0,0-1.421-1.416,22.987,22.987,0,0,0-4.578.141c-2.1.417-3.029,2.031-2.845,4.092.161,1.8-.564,2.174-2.221,2.143-4.017-.077-4.02,0-4.017-3.98,0-2.068.067-4.138,0-6.2-.042-1.216.416-1.625,1.6-1.58,2.542.1,5.175-.52,7.372,1.511a4.075,4.075,0,0,0,2.811.752q8.616-.05,17.233,0a4.4,4.4,0,0,0,3.03-.793c2.281-2.115,5.013-1.274,7.6-1.46,1.083-.078,1.255.5,1.245,1.4-.03,2.91-.062,5.822.014,8.73C1259.307,334.948,1258.94,335.46,1257.73,335.336Zm2.668-16.109c.028.655.146,1.463-.9,1.492-.836.023-1.672,0-2.509,0-3.176.04-3.634-.32-3.229-2.39.1-.53.294-.889.815-.9,1.672-.032,3.35-.085,5.017.011C1260.774,317.514,1260.368,318.544,1260.4,319.227Zm8.586,16.094c-1.759.026-3.521-.077-5.276,0-1.247.057-1.6-.47-1.556-1.617.06-1.6.015-3.212.015-5.37-1.077-3.621,2.517-7.59,1.01-11.494-1.438-3.725-.617-7.356-1.029-11-.236-2.088.526-2.321,2.27-1.542a7.457,7.457,0,0,1,4.47,5.678q2.062,10.193,4.062,20.4C1273.71,334.266,1272.894,335.263,1268.984,335.32Z" transform="translate(-1201.843 -235.187)"/>
  <path id="Caminho_243" data-name="Caminho 243" class="cls-1" d="M1271.677,264.461c1.3.019,2.6,0,3.9.005,1.377,0,2.755.023,4.131-.007,1.023-.022,1.895-.443,1.852-1.574a1.588,1.588,0,0,0-1.747-1.478q-4.131-.048-8.262.01a1.582,1.582,0,0,0-1.743,1.48C1269.786,264.009,1270.643,264.445,1271.677,264.461Z" transform="translate(-1238.511 -249.321)"/>
</svg>
