<svg xmlns="http://www.w3.org/2000/svg" width="107" height="83.484" viewBox="0 0 107 83.484">
  <defs>
    <style>
      .cls-1 {
        fill: #404e67;
      }
    </style>
  </defs>
  <g id="Grupo_373" data-name="Grupo 373" transform="translate(-1745.021 -260.322)">
    <path id="Caminho_244" data-name="Caminho 244" class="cls-1" d="M1843.875,271.977c-8.274-.01-16.549-.052-24.822.037-1.709.019-2.431-.282-2.272-2.176.192-2.292,0-4.612.084-6.916.07-1.8-.576-2.594-2.472-2.585q-15.871.068-31.743-.015c-1.906-.01-2.529.8-2.462,2.595.089,2.383-.08,4.779.072,7.156.105,1.648-.517,1.947-2.019,1.935-8.353-.068-16.707-.04-25.061-.03-5.095.006-8.142,3.041-8.149,8.123q-.016,12.647,0,25.295c0,8.59-.023,17.181.01,25.772a7.419,7.419,0,0,0,7.659,7.658c2.307.03,4.626.149,6.918-.039,1.848-.152,2.4.472,2.144,2.218-.309,2.086.719,2.85,2.754,2.778,2.622-.093,5.252-.077,7.875.021,2.064.076,3.031-.777,2.714-2.825-.28-1.808.4-2.2,2.171-2.192q21.242.122,42.484,0c1.736-.01,2.477.332,2.188,2.172-.318,2.034.621,2.909,2.7,2.823,2.462-.1,4.931-.013,7.4-.025,3.063-.014,3.254-.14,3.22-3.222-.014-1.307.267-1.811,1.674-1.738,2.3.12,4.613.039,6.92.031,5.089-.018,8.152-3.054,8.155-8.125q.013-25.295,0-50.589C1852.013,275.032,1848.957,271.983,1843.875,271.977Zm-82.46,63.549c-2.856-.139-5.723-.022-8.586-.043-2.9-.021-4.447-1.5-4.45-4.336q-.022-25.759,0-51.519c0-2.739,1.531-4.273,4.239-4.3,3.021-.033,6.047.076,9.064-.043,1.5-.059,1.846.408,1.836,1.865-.068,9.46-.035,18.921-.035,28.382,0,9.3-.043,18.6.04,27.905C1763.54,335.111,1763.084,335.606,1761.416,335.526Zm5.242-57.927c0-1.327-.183-2.422,1.86-2.361,1.685.051,1.7.786,1.7,2.032-.032,9.462-.017,18.925-.018,28.388q0,13.836.007,27.671c0,1.225.211,2.252-1.727,2.238-1.8-.013-1.827-.812-1.825-2.149Q1766.691,305.509,1766.657,277.6Zm3.764,63.022c-.636-.02-1.272,0-1.909-.005-.8,0-1.591-.014-2.386,0-.649.014-1.031-.17-1.064-.923-.035-.807.4-.895,1.026-.888,1.432.016,2.865-.032,4.294.023.528.02,1.35-.4,1.416.706C1771.863,340.614,1771.2,340.646,1770.421,340.621Zm19.494-77.1h8.586c4.452,0,8.905.036,13.356-.022,1.314-.017,1.883.367,1.807,1.758a33.11,33.11,0,0,0,.032,5c.162,1.661-.66,1.714-1.957,1.761-1.5.055-1.662-.615-1.616-1.84.21-5.554-.147-4.886-4.9-4.89-5.088,0-10.178.087-15.263-.042-2.266-.057-3.3.685-3.051,3,.076.707-.064,1.439.027,2.143.2,1.531-.665,1.576-1.846,1.624-1.364.055-1.712-.391-1.736-1.738C1783.227,263.522,1783.186,263.523,1789.915,263.523Zm17.057,6.616c-.094.9.258,1.934-1.338,1.863-2.374-.106-4.757-.027-7.135-.027-2.3,0-4.6-.077-6.9.03-1.343.063-1.579-.488-1.534-1.661.04-1.054.025-1.771,1.466-1.745,4.677.086,9.357.067,14.034.008C1806.769,268.591,1807.086,269.044,1806.972,270.139Zm14.77,65.385q-23.267-.093-46.536-.006c-1.431,0-1.887-.316-1.882-1.828q.081-28.273,0-56.547c0-1.471.377-1.864,1.85-1.859q23.268.08,46.536-.014c1.839-.01,2.012.69,2,2.209-.058,9.305-.029,18.611-.029,27.916,0,9.385-.036,18.77.035,28.154C1823.733,335.111,1823.319,335.53,1821.742,335.524Zm6.783-60.292c2.011-.009,1.871,1,1.867,2.347-.029,9.225-.015,18.449-.015,27.674,0,9.383-.014,18.767.017,28.151,0,1.315.016,2.156-1.809,2.164-1.917.009-1.743-.984-1.742-2.225q.022-27.912.008-55.825C1826.851,276.352,1826.52,275.242,1828.525,275.232Zm2.225,65.366c-1.428-.011-2.857-.007-4.286.021-.721.014-1.227-.1-1.218-1.006.01-1.078.781-.76,1.34-.791.712-.039,1.428-.01,2.143-.01.635,0,1.272-.033,1.9.01.553.038,1.333-.3,1.347.782C1831.994,340.531,1831.452,340.6,1830.75,340.6Zm13.458-5.116c-2.863.021-5.73-.093-8.587.042-1.652.078-2.135-.387-2.119-2.081.086-9.381.041-18.764.041-28.146,0-9.3.041-18.6-.039-27.907-.014-1.649.385-2.2,2.086-2.114,2.935.144,5.883.013,8.825.047,2.71.032,4.249,1.564,4.251,4.3q.025,25.761,0,51.522C1848.664,333.98,1847.108,335.461,1844.209,335.483Z"/>
    <path id="Caminho_245" data-name="Caminho 245" class="cls-1" d="M1840.051,317.106c-1.451-1.111-2.956-2.166-4.3-3.393s-2.331-.926-3.349.379c-2.007,2.57-4.075,5.09-6.088,7.654-4.544,5.788-4.448,4.361.892,8.711.838.683,1.592,1.592,2.811,1.665a2.145,2.145,0,0,0,1.421-.786q4.53-5.689,9.071-11.371C1841.374,318.871,1841.123,317.926,1840.051,317.106Zm-3.8,3.012c-1.872,2.365-3.821,4.674-5.6,7.107-.874,1.194-1.477.7-2.282.063-.769-.611-1.584-1.043-.594-2.216,2-2.363,3.873-4.826,5.807-7.242.4-.495.8-1.114,1.528-.467.623.555,1.56.8,1.821,1.768C1836.693,319.474,1836.492,319.812,1836.249,320.118Z" transform="translate(-40.726 -27.462)"/>
    <path id="Caminho_246" data-name="Caminho 246" class="cls-1" d="M1872.419,374.523c-1.5.121-3,.272-4.507.356-1.584.088-3.172.115-4.758.162-2.5.075-3.181,1.219-1.806,3.294,2.755,4.158,5.6,8.253,8.4,12.385.5.742,1.009,1.492,2.035,1.281.989-.2,1.244-1.024,1.5-1.919.989-3.49,2.065-6.955,3.1-10.432C1877.855,374.708,1877.677,374.481,1872.419,374.523Zm-.915,9.772c-.1.535-.289,1.054-.549,1.983a57.868,57.868,0,0,1-5.4-7.67c.223-.164.337-.321.458-.328,2.285-.12,5.4-1.169,6.64-.083C1874.1,379.463,1871.9,382.168,1871.5,384.295Z" transform="translate(-60.358 -59.612)"/>
    <path id="Caminho_247" data-name="Caminho 247" class="cls-1" d="M1766.344,320.5c-.817-.478-1.661-.912-2.475-1.394-4.972-2.947-4.18-3.811-7.706,2.309-.04.068-.1.125-.135.2a1.957,1.957,0,0,0,.923,2.956c1.67.891,3.314,1.833,4.947,2.792.738.434,1.585.728,2.187.109,1.5-1.541,2.234-3.581,3.225-5.251A1.779,1.779,0,0,0,1766.344,320.5Zm-4.114,3.222c-.93-.453-2.225-.564-2.5-1.826-.084-.38.324-.855,1-.913.7.684,2.093.643,2.36,1.916C1763.171,323.324,1762.725,323.959,1762.229,323.717Z" transform="translate(-5.572 -29.5)"/>
    <path id="Caminho_248" data-name="Caminho 248" class="cls-1" d="M1943.984,372.652c-.349-1.937-.668-3.88-1.053-5.81-1.438-7.2.384-6.916-8.125-5.328-.078.015-.157.019-.236.031-1.405.22-1.82,1.116-1.582,2.4.386,2.09.856,4.166,1.2,6.263,1.154,7-.1,6.016,7.938,4.882A1.874,1.874,0,0,0,1943.984,372.652Zm-4.921-.364c-.7.291-1.236.124-1.376-.725-.32-1.934-.557-3.887-.99-5.8-.369-1.629.88-1.285,2.048-1.685.305-.1.395.423.488.887.418,2.074.833,4.148,1.224,6.226C1940.684,372.4,1939.618,372.06,1939.063,372.289Z" transform="translate(-98.087 -52.341)"/>
  </g>
</svg>
