<svg xmlns="http://www.w3.org/2000/svg" width="104.55" height="102.786" viewBox="0 0 104.55 102.786">
  <defs>
    <style>
      .cls-1 {
        fill: #404e67;
      }
    </style>
  </defs>
  <g id="Grupo_377" data-name="Grupo 377" transform="translate(-2259.412 -226.742)">
    <path id="Caminho_255" data-name="Caminho 255" class="cls-1" d="M2363.467,321.227c-.858-1.1-1.732-2.188-2.652-3.235a1.321,1.321,0,0,0-2.042-.2,1.616,1.616,0,0,0-.274,2.111,3.189,3.189,0,0,0,.892,1.059c1.691,1.422,1.462,2.641-.328,3.754a4.133,4.133,0,0,0-.892.746c-1.069,1.2-1.87,1.04-2.874-.221q-4.279-5.376-8.782-10.572c-.935-1.083-1.061-1.781.253-2.547a5.559,5.559,0,0,0,1.408-1.214c1.2-1.424,2.1-1.154,3.036.313a26.073,26.073,0,0,0,2.218,2.692c.687.807,1.46,1.587,2.537.69,1.025-.853.654-1.876-.12-2.639-2.03-2-3.093-5.17-6.574-5.476-.342-.03-.653-.613-.947-.965-1.194-1.431-2.279-2.97-3.593-4.278-1.034-1.029-.779-1.672-.036-2.725a23.288,23.288,0,0,0-7.632-33.923,2.809,2.809,0,0,1-1.621-2.92c.055-9.64.03-19.28.029-28.921,0-4.587-1.4-6.013-5.909-6.013H2265.41c-4.606,0-6,1.368-6,5.905q0,22.74,0,45.48,0,22.624,0,45.247c0,4.687,1.421,6.138,6.066,6.139q31.844.008,63.688,0c4.972,0,6.307-1.361,6.308-6.374,0-5.209.009-10.418-.01-15.627,0-.738.056-1.293.859-1.668.726-.34,1.063.052,1.329.49,1.638,2.689,5.054,4.265,5.01,8.024a2.217,2.217,0,0,0,.64,1.206q5.3,6.347,10.637,12.662a3.3,3.3,0,0,0,2.608,1.3c2.157.016,7.05-3.956,7.364-6.073A2.821,2.821,0,0,0,2363.467,321.227Zm-31.018,2.276c.051,2.237-.789,2.935-3.012,2.928q-32.078-.1-64.156,0c-2.152.006-2.843-.741-2.84-2.838q.063-45.482,0-90.964c0-2.21.8-2.985,3.021-2.979q31.962.086,63.924,0c2.185-.006,3.075.7,3.059,2.942-.069,9.329-.018,18.659-.053,27.989,0,.617.5,1.9-.844,1.619-.972-.2-2.729.29-2.555-1.8.1-1.158,0-2.331.02-3.5.013-1.008-.354-1.66-1.464-1.647-.949.011-1.322.555-1.465,1.455-.245,1.549.8,3.595-.586,4.544-1.13.775-3.011.393-4.529.683a10.584,10.584,0,0,0-3.52,1.106c-3.1,1.9-6.467,1.795-9.884,1.78-10.109-.042-20.219-.018-30.328-.009a14.92,14.92,0,0,0-2.082.137,1.31,1.31,0,0,0-1.136,1.3,1.493,1.493,0,0,0,1.162,1.544,8.081,8.081,0,0,0,1.857.067c10.645,0,21.29,0,32.465,0a23.712,23.712,0,0,0-3.9,4.9c-.579,1.062-1.51.9-2.427.905q-12.948,0-25.9,0c-.621,0-1.246-.007-1.864.044a1.392,1.392,0,0,0-1.381,1.332,1.522,1.522,0,0,0,1.344,1.632,11.191,11.191,0,0,0,1.862.043q13.058,0,26.108,0a1.566,1.566,0,0,1,.076.5c-.459,1.689-.438,3.973-1.546,4.883-1.031.847-3.267.252-4.972.255q-9.682.014-19.364.006a15,15,0,0,0-1.862.056c-.937.118-1.7.642-1.646,1.618a1.575,1.575,0,0,0,1.719,1.536c.622,0,1.244,0,1.866,0,7.621,0,15.242.039,22.863-.035,1.418-.014,1.986.355,1.855,1.79a6.421,6.421,0,0,0,.2,1.843c.713,3.45.721,3.448-2.936,3.448-1.555,0-3.115-.073-4.665.022-1.89.115-3.011,1.043-2.949,3.116.058,1.942.027,3.887.009,5.831-.019,2.143,1.055,3.086,3.164,3.076,5.21-.027,10.42.007,15.631-.021a6.656,6.656,0,0,1,3.513.875,20.8,20.8,0,0,0,10.178,2.871c2.668.015,1.293,1.871,1.558,2.944.336,1.366-.229,1.852-1.719,1.847q-26.829-.079-53.658,0c-1.6.006-1.886-.528-1.883-1.982q.062-36.619-.005-73.238c0-1.621.431-2.091,2.068-2.086q26.595.083,53.191,0c1.641-.005,2.12.466,2.067,2.09-.117,3.573-.037,7.152-.035,10.728,0,1.128.013,2.35,1.567,2.317,1.414-.03,1.382-1.158,1.379-2.211-.014-4.276-.034-8.552.006-12.828.021-2.153-1-3.122-3.109-3.122q-28.462.01-56.925-.013c-2.162,0-3.1,1.082-3.267,3.075-.051.619-.033,1.243-.033,1.865q0,36.736,0,73.471c0,4.545.525,5.066,5.068,5.066h53.658c4.168,0,4.6-.437,4.6-4.694a18.544,18.544,0,0,0-.012-2.1c-.243-2.134,1.625-1.638,2.561-1.813,1.485-.278.815,1.137.823,1.778C2332.446,314.174,2332.343,318.841,2332.449,323.5Zm-24.056-22c-3.933,0-7.885-.058-11.834.032-1.389.032-1.639-.481-1.644-1.74-.018-3.939-.028-3.57,3.805-4.032C2303.522,295.185,2306.623,296.88,2308.393,301.5Zm17.349,3.877a20.523,20.523,0,0,1-20.53-20.092c-.106-11.172,8.977-20.615,19.9-20.689a20.393,20.393,0,1,1,.632,40.781ZM2344,309.149c-1.189-1.416-2.281-2.923-3.562-4.249-.856-.887-.558-1.266.209-1.952.869-.778,1.252-.4,1.8.307,1.04,1.338,2.155,2.616,3.237,3.922.245.3.482.6.746.927-.241.688-.876.979-1.376,1.406C2344.474,310.006,2344.259,309.46,2344,309.149Z"/>
    <path id="Caminho_256" data-name="Caminho 256" class="cls-1" d="M2334.246,428.789c-1.317,0-2.633.011-3.949,0-.969-.009-1.726-.426-1.753-1.448a1.5,1.5,0,0,1,1.62-1.592c2.787-.038,5.577-.056,8.363.015a1.477,1.477,0,0,1,1.518,1.684,1.451,1.451,0,0,1-1.617,1.332C2337.034,428.8,2335.64,428.786,2334.246,428.789Z" transform="translate(-36.857 -106.082)"/>
    <path id="Caminho_257" data-name="Caminho 257" class="cls-1" d="M2337.5,273.756c-.06-2.35-1.064-3.379-3.439-3.455-2.02-.065-4.044-.015-6.066-.015q-16.8,0-33.6.008c-2.963.005-3.893.972-3.924,3.921-.016,1.555-.046,3.111.008,4.664.084,2.462.975,3.32,3.443,3.325,6.61.014,13.221.005,19.832.005q10.148,0,20.3,0c2.469,0,3.374-.87,3.445-3.316C2337.552,277.178,2337.547,275.466,2337.5,273.756Zm-3.2,3.665c.238,1.5-.44,1.776-1.814,1.76-6.219-.071-12.438-.031-18.657-.031-6.064,0-12.129-.063-18.191.042-1.647.029-2.08-.429-2.038-2.05.094-3.725.005-3.727,3.832-3.727,11.583,0,23.167.045,34.75-.047,1.791-.014,2.385.481,2.117,2.194A6.079,6.079,0,0,0,2334.307,277.421Z" transform="translate(-16.55 -23.205)"/>
    <path id="Caminho_258" data-name="Caminho 258" class="cls-1" d="M2302.774,374.507c-.647-.128-1.084-.266-1.142-1.121-.067-1,.506-1.077,1.193-1.288a1.425,1.425,0,0,0,1.186-1.51,1.494,1.494,0,0,0-1.234-1.474c-.46-.147-1.122.1-1.123-.787,0-.945-.372-1.65-1.485-1.676s-1.546.714-1.655,1.591c-.121.967-.743.768-1.33.806-.7.044-1.194-.036-1.134-.963s-.559-1.649-1.412-1.387c-1.749.535-2.239,2.6-3.834,3.492-.633.354-.03,1.239.549,1.7a1.286,1.286,0,0,0,.417.2c.648.2,1.316.247,1.272,1.278s-.791,1.011-1.407,1.2c-.72.219-1.172.9-.977,1.372.687,1.646,2.647,2.221,3.466,3.88.248.5,1.139.11,1.59-.386a1.061,1.061,0,0,0,.315-.585c.019-.795-.062-1.458,1.164-1.449,1.057.008,1.28.467,1.413,1.315a1.426,1.426,0,0,0,1.452,1.262,1.39,1.39,0,0,0,1.555-1.378c.012-.891.313-1.172,1.2-1.211.784-.034,1.182-.657,1.2-1.454A1.33,1.33,0,0,0,2302.774,374.507Zm-5.494-.064c-.865.037-1.237-.222-1.257-1.169-.023-1.082.573-1.094,1.343-1.021.98-.18,1.141.352,1.124,1.2C2298.474,374.354,2297.972,374.414,2297.28,374.443Z" transform="translate(-16.594 -74.588)"/>
    <g id="Grupo_376" data-name="Grupo 376" transform="translate(2308.677 267.922)">
      <path id="Caminho_259" data-name="Caminho 259" class="cls-1" d="M2397.377,333.746c-1.306-.427-1.72.553-2.077,1.574-.545,1.557-.91,3.227-2.3,4.468a9.894,9.894,0,0,0-2.991-3.089c-1.414-.807-1.358-1.516-.625-2.843a8.26,8.26,0,0,0-1.55-10.03,8.345,8.345,0,0,0-9.637-1.638,8.552,8.552,0,0,0-4.8,8.992c.167,1.718,2.214,3.191,1.368,4.575-.8,1.313-2.606,2.1-3.615,3.514-.134.187-.281.365-.555.718-3.173-4.709-3.449-9.766-.877-14.5a13.344,13.344,0,0,1,12.332-7.331c5.823-.07,10.586,3.518,13,9.529.4,1,.736,2.254,2.239,1.681,1.428-.544,1-1.63.647-2.725-2.223-6.879-9.333-12-16.279-11.677-7.156.331-13.736,5.1-15.783,11.443-2.376,7.36-.159,14.441,6.024,19.237,9.224,7.155,23.991,1.895,26.386-9.385C2398.511,335.182,2398.621,334.153,2397.377,333.746Zm-15.508-9.427a5.778,5.778,0,0,1,5.567,5.5,5.545,5.545,0,1,1-5.567-5.5Zm8.006,18.988a13.313,13.313,0,0,1-7.064,2.506,14.462,14.462,0,0,1-9.006-2.527c-.906-.628-1.008-1.208-.265-2.046,1.809-2.041,3.5-4.2,6.78-3.023a6.842,6.842,0,0,0,3.452-.017,6.816,6.816,0,0,1,6.794,3.49C2391.1,342.7,2390.368,342.911,2389.875,343.307Z" transform="translate(-2364.938 -314.949)"/>
    </g>
  </g>
</svg>
