<svg xmlns="http://www.w3.org/2000/svg" xmlns:xlink="http://www.w3.org/1999/xlink" width="120" height="31.113" viewBox="0 0 120 31.113"><defs><style>.a,.b,.c{fill:#fff;}.a{clip-rule:evenodd;}.c{fill-rule:evenodd;}.d{clip-path:url(#a);}.e{clip-path:url(#b);}</style><clipPath id="a"><path class="a" d="M496.414,673.634c-5.471-.842-10.411.492-13.03,4.045-4.368,5.925-.631,15.772,8.348,21.995s19.8,6.464,24.167.54a9.376,9.376,0,0,0,1.76-4.6,5.452,5.452,0,0,1-.921.179,8.167,8.167,0,0,1-1.095,2.014c-3.965,5.343-13.8,5.117-21.97-.506a26.422,26.422,0,0,1-2.878-2.289,1.993,1.993,0,0,1-.276-.256c-5.826-5.506-7.864-12.718-4.456-17.31C488.2,674.565,492.045,673.3,496.414,673.634Z" transform="translate(-481.558 -673.39)"/></clipPath><clipPath id="b"><path class="a" d="M525.973,698.337a7.063,7.063,0,0,1-1.174,2.4,8.131,8.131,0,0,1-4.239,2.83,9.458,9.458,0,0,0,6.143-3.442,7.646,7.646,0,0,0,.852-1.428,5.667,5.667,0,0,1-.577-.074l-.026,0q-.127-.023-.25-.053l-.025-.006c-.057-.014-.114-.029-.17-.044l-.024-.007-.048-.014-.024-.007-.024-.007-.047-.014-.023-.008-.07-.023-.023-.008-.07-.024-.023-.008-.046-.017-.023-.008-.023-.009-.045-.018ZM519.4,681.385c-7.839-5.308-17.28-5.522-21.086-.478-2.159,2.862-2.04,6.8-.1,10.644-1.165-3.071-1.028-6.1.692-8.389,3.283-4.361,11.152-4.429,18.041-.329l.039-.026.1-.069.015-.01.02-.013.1-.068.036-.023.108-.068.032-.02.121-.074.025-.015.114-.068.033-.019.118-.068.011-.006.01-.006.118-.066.035-.02.114-.062.038-.02.113-.059.029-.015.128-.065h0l.007,0,.008,0,.136-.067h0l.005,0,.007,0,.139-.066,0,0h0l.142-.066,0,0,0,0,.008,0,.138-.061,0,0h0l.007,0,.144-.061h0l.153-.063h.006l0,0h.009l0,0h.035l0,0h.022l0,0h.01l0,0h.026l0,0h.078Z" transform="translate(-496.726 -677.259)"/></clipPath></defs><g transform="translate(-187.161 -673.39)"><path class="b" d="M254.875,703.3h3.61v1.435h-3.61v9.405a4.5,4.5,0,0,0,.443,2.407,1.459,1.459,0,0,0,1.263.622,3.845,3.845,0,0,0,1-.128,5.786,5.786,0,0,0,.837-.287,5.386,5.386,0,0,0,.755-.446l.459.893a5.257,5.257,0,0,1-1.017.7,7.948,7.948,0,0,1-1.329.478,7.245,7.245,0,0,1-1.92.223,4.922,4.922,0,0,1-3.5-1.18,4.526,4.526,0,0,1-1.263-3.475v-9.214h-1.969V703.3h1.969v-2.869l1.641-1.913h2.626Zm-17.025,1.212a5.225,5.225,0,0,0-1.822.287,3.406,3.406,0,0,0-1.2.707q.033.191.1.446a3.039,3.039,0,0,1,.1.547,6.912,6.912,0,0,1,.033.7v11.084h-4.267v-10.84a9.369,9.369,0,0,0-.082-1.291,3.048,3.048,0,0,0-.312-1.021,1.5,1.5,0,0,0-.689-.653,2.705,2.705,0,0,0-1.181-.223H228.2V703.3h3.249a4.616,4.616,0,0,1,1.756.271,2.051,2.051,0,0,1,1,.909,6.892,6.892,0,0,1,.705-.526,4.65,4.65,0,0,1,.985-.478,8.733,8.733,0,0,1,1.329-.351,9.611,9.611,0,0,1,1.772-.144,6.863,6.863,0,0,1,4.66,1.387q1.576,1.387,1.576,4.479v9.437h-4.267v-9.511a4.834,4.834,0,0,0-.886-3.3A2.9,2.9,0,0,0,237.85,704.514Zm-27.527,6.281a8.594,8.594,0,0,1,.541-3.061,7.177,7.177,0,0,1,1.559-2.487,7.271,7.271,0,0,1,2.478-1.658,9.283,9.283,0,0,1,6.6,0,7.277,7.277,0,0,1,2.478,1.658,7.18,7.18,0,0,1,1.559,2.487,8.919,8.919,0,0,1,0,6.121,7.182,7.182,0,0,1-1.559,2.487A7.279,7.279,0,0,1,221.5,718a9.286,9.286,0,0,1-6.6,0,7.274,7.274,0,0,1-2.478-1.658,7.178,7.178,0,0,1-1.559-2.487A8.593,8.593,0,0,1,210.323,710.795Zm11.323,0a14.065,14.065,0,0,0-.213-2.535,7.661,7.661,0,0,0-.64-2.025,3.583,3.583,0,0,0-1.083-1.339,2.622,2.622,0,0,0-3.02,0,3.586,3.586,0,0,0-1.083,1.339,7.661,7.661,0,0,0-.64,2.025,15.176,15.176,0,0,0,0,5.069,7.658,7.658,0,0,0,.64,2.025,3.585,3.585,0,0,0,1.083,1.339,2.622,2.622,0,0,0,3.02,0,3.582,3.582,0,0,0,1.083-1.339,7.658,7.658,0,0,0,.64-2.025A14.063,14.063,0,0,0,221.646,710.795Zm-16.007-6.759a8.271,8.271,0,0,0-2.281-4.447,6.163,6.163,0,0,0-4.381-1.546,8.182,8.182,0,0,0-2.823.478,5.418,5.418,0,0,0-2.3,1.642,8.3,8.3,0,0,0-1.542,3.093,17.676,17.676,0,0,0-.558,4.83,15.6,15.6,0,0,0,.394,3.523,9.07,9.07,0,0,0,1.263,3.013,6.278,6.278,0,0,0,5.563,2.869,8.011,8.011,0,0,0,4.2-1.164,8.462,8.462,0,0,0,3.118-3.4l1.149.861a10.139,10.139,0,0,1-3.774,3.89,11.572,11.572,0,0,1-5.678,1.243,12.056,12.056,0,0,1-4.611-.829,9.585,9.585,0,0,1-3.4-2.3,9.947,9.947,0,0,1-2.1-3.444,12.354,12.354,0,0,1-.722-4.272,12.228,12.228,0,0,1,.821-4.511,11.338,11.338,0,0,1,2.265-3.634,10.572,10.572,0,0,1,3.43-2.439,10.4,10.4,0,0,1,4.316-.893,13.2,13.2,0,0,1,4.972.781,7.688,7.688,0,0,1,2.806,1.8,3.821,3.821,0,0,1,.755,2.136q.1,1.307.1,2.71Z" transform="translate(0 -17.346)"/><g transform="translate(261.6 673.39)"><path class="c" d="M496.414,673.634c-5.471-.842-10.411.492-13.03,4.045-4.368,5.925-.631,15.772,8.348,21.995s19.8,6.464,24.167.54a9.376,9.376,0,0,0,1.76-4.6,5.452,5.452,0,0,1-.921.179,8.167,8.167,0,0,1-1.095,2.014c-3.965,5.343-13.8,5.117-21.97-.506a26.422,26.422,0,0,1-2.878-2.289,1.993,1.993,0,0,1-.276-.256c-5.826-5.506-7.864-12.718-4.456-17.31C488.2,674.565,492.045,673.3,496.414,673.634Z" transform="translate(-481.558 -673.39)"/><g class="d"><path class="b" d="M408.227,627.408l31.082,39.5,39.56-32.181-31.082-39.5Z" transform="translate(-426.769 -614.991)"/></g></g><g transform="translate(265.435 674.368)"><path class="c" d="M525.973,698.337a7.063,7.063,0,0,1-1.174,2.4,8.131,8.131,0,0,1-4.239,2.83,9.458,9.458,0,0,0,6.143-3.442,7.646,7.646,0,0,0,.852-1.428,5.667,5.667,0,0,1-.577-.074l-.026,0q-.127-.023-.25-.053l-.025-.006c-.057-.014-.114-.029-.17-.044l-.024-.007-.048-.014-.024-.007-.024-.007-.047-.014-.023-.008-.07-.023-.023-.008-.07-.024-.023-.008-.046-.017-.023-.008-.023-.009-.045-.018ZM519.4,681.385c-7.839-5.308-17.28-5.522-21.086-.478-2.159,2.862-2.04,6.8-.1,10.644-1.165-3.071-1.028-6.1.692-8.389,3.283-4.361,11.152-4.429,18.041-.329l.039-.026.1-.069.015-.01.02-.013.1-.068.036-.023.108-.068.032-.02.121-.074.025-.015.114-.068.033-.019.118-.068.011-.006.01-.006.118-.066.035-.02.114-.062.038-.02.113-.059.029-.015.128-.065h0l.007,0,.008,0,.136-.067h0l.005,0,.007,0,.139-.066,0,0h0l.142-.066,0,0,0,0,.008,0,.138-.061,0,0h0l.007,0,.144-.061h0l.153-.063h.006l0,0h.009l0,0h.035l0,0h.022l0,0h.01l0,0h.026l0,0h.078Z" transform="translate(-496.726 -677.259)"/><g class="e" transform="translate(0 0)"><rect class="b" width="41.828" height="41.252" transform="translate(-14.088 9.418) rotate(-38.664)"/></g></g><path class="b" d="M549.207,706.581c0,3.595-.927,6.133-2.427,6.133-2.038,0-2.835-3.521-2.835-6.726,0-4.225,1-6.133,2.39-6.133,2.02,0,2.872,3.521,2.872,6.726m2.168-.723c0-2.946-.982-6.837-4.651-6.837-3.428,0-4.947,3.354-4.947,7.671,0,2.631,1,6.856,4.651,6.856C549.615,713.548,551.375,710.454,551.375,705.858Zm-15.07,7.69a4.632,4.632,0,0,0,4.836-4.762,3.692,3.692,0,0,0-3.78-3.761,4.227,4.227,0,0,0-2.409.667c-.111.074-.2.148-.2.278s.074.185.148.185a2.771,2.771,0,0,0,.408-.111,3.083,3.083,0,0,1,.964-.13c1.223,0,2.613,1.13,2.613,3.706,0,2.15-1.056,3.113-2.335,3.113-1.871,0-2.816-2.316-2.816-4.484a9.917,9.917,0,0,1,4.725-8.653c.2-.111.463-.241.463-.408,0-.111-.111-.167-.223-.167a1.128,1.128,0,0,0-.408.111c-4.021,1.612-6.874,5.485-6.874,9.1C531.414,711.584,533.452,713.548,536.306,713.548Zm-11.827,0c3.613,0,5.855-2.168,5.855-4.762a3.909,3.909,0,0,0-3.3-3.65V705.1c.741-.259,2.705-1.519,2.705-3.335,0-.871-.648-2.742-4.206-2.742a8.036,8.036,0,0,0-3.279.667c-.241.111-.26.185-.26.352a18.307,18.307,0,0,0,.13,1.853c.018.2.074.26.148.26.093,0,.167-.056.167-.278,0-1.093,1.112-1.964,2.576-1.964a2.321,2.321,0,0,1,2.464,2.279,3.435,3.435,0,0,1-2.872,3.187c-.2.037-.334.13-.334.259,0,.148.111.222.593.315a3.67,3.67,0,0,1,3.132,3.52c0,2.2-1.519,3.169-3.354,3.169a2.537,2.537,0,0,1-2.779-2.464c0-.148-.056-.259-.167-.259s-.167.13-.2.352a17.57,17.57,0,0,0-.13,2.316.493.493,0,0,0,.315.519A6.81,6.81,0,0,0,524.479,713.548Z" transform="translate(-249.701 -19.15)"/><path class="c" d="M645.233,703.855a2.163,2.163,0,1,1-2.163,2.163,2.163,2.163,0,0,1,2.163-2.163m0-.227a2.39,2.39,0,1,1-2.39,2.39A2.39,2.39,0,0,1,645.233,703.628Z" transform="translate(-340.462 -23.529)"/><path class="b" d="M646.368,707.277h.418a2.164,2.164,0,0,0,.508-.035.3.3,0,0,0,.158-.119.362.362,0,0,0,.058-.21.339.339,0,0,0-.076-.229.344.344,0,0,0-.212-.109q-.07-.01-.412-.01h-.441Zm-.567,1.614v-2.8h1.19a2.034,2.034,0,0,1,.652.076.64.64,0,0,1,.325.268.805.805,0,0,1,.123.441.747.747,0,0,1-.185.521.885.885,0,0,1-.551.259,1.294,1.294,0,0,1,.3.234,3.244,3.244,0,0,1,.321.455l.341.546h-.676l-.405-.611a3.82,3.82,0,0,0-.3-.411.441.441,0,0,0-.17-.116.95.95,0,0,0-.286-.031h-.115v1.169Z" transform="translate(-342.23 -25.002)"/></g></svg>