<svg xmlns="http://www.w3.org/2000/svg" width="254" height="67.022" viewBox="0 0 254 67.022">
  <g id="Grupo_31" data-name="Grupo 31" transform="translate(-162 -78.978)">
    <text id="fast_solutions" data-name="fast solutions" transform="translate(271 139)" fill="#fff" font-size="31" font-family="TimesNewRomanPS-ItalicMT, Times New Roman" font-style="italic" letter-spacing="-0.05em"><tspan x="0" y="0">fast solutions</tspan></text>
    <g id="Grupo_21" data-name="Grupo 21" transform="translate(-397.988 -482.569)">
      <path id="Caminho_5" data-name="Caminho 5" d="M1540.773,1081.243h8.128V1067.82a58.319,58.319,0,0,0-8.128,1.3Z" transform="translate(-945.264 -487.937)" fill="#fff"/>
      <path id="Caminho_6" data-name="Caminho 6" d="M760.335,1328.128c-.635,0-1.326-.008-2.031-.035v3.487h8.128v-4.016a31.4,31.4,0,0,1-6.079.565Z" transform="translate(-191.134 -738.273)" fill="#fff"/>
      <path id="Caminho_7" data-name="Caminho 7" d="M1148.774,1137.37l1.094,2.372h6l3.412-7.4a40.568,40.568,0,0,0-8.423,3.815A20.441,20.441,0,0,1,1148.774,1137.37Z" transform="translate(-567.462 -550.124)" fill="#fff"/>
      <path id="Caminho_8" data-name="Caminho 8" d="M2794.491,578.877a12.551,12.551,0,0,0,1.382-6.048q0-5.391-3.511-8.336t-9.9-2.945h-14.815v31.759h9.423v-8.563h4.983l4.213,8.563h10.692l-6.433-10.375A10.233,10.233,0,0,0,2794.491,578.877Zm-8.744-2.515a4.5,4.5,0,0,1-3.284,1.133h-5.392v-8.7h5.392a4.551,4.551,0,0,1,3.284,1.11,4.225,4.225,0,0,1,1.155,3.194A4.364,4.364,0,0,1,2785.747,576.362Z" transform="translate(-2127.706)" fill="#fff"/>
      <path id="Caminho_9" data-name="Caminho 9" d="M3656.72,561.547l-13.546,31.759h9.7l1.9-5.074h12.821l1.857,5.074h10.058l-13.093-31.759Zm.679,19.8,3.9-10.374,3.805,10.374Z" transform="translate(-2971.523)" fill="#fff"/>
      <path id="Caminho_10" data-name="Caminho 10" d="M621.824,561.547a15.884,15.884,0,0,0-15.642,13.13c-.836-.106-1.688-.187-2.545-.244V561.547h-9.905l-7.677,15.97c-.329.155-.675.313-1.034.472l-7.946-16.442H567.17V580c-2.251.055-3.8.246-5.464,1.542a4.778,4.778,0,0,0-1.719,3.6,3.874,3.874,0,0,0,1.3,2.931c1.5,1.342,6.284,1.345,7.916,1.345,5.407,0,10.09-1.188,13.915-3.74,12.954-7.812,25.422-6.452,33.9-6.544a4.6,4.6,0,0,0,4.23,2.815h2.742a1.586,1.586,0,1,0,0-3.171h-1.959a1.418,1.418,0,1,1,0-2.835h1.959a1.586,1.586,0,0,0,0-3.171h-2.742a4.6,4.6,0,0,0-4.375,3.194c-4.875.062-21.509-1.678-35.518,7.151-5.755,3.627-16.1,2.925-16.1,2.925-1.611-.205-1.264-1.231-.789-1.511.651-.384.672-.3,2.7-.332v1.31c1.035,0,2.418-.026,3.95-.156a34.494,34.494,0,0,0,4.179-.6v-1.232a34.057,34.057,0,0,0,3.86-.939l.387.84a12.56,12.56,0,0,0,1.535-.816,44.248,44.248,0,0,1,13.028-5.362q.692-.171,1.4-.327,2.6-.574,5.4-.946,1.388-.184,2.733-.31v-.5q1.2-.072,2.482-.092-.023.156-.044.312c2.577-.131,5.017-.166,7.253-.149a8.773,8.773,0,1,1,.008,4.416c-2.3-.029-4.719-.014-7.223.093a15.88,15.88,0,1,0,15.711-18.2ZM575.3,580.7v-6.5l2.82,6.115A18.171,18.171,0,0,1,575.3,580.7Z" fill="#fff"/>
      <path id="Caminho_11" data-name="Caminho 11" d="M4726.7,561.547l-14.11,31.759h4.582l3.312-7.713h16.742l3.357,7.713h4.718l-14.064-31.759Zm-4.492,20.1,6.625-15.426,6.714,15.426Z" transform="translate(-4002.209)" fill="#fff"/>
      <path id="Caminho_12" data-name="Caminho 12" d="M5700.079,582.553a10.038,10.038,0,0,0,5.149-3.811,11.261,11.261,0,0,0,1.792-6.488,9.81,9.81,0,0,0-3.29-7.917q-3.289-2.79-9.324-2.79h-12.431v31.759h4.355v-9.891h8.076q.681,0,1.77-.091l6.307,9.981h4.991Zm-5.672-3.085h-8.076V565.494h8.076a9.8,9.8,0,0,1,6.261,1.747,6.209,6.209,0,0,1,2.178,5.149,6.449,6.449,0,0,1-2.178,5.286A9.62,9.62,0,0,1,5694.407,579.468Z" transform="translate(-4936.486)" fill="#fff"/>
    </g>
  </g>
</svg>
