<?xml version="1.0" encoding="utf-8"?>
<!-- Generator: Adobe Illustrator 23.0.6, SVG Export Plug-In . SVG Version: 6.00 Build 0)  -->
<svg version="1.1" id="Layer_1" xmlns="http://www.w3.org/2000/svg" xmlns:xlink="http://www.w3.org/1999/xlink" x="0px" y="0px"
	 viewBox="0 0 254 67" style="enable-background:new 0 0 254 67;" xml:space="preserve">
<style type="text/css">
	.st0{fill:#00202D;}
	.st1{font-family:'TimesNewRomanPS-ItalicMT';}
	.st2{font-size:31px;}
	.st3{letter-spacing:-1;}
</style>
<g id="Grupo_31" transform="translate(-162 -78.978)">
	<text transform="matrix(1 0 0 1 271 139)" class="st0 st1 st2 st3">fast solutions</text>
	<g id="Grupo_21" transform="translate(-397.988 -482.569)">
		<path id="Caminho_5" class="st0" d="M595.5,593.3h8.1v-13.4c-2.7,0.2-5.5,0.7-8.1,1.3V593.3z"/>
		<path id="Caminho_6" class="st0" d="M569.2,589.9c-0.6,0-1.3,0-2,0v3.5h8.1v-4C573.3,589.7,571.3,589.9,569.2,589.9L569.2,589.9z"
			/>
		<path id="Caminho_7" class="st0" d="M581.3,587.2l1.1,2.4h6l3.4-7.4c-2.9,0.9-5.8,2.2-8.4,3.8C582.7,586.5,582,586.9,581.3,587.2z
			"/>
		<path id="Caminho_8" class="st0" d="M666.8,578.9c1-1.9,1.4-3.9,1.4-6c0-3.6-1.2-6.4-3.5-8.3c-2.3-2-5.6-2.9-9.9-2.9h-14.8v31.8
			h9.4v-8.6h5l4.2,8.6h10.7l-6.4-10.4C664.5,582,665.9,580.6,666.8,578.9z M658,576.4c-0.9,0.8-2.1,1.2-3.3,1.1h-5.4v-8.7h5.4
			c1.2-0.1,2.4,0.3,3.3,1.1c0.8,0.9,1.2,2,1.2,3.2C659.3,574.3,658.9,575.5,658,576.4z"/>
		<path id="Caminho_9" class="st0" d="M685.2,561.5l-13.5,31.8h9.7l1.9-5.1h12.8l1.9,5.1H708l-13.1-31.8H685.2z M685.9,581.3
			l3.9-10.4l3.8,10.4H685.9z"/>
		<path id="Caminho_10" class="st0" d="M621.8,561.5c-7.7,0-14.3,5.5-15.6,13.1c-0.8-0.1-1.7-0.2-2.5-0.2v-12.9h-9.9l-7.7,16
			c-0.3,0.2-0.7,0.3-1,0.5l-7.9-16.4h-9.9V580c-2.3,0.1-3.8,0.2-5.5,1.5c-1.1,0.9-1.7,2.2-1.7,3.6c0,1.1,0.5,2.2,1.3,2.9
			c1.5,1.3,6.3,1.3,7.9,1.3c5.4,0,10.1-1.2,13.9-3.7c13-7.8,25.4-6.5,33.9-6.5c0.7,1.7,2.4,2.8,4.2,2.8h2.7c0.9,0,1.6-0.7,1.6-1.5
			c0-0.9-0.7-1.6-1.5-1.6c0,0-0.1,0-0.1,0h-2c-0.8,0-1.4-0.6-1.5-1.4c0-0.8,0.6-1.4,1.4-1.5c0,0,0,0,0.1,0h2c0.9,0,1.6-0.7,1.5-1.6
			c0-0.8-0.7-1.5-1.5-1.5h-2.7c-2,0-3.8,1.3-4.4,3.2c-4.9,0.1-21.5-1.7-35.5,7.2c-5.8,3.6-16.1,2.9-16.1,2.9
			c-1.6-0.2-1.3-1.2-0.8-1.5c0.7-0.4,0.7-0.3,2.7-0.3v1.3c1,0,2.4,0,4-0.2c1.4-0.1,2.8-0.3,4.2-0.6v-1.2c1.3-0.2,2.6-0.6,3.9-0.9
			l0.4,0.8c0.5-0.2,1-0.5,1.5-0.8c4-2.5,8.4-4.3,13-5.4c0.5-0.1,0.9-0.2,1.4-0.3c1.7-0.4,3.5-0.7,5.4-0.9c0.9-0.1,1.8-0.2,2.7-0.3
			v-0.5c0.8,0,1.6-0.1,2.5-0.1c0,0.1,0,0.2,0,0.3c2.6-0.1,5-0.2,7.3-0.1c1.2-4.7,6-7.5,10.7-6.3c4.7,1.2,7.5,6,6.3,10.7
			c-1.2,4.7-6,7.5-10.7,6.3c-3.1-0.8-5.5-3.2-6.3-6.3c-2.3,0-4.7,0-7.2,0.1c1.3,8.7,9.4,14.7,18,13.4c8.7-1.3,14.7-9.4,13.4-18
			C636.4,567.3,629.7,561.5,621.8,561.5L621.8,561.5z M575.3,580.7v-6.5l2.8,6.1C577.2,580.5,576.2,580.6,575.3,580.7z"/>
		<path id="Caminho_11" class="st0" d="M724.5,561.5l-14.1,31.8h4.6l3.3-7.7H735l3.4,7.7h4.7L729,561.5H724.5z M720,581.6l6.6-15.4
			l6.7,15.4H720z"/>
		<path id="Caminho_12" class="st0" d="M763.6,582.6c2.1-0.7,3.9-2,5.1-3.8c1.2-1.9,1.9-4.2,1.8-6.5c0.2-3-1-5.9-3.3-7.9
			c-2.2-1.9-5.3-2.8-9.3-2.8h-12.4v31.8h4.4v-9.9h8.1c0.5,0,1,0,1.8-0.1l6.3,10h5L763.6,582.6z M757.9,579.5h-8.1v-14h8.1
			c2.2-0.1,4.4,0.5,6.3,1.7c1.5,1.3,2.3,3.2,2.2,5.1c0.1,2-0.7,4-2.2,5.3C762.4,579,760.2,579.6,757.9,579.5L757.9,579.5z"/>
	</g>
</g>
</svg>
