<svg id="Grupo_19" data-name="Grupo 19" xmlns="http://www.w3.org/2000/svg" xmlns:xlink="http://www.w3.org/1999/xlink" width="21.563" height="21.647" viewBox="0 0 21.563 21.647">
  <defs>
    <clipPath id="clip-path">
      <rect id="Retângulo_19" data-name="Retângulo 19" width="21.563" height="21.647" fill="#00202d"/>
    </clipPath>
  </defs>
  <g id="Grupo_18" data-name="Grupo 18" transform="translate(0 0)">
    <g id="Grupo_17" data-name="Grupo 17" clip-path="url(#clip-path)">
      <path id="Caminho_3" data-name="Caminho 3" d="M800.98,514.936c-.042-.02-1.61-.793-1.889-.893a1.087,1.087,0,0,0-.365-.081.622.622,0,0,0-.528.313c-.157.233-.631.787-.778.953-.019.022-.045.048-.061.048s-.257-.1-.33-.132a8.253,8.253,0,0,1-3.135-2.785.163.163,0,0,1-.026-.062.516.516,0,0,1,.092-.108c.086-.085.178-.2.268-.3.042-.051.085-.1.127-.15a1.7,1.7,0,0,0,.255-.4l.035-.071a.731.731,0,0,0-.021-.689c-.037-.074-.7-1.673-.77-1.84-.169-.405-.393-.594-.7-.594-.029,0,0,0-.121.005a3.764,3.764,0,0,0-1.3.335,2.731,2.731,0,0,0-1.013,2.323,5.005,5.005,0,0,0,1.085,2.756c.008.011.023.033.045.065a10.218,10.218,0,0,0,4.382,3.8,7.126,7.126,0,0,0,2.647.677h0a4.148,4.148,0,0,0,.43-.025l.077-.008a2.782,2.782,0,0,0,1.94-1.373,2.17,2.17,0,0,0,.124-1.429.988.988,0,0,0-.462-.331Zm0,0" transform="translate(-785.061 -502.525)" fill="#00202d"/>
      <path id="Caminho_4" data-name="Caminho 4" d="M736.947,444.418a10.539,10.539,0,0,0-10.567,10.487,10.411,10.411,0,0,0,1.449,5.3l-1.815,5.354a.279.279,0,0,0,.265.369.275.275,0,0,0,.085-.013l5.583-1.774a10.512,10.512,0,1,0,5-19.727Zm0,18.789a8.371,8.371,0,0,1-4.606-1.373.28.28,0,0,0-.153-.046.276.276,0,0,0-.085.013l-2.8.889.9-2.663a.28.28,0,0,0-.039-.255,8.187,8.187,0,0,1-1.593-4.867,8.37,8.37,0,1,1,8.37,8.3Zm0,0" transform="translate(-725.999 -444.369)" fill="#00202d"/>
    </g>
  </g>
</svg>
