<svg xmlns="http://www.w3.org/2000/svg" xmlns:xlink="http://www.w3.org/1999/xlink" width="25.401" height="25.5" viewBox="0 0 25.401 25.5">
  <defs>
    <clipPath id="clip-path">
      <rect id="Retângulo_9" data-name="Retângulo 9" width="25.401" height="25.5" fill="#fff"/>
    </clipPath>
  </defs>
  <g id="Grupo_12" data-name="Grupo 12" transform="translate(-726 -443.858)">
    <g id="Grupo_3" data-name="Grupo 3" transform="translate(726 443.858)">
      <g id="Grupo_2" data-name="Grupo 2" transform="translate(0 0)" clip-path="url(#clip-path)">
        <path id="Caminho_1" data-name="Caminho 1" d="M802.808,516.146c-.049-.024-1.9-.934-2.225-1.052a1.28,1.28,0,0,0-.43-.1.733.733,0,0,0-.622.369c-.184.274-.743.927-.916,1.123-.023.026-.053.056-.071.056s-.3-.118-.389-.155a9.723,9.723,0,0,1-3.693-3.28.193.193,0,0,1-.031-.073.606.606,0,0,1,.108-.128c.1-.1.21-.231.315-.358.05-.06.1-.12.149-.177a2.013,2.013,0,0,0,.3-.477l.041-.083a.861.861,0,0,0-.025-.811c-.043-.087-.824-1.97-.907-2.168-.2-.477-.463-.7-.829-.7-.034,0,0,0-.143.006a4.434,4.434,0,0,0-1.536.395,3.217,3.217,0,0,0-1.193,2.736,5.9,5.9,0,0,0,1.278,3.246c.01.012.027.039.053.076a12.037,12.037,0,0,0,5.163,4.482,8.391,8.391,0,0,0,3.118.8h0a4.94,4.94,0,0,0,.507-.03l.091-.009a3.278,3.278,0,0,0,2.285-1.617,2.556,2.556,0,0,0,.146-1.684,1.165,1.165,0,0,0-.544-.39Zm0,0" transform="translate(-784.055 -501.526)" fill="#fff"/>
        <path id="Caminho_2" data-name="Caminho 2" d="M738.9,444.418a12.416,12.416,0,0,0-12.448,12.354,12.266,12.266,0,0,0,1.707,6.248l-2.138,6.307a.329.329,0,0,0,.312.435.321.321,0,0,0,.1-.015l6.576-2.09a12.383,12.383,0,1,0,5.892-23.239Zm0,22.134a9.86,9.86,0,0,1-5.426-1.618.332.332,0,0,0-.18-.054.323.323,0,0,0-.1.016l-3.294,1.047,1.064-3.138a.33.33,0,0,0-.046-.3,9.644,9.644,0,0,1-1.877-5.733,9.859,9.859,0,1,1,9.86,9.78Zm0,0" transform="translate(-725.999 -444.36)" fill="#fff"/>
      </g>
    </g>
  </g>
</svg>
