<svg id="surface1" xmlns="http://www.w3.org/2000/svg" width="26.549" height="26.999" viewBox="0 0 26.549 26.999">
  <defs>
    <style>
      .cls-1 {
        fill: #404e67;
      }
    </style>
  </defs>
  <path id="Caminho_80" data-name="Caminho 80" class="cls-1" d="M100.874,0h-20.7a1.8,1.8,0,0,0-1.8,1.8V12.6h.9V1.8a.9.9,0,0,1,.9-.9h20.7a.9.9,0,0,1,.9.9v18a.9.9,0,0,1-.9.9h-9.45v.9h9.45a1.8,1.8,0,0,0,1.8-1.8V1.8A1.8,1.8,0,0,0,100.874,0Zm0,0" transform="translate(-76.125)"/>
  <path id="Caminho_81" data-name="Caminho 81" class="cls-1" d="M140.875,62.5h.9v.9h-.9Zm0,0" transform="translate(-136.825 -60.7)"/>
  <path id="Caminho_82" data-name="Caminho 82" class="cls-1" d="M203.375,62.5h.9v.9h-.9Zm0,0" transform="translate(-197.525 -60.7)"/>
  <path id="Caminho_83" data-name="Caminho 83" class="cls-1" d="M265.875,62.5h.9v.9h-.9Zm0,0" transform="translate(-258.225 -60.7)"/>
  <path id="Caminho_84" data-name="Caminho 84" class="cls-1" d="M140.875,125h20.7v.9h-20.7Zm0,0" transform="translate(-136.825 -121.4)"/>
  <path id="Caminho_85" data-name="Caminho 85" class="cls-1" d="M140.875,208.075a.45.45,0,0,0,.45.45h5.4a.45.45,0,0,0,.45-.45v-3.6a.45.45,0,0,0-.45-.45h-2.064l-.768-.768a.45.45,0,0,0-.318-.132h-2.25a.45.45,0,0,0-.45.45Zm.9-4.05h1.614l.768.768a.45.45,0,0,0,.318.132h1.8v2.7h-4.5Zm0,0" transform="translate(-136.825 -197.275)"/>
  <path id="Caminho_86" data-name="Caminho 86" class="cls-1" d="M397.175,204.475a.45.45,0,0,0-.45-.45h-2.064l-.768-.768a.45.45,0,0,0-.318-.132h-2.25a.45.45,0,0,0-.45.45v4.5a.45.45,0,0,0,.45.45h5.4a.45.45,0,0,0,.45-.45Zm-.9,3.15h-4.5v-3.6h1.614l.768.768a.45.45,0,0,0,.318.132h1.8Zm0,0" transform="translate(-379.625 -197.275)"/>
  <path id="Caminho_87" data-name="Caminho 87" class="cls-1" d="M647.175,204.475a.45.45,0,0,0-.45-.45h-2.064l-.768-.768a.45.45,0,0,0-.318-.132h-2.25a.45.45,0,0,0-.45.45v4.5a.45.45,0,0,0,.45.45h5.4a.45.45,0,0,0,.45-.45Zm-.9,3.15h-4.5v-3.6h1.614l.768.768a.45.45,0,0,0,.318.132h1.8Zm0,0" transform="translate(-622.426 -197.275)"/>
  <path id="Caminho_88" data-name="Caminho 88" class="cls-1" d="M440.45,457.625v.9h1.8a.45.45,0,0,0,.45-.45v-3.6a.45.45,0,0,0-.45-.45h-2.064l-.768-.768a.45.45,0,0,0-.318-.132h-1.35v.9h1.164l.768.768a.45.45,0,0,0,.318.132h1.8v2.7Zm0,0" transform="translate(-425.151 -440.076)"/>
  <path id="Caminho_89" data-name="Caminho 89" class="cls-1" d="M646.725,454.025h-2.064l-.768-.768a.45.45,0,0,0-.318-.132h-2.25a.45.45,0,0,0-.45.45v4.5a.45.45,0,0,0,.45.45h5.4a.45.45,0,0,0,.45-.45v-3.6A.45.45,0,0,0,646.725,454.025Zm-.45,3.6h-4.5v-3.6h1.614l.768.768a.45.45,0,0,0,.318.132h1.8Zm0,0" transform="translate(-622.426 -440.076)"/>
  <path id="Caminho_90" data-name="Caminho 90" class="cls-1" d="M1.889,442.9H.7a.45.45,0,0,0-.45.45v2.7a.45.45,0,0,0,.45.45H1.889a5.824,5.824,0,0,0,.355.859l-.841.84a.45.45,0,0,0,0,.636l1.909,1.909a.45.45,0,0,0,.636,0l.84-.841a5.824,5.824,0,0,0,.859.355v1.189a.45.45,0,0,0,.45.45H8.8a.45.45,0,0,0,.45-.45V450.26a5.824,5.824,0,0,0,.859-.355l.84.841a.45.45,0,0,0,.636,0l1.909-1.909a.45.45,0,0,0,0-.636l-.841-.84a5.821,5.821,0,0,0,.355-.859H14.2a.45.45,0,0,0,.45-.45v-2.7a.45.45,0,0,0-.45-.45H13.01a5.821,5.821,0,0,0-.355-.859l.841-.84a.45.45,0,0,0,0-.636l-1.909-1.909a.45.45,0,0,0-.636,0l-.84.841a5.817,5.817,0,0,0-.859-.355V437.95a.45.45,0,0,0-.45-.45H6.1a.45.45,0,0,0-.45.45v1.189a5.817,5.817,0,0,0-.859.355l-.84-.841a.45.45,0,0,0-.636,0L1.4,440.564a.45.45,0,0,0,0,.636l.841.84c-.037.073-.073.147-.108.222A5.845,5.845,0,0,0,1.889,442.9Zm.774.562a4.908,4.908,0,0,1,.526-1.273.45.45,0,0,0-.069-.547l-.761-.761,1.273-1.273.761.761a.45.45,0,0,0,.547.069,4.919,4.919,0,0,1,1.273-.526.45.45,0,0,0,.337-.436V438.4h1.8v1.077a.45.45,0,0,0,.337.436,4.919,4.919,0,0,1,1.273.526.45.45,0,0,0,.547-.069l.761-.761,1.273,1.273-.761.761a.45.45,0,0,0-.069.547,4.921,4.921,0,0,1,.526,1.273.45.45,0,0,0,.436.337h1.077v1.8H12.672a.45.45,0,0,0-.436.338,4.92,4.92,0,0,1-.526,1.273.45.45,0,0,0,.069.547l.761.761-1.273,1.273-.761-.761a.45.45,0,0,0-.547-.069,4.921,4.921,0,0,1-1.273.527.45.45,0,0,0-.337.436V451H6.55v-1.077a.45.45,0,0,0-.337-.436,4.921,4.921,0,0,1-1.273-.527.45.45,0,0,0-.547.069l-.761.761-1.273-1.273.761-.761a.45.45,0,0,0,.069-.547,4.919,4.919,0,0,1-.526-1.273.45.45,0,0,0-.436-.338H1.15v-1.8H2.227A.45.45,0,0,0,2.663,443.462Zm0,0" transform="translate(-0.25 -424.901)"/>
  <path id="Caminho_91" data-name="Caminho 91" class="cls-1" d="M144.025,584.425a3.15,3.15,0,1,0-3.15-3.15A3.15,3.15,0,0,0,144.025,584.425Zm0-5.4a2.25,2.25,0,1,1-2.25,2.25A2.25,2.25,0,0,1,144.025,579.025Zm0,0" transform="translate(-136.825 -561.476)"/>
</svg>
