<svg id="contract" xmlns="http://www.w3.org/2000/svg" width="27.554" height="27.549" viewBox="0 0 27.554 27.549">
  <defs>
    <style>
      .cls-1 {
        fill: #404e67;
      }
    </style>
  </defs>
  <path id="Caminho_134" data-name="Caminho 134" class="cls-1" d="M208.556,97.04a1.378,1.378,0,0,0-2.525-.331l-.23.4a.459.459,0,0,0-.624.165l-1.166,1.988-.4-.23a.459.459,0,1,0-.459.794l.4.23-3.9,6.763-.964,2.576-.459.858a1.378,1.378,0,0,0,.074,1.488l-1.033,1.267-.289-.725a.918.918,0,0,0-1.639-.129l-.165.28-.156-1.837a.918.918,0,0,0-1.786-.216l-1.13,3.389a.459.459,0,0,0,.289.579.4.4,0,0,0,.142.037.459.459,0,0,0,.436-.312l1.125-3.389.161,1.864a.918.918,0,0,0,1.7.4l.17-.28.285.721a.918.918,0,0,0,1.57.234l1.07-1.354a1.415,1.415,0,0,0,.363.046,1.378,1.378,0,0,0,1.2-.68l.459-.767,1.749-2.126,3.944-6.846.4.23a.46.46,0,0,1,.17.629l-1.837,3.182a.456.456,0,1,0,.776.478l1.837-3.182a1.377,1.377,0,0,0-.505-1.883l-.4-.23,1.148-1.988a.459.459,0,0,0-.165-.624l.23-.4a1.377,1.377,0,0,0,.138-1.065Zm-1.731.128a.459.459,0,0,1,.28-.216.482.482,0,0,1,.349.046.46.46,0,0,1,.216.28.482.482,0,0,1-.046.349l-.23.4-.8-.459Zm-6.258,12.82-.23-.133-.68-.4.652-1.745,1.446.836Zm-1.377,1.327a.459.459,0,0,1-.138-.6l.23-.4.8.459-.23.395a.459.459,0,0,1-.661.147Zm3.09-3.517-1.589-.918,3.673-6.364,1.589.918Zm4.132-7.158-1.589-.918.918-1.589,1.589.918Zm0,0" transform="translate(-181.052 -90.511)"/>
  <path id="Caminho_135" data-name="Caminho 135" class="cls-1" d="M70.694,356.707l-1.625,1.621-.973-.973a.459.459,0,1,0-.647.652l.973.973a.926.926,0,0,0,1.3,0l1.621-1.625a.459.459,0,0,0-.647-.647Zm0,0" transform="translate(-63.449 -336.132)"/>
  <path id="Caminho_136" data-name="Caminho 136" class="cls-1" d="M32,315.944a3.9,3.9,0,0,0,7.806,0,.459.459,0,1,0-.918,0,2.985,2.985,0,1,1-1.194-2.388.459.459,0,0,0,.551-.735A3.9,3.9,0,0,0,32,315.944Zm0,0" transform="translate(-30.163 -294.134)"/>
  <path id="Caminho_137" data-name="Caminho 137" class="cls-1" d="M84.4,48.957a.459.459,0,1,0,0-.918H72.459A.459.459,0,0,0,72,48.5v1.837a.459.459,0,0,0,.459.459H84.4a.459.459,0,1,0,0-.918H72.918v-.918Zm0,0" transform="translate(-67.868 -45.284)"/>
  <path id="Caminho_138" data-name="Caminho 138" class="cls-1" d="M96.459,112.039a.459.459,0,0,0,0,.918h9.183a.459.459,0,0,0,0-.918Zm0,0" transform="translate(-90.49 -105.611)"/>
  <path id="Caminho_139" data-name="Caminho 139" class="cls-1" d="M138.561,168.039h-10.1a.459.459,0,0,0,0,.918h10.1a.459.459,0,0,0,0-.918Zm0,0" transform="translate(-120.653 -158.397)"/>
  <path id="Caminho_140" data-name="Caminho 140" class="cls-1" d="M66.1,216.5a.459.459,0,0,0-.459-.459H56.459a.459.459,0,1,0,0,.918h9.183A.459.459,0,0,0,66.1,216.5Zm0,0" transform="translate(-52.786 -203.642)"/>
  <path id="Caminho_141" data-name="Caminho 141" class="cls-1" d="M251.673,216.039h-3.214a.459.459,0,0,0,0,.918h3.214a.459.459,0,1,0,0-.918Zm0,0" transform="translate(-233.766 -203.642)"/>
  <path id="Caminho_142" data-name="Caminho 142" class="cls-1" d="M61.051,256.957a.459.459,0,1,0,0-.918H56.459a.459.459,0,1,0,0,.918Zm0,0" transform="translate(-52.786 -241.346)"/>
  <path id="Caminho_143" data-name="Caminho 143" class="cls-1" d="M168.459,256.957h3.214a.459.459,0,1,0,0-.918h-3.214a.459.459,0,1,0,0,.918Zm0,0" transform="translate(-158.358 -241.346)"/>
  <path id="Caminho_144" data-name="Caminho 144" class="cls-1" d="M20.662,21.16a.459.459,0,0,0-.459.459v4.592a.459.459,0,0,1-.459.459H1.377a.459.459,0,0,1-.459-.459V1.416A.459.459,0,0,1,1.377.957H19.744a.459.459,0,0,1,.459.459V10.04a.459.459,0,1,0,.918,0V1.416A1.378,1.378,0,0,0,19.744.039H1.377A1.378,1.378,0,0,0,0,1.416V26.211a1.377,1.377,0,0,0,1.377,1.377H19.744a1.377,1.377,0,0,0,1.377-1.377V21.619A.459.459,0,0,0,20.662,21.16Zm0,0" transform="translate(0 -0.039)"/>
</svg>
