<svg id="inbox" xmlns="http://www.w3.org/2000/svg" width="26.661" height="21.329" viewBox="0 0 26.661 21.329">
  <defs>
    <style>
      .cls-1 {
        fill: #404e67;
      }
    </style>
  </defs>
  <g id="Grupo_43" data-name="Grupo 43" transform="translate(9.479 14.774)">
    <g id="Grupo_42" data-name="Grupo 42" transform="translate(0 0)">
      <path id="Caminho_132" data-name="Caminho 132" class="cls-1" d="M190.98,332.734h-6.048a.828.828,0,0,0-.827.827v1.855a.828.828,0,0,0,.827.827h6.048a.828.828,0,0,0,.827-.827v-1.855A.828.828,0,0,0,190.98,332.734Zm-.236,2.446h-5.576V333.8h5.576Z" transform="translate(-184.105 -332.734)"/>
    </g>
  </g>
  <g id="Grupo_45" data-name="Grupo 45" transform="translate(0 0)">
    <g id="Grupo_44" data-name="Grupo 44" transform="translate(0 0)">
      <path id="Caminho_133" data-name="Caminho 133" class="cls-1" d="M26.4,67.082l.008,0L22.533,59.2A1.816,1.816,0,0,0,20.9,58.166h-.736v-.732a.524.524,0,0,0-.517-.531H7.013a.524.524,0,0,0-.517.531v.732H5.76A1.816,1.816,0,0,0,4.128,59.2L.253,67.078l.008,0A1.89,1.89,0,0,0,0,68.045v8.324a1.838,1.838,0,0,0,1.81,1.861H24.851a1.838,1.838,0,0,0,1.81-1.861V68.045A1.89,1.89,0,0,0,26.4,67.082Zm-6.235-7.735H20.9a.676.676,0,0,1,.608.385l3.173,6.452H22.524V64.2a.524.524,0,0,0-.517-.531h-.639V60.816a.524.524,0,0,0-.517-.531h-.687Zm1.326,5.383v1.454H18.764a1.193,1.193,0,0,0-1.086.722l-.744,1.7a.044.044,0,0,1-.04.026H9.767a.044.044,0,0,1-.04-.026l-.744-1.7A1.193,1.193,0,0,0,7.9,66.184H5.17V64.73ZM7.53,57.965h11.6v2.32H7.53Zm12.8,3.382v2.32H6.326v-2.32H20.335ZM5.152,59.731a.676.676,0,0,1,.608-.385H6.5v.938H5.809a.524.524,0,0,0-.517.531v2.851H4.654a.524.524,0,0,0-.517.531v1.985H1.98Zm19.7,17.318H1.81a.672.672,0,0,1-.661-.68V68.045a.672.672,0,0,1,.661-.68H7.9a.044.044,0,0,1,.04.027l.744,1.7a1.192,1.192,0,0,0,1.086.722h7.126a1.192,1.192,0,0,0,1.086-.722l.744-1.7h0a.044.044,0,0,1,.04-.026h6.087a.672.672,0,0,1,.661.68v8.324h0A.672.672,0,0,1,24.851,77.05Z" transform="translate(0 -56.902)"/>
    </g>
  </g>
</svg>
