<svg id="goal" xmlns="http://www.w3.org/2000/svg" width="27.549" height="27.213" viewBox="0 0 27.549 27.213">
  <defs>
    <style>
      .cls-1 {
        fill: #404e67;
      }
    </style>
  </defs>
  <g id="Grupo_49" data-name="Grupo 49" transform="translate(10.885 9.982)">
    <g id="Grupo_48" data-name="Grupo 48" transform="translate(0 0)">
      <path id="Caminho_145" data-name="Caminho 145" class="cls-1" d="M203.062,179.592a8.164,8.164,0,0,0-10.509,10.52l.848-.32a7.249,7.249,0,1,1,4.23,4.23l-.32.848a8.162,8.162,0,1,0,5.751-15.278Z" transform="translate(-192.03 -179.069)"/>
    </g>
  </g>
  <g id="Grupo_51" data-name="Grupo 51" transform="translate(14.964 14.062)">
    <g id="Grupo_50" data-name="Grupo 50" transform="translate(0 0)">
      <path id="Caminho_146" data-name="Caminho 146" class="cls-1" d="M270.122,251.593a4.081,4.081,0,0,0-5.574,5.574l.785-.453a3.175,3.175,0,1,1,1.165,1.165l-.453.785a4.081,4.081,0,0,0,4.078-7.071Z" transform="translate(-264.002 -251.047)"/>
    </g>
  </g>
  <g id="Grupo_53" data-name="Grupo 53" transform="translate(12.697 11.806)">
    <g id="Grupo_52" data-name="Grupo 52">
      <path id="Caminho_147" data-name="Caminho 147" class="cls-1" d="M232.785,211.743a6.342,6.342,0,0,0-8.286,8.3l.837-.35a5.436,5.436,0,1,1,2.93,2.928l-.349.834a6.342,6.342,0,1,0,4.868-11.712Z" transform="translate(-224.01 -211.256)"/>
    </g>
  </g>
  <g id="Grupo_55" data-name="Grupo 55" transform="translate(0 0)">
    <g id="Grupo_54" data-name="Grupo 54" transform="translate(0)">
      <path id="Caminho_148" data-name="Caminho 148" class="cls-1" d="M19.047,19.3a1.814,1.814,0,0,0-1.814,1.814,1.79,1.79,0,0,0,.257.916L14.815,24.7,12.789,24.3a.453.453,0,0,0-.458.181l-2.267,3.174a.453.453,0,0,0,.227.694l.345.115a9.094,9.094,0,0,1-3.755.815H1.362a.453.453,0,0,1,0-.907H7.71a1.36,1.36,0,1,0,0-2.721H1.362a.453.453,0,1,1,0-.907H4.536A2.721,2.721,0,0,0,7.227,22.4a1.357,1.357,0,0,0,.936-1.286v-.453a1.36,1.36,0,0,0,1.36-1.36V16.006a6.8,6.8,0,1,0-5.441,0V19.3a1.36,1.36,0,0,0,1.36,1.36v.453a1.36,1.36,0,0,0,.871,1.266,1.816,1.816,0,0,1-1.778,1.455H1.362a1.36,1.36,0,1,0,0,2.721H7.71a.453.453,0,1,1,0,.907H1.362a1.36,1.36,0,0,0,0,2.721H6.88a10,10,0,0,0,4.654-1.153l.281.843a.453.453,0,0,0,.43.31.449.449,0,0,0,.263-.085l3.174-2.267a.453.453,0,0,0,.181-.458l-.406-2.029,2.675-2.675a1.79,1.79,0,0,0,.913.259,1.814,1.814,0,0,0,0-3.628ZM7.257,21.113a.453.453,0,0,1-.907,0v-.453h.907Zm1.36-2.721H4.99v-.453H8.617Zm0-1.36H4.99v-.706a6.628,6.628,0,0,0,3.628,0ZM6.5,12.5h.6L6.84,15.671H6.767ZM.908,9.776a5.895,5.895,0,1,1,6.847,5.811l.258-3.09H9.071a1.814,1.814,0,1,0-1.814-1.851l-.077.945H6.426l-.076-.907A1.814,1.814,0,1,0,4.536,12.5H5.593l.258,3.09A5.9,5.9,0,0,1,.908,9.776Zm7.18,1.814.075-.907a.907.907,0,1,1,.907.907Zm-2.572,0H4.536a.907.907,0,1,1,0-1.814.919.919,0,0,1,.907.93s0,.01,0,.015Zm-.074,8.162A.453.453,0,0,1,4.99,19.3H8.617a.453.453,0,0,1-.453.453Zm6.226,8.1-.512-.171,1.74-2.436,1.149.23ZM12.481,29l-.171-.512,2.377-2.377.229,1.148Zm6.566-6.983a.89.89,0,0,1-.232-.034l.552-.552-.641-.641-.552.552a.89.89,0,0,1-.034-.232.907.907,0,1,1,.907.907Z" transform="translate(0 -2.969)"/>
    </g>
  </g>
  <g id="Grupo_57" data-name="Grupo 57" transform="translate(14.247 0.653)">
    <g id="Grupo_56" data-name="Grupo 56" transform="translate(0 0)">
      <path id="Caminho_149" data-name="Caminho 149" class="cls-1" d="M253.862,20.884c.019-.244.029-.47.029-.691a9.916,9.916,0,0,0-1.788-5.7l-.744.519a8.891,8.891,0,0,1,1.534,6.4.453.453,0,0,0,.566.5,10.523,10.523,0,0,1,7.914,1.043l.453-.785A11.42,11.42,0,0,0,253.862,20.884Z" transform="translate(-251.358 -14.493)"/>
    </g>
  </g>
  <g id="Grupo_59" data-name="Grupo 59" transform="translate(25.945 9.642)">
    <g id="Grupo_58" data-name="Grupo 58">
      <path id="Caminho_150" data-name="Caminho 150" class="cls-1" d="M458.334,173.069l-.6.68a10.452,10.452,0,0,1,.924.924l.68-.6A11.522,11.522,0,0,0,458.334,173.069Z" transform="translate(-457.734 -173.069)"/>
    </g>
  </g>
</svg>
