<svg id="_020-presentation" data-name="020-presentation" xmlns="http://www.w3.org/2000/svg" width="26.661" height="21.329" viewBox="0 0 26.661 21.329">
  <defs>
    <style>
      .cls-1 {
        fill: #404e67;
      }
    </style>
  </defs>
  <path id="Caminho_60" data-name="Caminho 60" class="cls-1" d="M217.353,199.794a.444.444,0,0,1,.444.444h.889a1.333,1.333,0,0,0-.889-1.251v-.526h-.889v.526a1.33,1.33,0,0,0,.444,2.584.444.444,0,1,1-.444.444h-.889a1.333,1.333,0,0,0,.889,1.251v.527h.889v-.527a1.329,1.329,0,0,0-.444-2.584.444.444,0,1,1,0-.889Zm0,0" transform="translate(-204.023 -187.438)"/>
  <path id="Caminho_61" data-name="Caminho 61" class="cls-1" d="M276.866,115.07a.457.457,0,0,0-.628,0l-1.1,1.1v-3.285h2.222V112h-2.666a.444.444,0,0,0-.444.444v4.618l-2.092,2.091a.445.445,0,0,0,0,.628l4.085,4.084a.444.444,0,0,0,.628,0,6.221,6.221,0,0,0,0-8.8Zm-.327,7.842-.93-.93-2.514-2.513,3.444-3.443a5.332,5.332,0,0,1,0,6.887Zm0,0" transform="translate(-256.915 -105.779)"/>
  <path id="Caminho_62" data-name="Caminho 62" class="cls-1" d="M58.684,168.357a3.555,3.555,0,1,1,2.65-5.925l.662-.593a4.439,4.439,0,0,0-7.177.777l-2.488-2.488a.444.444,0,0,0-.311-.128H51.13v.889h.7l2.6,2.6a4.417,4.417,0,0,0,.192,3.121l-.627.941h-1.1v-.889a.444.444,0,0,0-.444-.444h-4a.444.444,0,0,0-.444.444v2.666a.444.444,0,0,0,.444.444h4a.444.444,0,0,0,.444-.444v-.889h1.333a.444.444,0,0,0,.37-.2l.522-.783a4.435,4.435,0,0,0,7.007.133l-.691-.559A3.542,3.542,0,0,1,58.684,168.357Zm-6.665.53h-3.11V167.11h3.11Zm0,0" transform="translate(-45.354 -151.113)"/>
  <path id="Caminho_63" data-name="Caminho 63" class="cls-1" d="M384.02,112h2.666v.889H384.02Zm0,0" transform="translate(-362.691 -105.779)"/>
  <path id="Caminho_64" data-name="Caminho 64" class="cls-1" d="M384.02,144h2.666v.889H384.02Zm0,0" transform="translate(-362.691 -136.002)"/>
  <path id="Caminho_65" data-name="Caminho 65" class="cls-1" d="M26.68,4a1.333,1.333,0,0,0-1.333-1.333H16.2L13.663.13a.444.444,0,0,0-.628,0L10.5,2.666H1.352A1.33,1.33,0,0,0,.908,5.25V20.44H.463a.444.444,0,0,0,0,.889H26.235a.444.444,0,0,0,0-.889h-.444V5.25A1.333,1.333,0,0,0,26.68,4ZM13.349,1.072l1.593,1.594H11.756Zm-12,2.482H25.347a.444.444,0,1,1,0,.889H1.352a.444.444,0,1,1,0-.889ZM1.8,20.44V5.332H24.9V20.44Zm0,0" transform="translate(-0.019 0)"/>
  <path id="Caminho_66" data-name="Caminho 66" class="cls-1" d="M48.02,128h3.555v.889H48.02Zm0,0" transform="translate(-45.353 -120.89)"/>
  <path id="Caminho_67" data-name="Caminho 67" class="cls-1" d="M48.02,160h2.222v.889H48.02Zm0,0" transform="translate(-45.353 -151.113)"/>
  <path id="Caminho_68" data-name="Caminho 68" class="cls-1" d="M48.02,192h3.11v.889H48.02Zm0,0" transform="translate(-45.353 -181.336)"/>
  <path id="Caminho_69" data-name="Caminho 69" class="cls-1" d="M48.02,224h4.443v.889H48.02Zm0,0" transform="translate(-45.353 -211.558)"/>
  <path id="Caminho_70" data-name="Caminho 70" class="cls-1" d="M416.02,176h.889v.889h-.889Zm0,0" transform="translate(-392.914 -166.224)"/>
  <path id="Caminho_71" data-name="Caminho 71" class="cls-1" d="M393.353,313.333H392.02v.889H393.8a.444.444,0,0,0,.444-.444V312h-.889Zm0,0" transform="translate(-370.247 -294.67)"/>
  <path id="Caminho_72" data-name="Caminho 72" class="cls-1" d="M416.02,280h.889v.889h-.889Zm0,0" transform="translate(-392.914 -264.448)"/>
  <path id="Caminho_73" data-name="Caminho 73" class="cls-1" d="M360.02,336h.889v.889h-.889Zm0,0" transform="translate(-340.024 -317.337)"/>
</svg>
