<svg xmlns="http://www.w3.org/2000/svg" width="29.882" height="23.286" viewBox="0 0 29.882 23.286">
  <defs>
    <style>
      .cls-1 {
        fill: #404e67;
      }
    </style>
  </defs>
  <g id="Grupo_168" data-name="Grupo 168" transform="translate(-393.889 -94)">
    <g id="_018-control" data-name="018-control" transform="translate(393.889 94)">
      <path id="Caminho_95" data-name="Caminho 95" class="cls-1" d="M38.053,152.3v5.1l-2.8,1.963.59.841,1.315-.923v9.388h13.9v-9.388l1.314.923.59-.841-4.51-3.167-.59.841,2.169,1.523v9.082H47.025v-6.917H41.2v6.917H38.19v-9.082l5.924-4.16,2.915,2.047.59-.841-3.505-2.461-2.294,1.611V152.3Zm4.178,9.451H46v5.89H42.231Zm-1.438-6.274-1.712,1.2v-3.352h1.712Zm0,0" transform="translate(-35.258 -148.735)"/>
      <path id="Caminho_96" data-name="Caminho 96" class="cls-1" d="M238.305,132.094a1.884,1.884,0,1,0,.707.746l1.558-1.558h9.787v-1.027H240.145Zm-.961,2.475a.856.856,0,1,1,.856-.856A.857.857,0,0,1,237.344,134.569Zm0,0" transform="translate(-221.776 -128.199)"/>
      <path id="Caminho_97" data-name="Caminho 97" class="cls-1" d="M317,250.488h-6.719l-1.84,1.84a1.884,1.884,0,1,0,.707.746l1.558-1.558H317Zm-9.52,4.315a.856.856,0,1,1,.856-.856A.857.857,0,0,1,307.481,254.8Zm0,0" transform="translate(-287.119 -240.215)"/>
      <path id="Caminho_98" data-name="Caminho 98" class="cls-1" d="M289.446,362.707a1.884,1.884,0,1,0,.961,3.5l1.84,1.84h7.4v-1.027h-6.979l-1.558-1.558a1.883,1.883,0,0,0-1.668-2.757Zm0,2.74a.856.856,0,1,1,.856-.856A.857.857,0,0,1,289.446,365.447Zm0,0" transform="translate(-270.316 -344.763)"/>
      <path id="Caminho_103" data-name="Caminho 103" class="cls-1" d="M318.121,100.195h4.109v1.027h-4.109Zm0,0" transform="translate(-298.786 -100.195)"/>
      <path id="Caminho_104" data-name="Caminho 104" class="cls-1" d="M423.328,100.195h1.027v1.027h-1.027Zm0,0" transform="translate(-396.801 -100.195)"/>
      <path id="Caminho_105" data-name="Caminho 105" class="cls-1" d="M393.27,100.195H394.3v1.027H393.27Zm0,0" transform="translate(-368.798 -100.195)"/>
      <path id="Caminho_106" data-name="Caminho 106" class="cls-1" d="M437.355,395.773h1.027V396.8h-1.027Zm0,0" transform="translate(-409.87 -375.569)"/>
      <path id="Caminho_107" data-name="Caminho 107" class="cls-1" d="M372.227,395.773h3.424V396.8h-3.424Zm0,0" transform="translate(-349.193 -375.569)"/>
      <path id="Caminho_108" data-name="Caminho 108" class="cls-1" d="M442.363,220.43h1.027v1.027h-1.027Zm0,0" transform="translate(-414.535 -212.211)"/>
      <path id="Caminho_109" data-name="Caminho 109" class="cls-1" d="M388.258,220.43h2.671v1.027h-2.671Zm0,0" transform="translate(-364.129 -212.211)"/>
    </g>
  </g>
</svg>
