<svg id="Grupo_99" data-name="Grupo 99" xmlns="http://www.w3.org/2000/svg" width="17.272" height="17.269" viewBox="0 0 17.272 17.269">
  <defs>
    <style>
      .cls-1 {
        fill: #404e67;
      }
    </style>
  </defs>
  <g id="Grupo_98" data-name="Grupo 98">
    <path id="Caminho_177" data-name="Caminho 177" class="cls-1" d="M15.437,1.875a6.265,6.265,0,0,0-9.164,8.535l-.746.746-.76-.76a.444.444,0,0,0-.628,0L.575,13.959a1.964,1.964,0,1,0,2.778,2.778l3.563-3.563a.444.444,0,0,0,0-.628l-.76-.76.746-.746a6.265,6.265,0,0,0,8.535-9.164ZM2.725,16.108A1.075,1.075,0,1,1,1.2,14.587L3.192,12.6,4.713,14.12Zm2.617-2.617L3.82,11.971l.632-.632L5.973,12.86Zm9.467-3.384a5.377,5.377,0,1,1,1.575-3.8A5.383,5.383,0,0,1,14.808,10.107Z" transform="translate(0 -0.043)"/>
  </g>
</svg>
