<svg id="share" xmlns="http://www.w3.org/2000/svg" width="11.042" height="12.275" viewBox="0 0 11.042 12.275">
  <defs>
    <style>
      .cls-1 {
        fill: #fff;
      }
    </style>
  </defs>
  <g id="share-alt">
    <path id="Caminho_206" data-name="Caminho 206" class="cls-1" d="M34.753,4.318a1.722,1.722,0,0,0-1.234.493l-4.38-2.529a1.05,1.05,0,0,0,.062-.432,1.851,1.851,0,0,0-3.7,0A1.818,1.818,0,0,0,27.351,3.7a1.722,1.722,0,0,0,1.234-.493l4.38,2.529a1.05,1.05,0,0,0-.062.432,1.05,1.05,0,0,0,.062.432l-4.38,2.591A1.722,1.722,0,0,0,27.351,8.7a1.789,1.789,0,1,0,1.789,1.789,1.2,1.2,0,0,0-.062-.432l4.38-2.591a1.722,1.722,0,0,0,1.234.493,1.818,1.818,0,0,0,1.851-1.851A1.717,1.717,0,0,0,34.753,4.318Z" transform="translate(-25.5)"/>
  </g>
</svg>
