<svg id="_004-file-3" data-name="004-file-3" xmlns="http://www.w3.org/2000/svg" width="72.592" height="88.002" viewBox="0 0 72.592 88.002">
  <defs>
    <style>
      .cls-1 {
        fill: #404e67;
      }
    </style>
  </defs>
  <path id="Caminho_223" data-name="Caminho 223" class="cls-1" d="M111.276,19.248l-13.1-13.1A20.837,20.837,0,0,0,83.341,0H52.97a8.152,8.152,0,0,0-8.142,8.144V54.209l.177,25.819a8,8,0,0,0,5.226,7.5A8.123,8.123,0,0,0,52.97,88h56.307a8.151,8.151,0,0,0,8.142-8.142V34.079a20.838,20.838,0,0,0-6.143-14.832ZM96.349,7.966l13.1,13.1a18.31,18.31,0,0,1,4.5,7.344,12.307,12.307,0,0,0-8.881-3.779H98.349a5.571,5.571,0,0,1-5.565-5.565V12.343A12.307,12.307,0,0,0,89,3.462,18.309,18.309,0,0,1,96.349,7.966ZM114.841,79.86a5.57,5.57,0,0,1-5.563,5.564H52.97A5.548,5.548,0,0,1,51.1,85.1a5.415,5.415,0,0,1-3.515-5.091L47.406,54.2V8.144A5.571,5.571,0,0,1,52.97,2.578H80.441a9.776,9.776,0,0,1,9.765,9.765v6.728a8.152,8.152,0,0,0,8.143,8.143h6.728a9.775,9.775,0,0,1,9.764,9.732V79.86Z" transform="translate(-44.828 0)"/>
  <path id="Caminho_224" data-name="Caminho 224" class="cls-1" d="M351.806,410.65h-7.124a1.289,1.289,0,1,0,0,2.578h7.124a1.289,1.289,0,1,0,0-2.578Z" transform="translate(-292.076 -340.068)"/>
  <path id="Caminho_225" data-name="Caminho 225" class="cls-1" d="M147.419,410.65H113.442a1.289,1.289,0,1,0,0,2.578h33.977a1.289,1.289,0,1,0,0-2.578Z" transform="translate(-100.581 -340.068)"/>
  <path id="Caminho_226" data-name="Caminho 226" class="cls-1" d="M130.662,450.541H113.445a1.289,1.289,0,0,0,0,2.578h17.217a1.289,1.289,0,0,0,0-2.578Z" transform="translate(-100.584 -373.103)"/>
  <path id="Caminho_227" data-name="Caminho 227" class="cls-1" d="M113.445,67.12h17.217a1.289,1.289,0,0,0,0-2.578H113.445a1.289,1.289,0,0,0,0,2.578Z" transform="translate(-100.584 -53.449)"/>
  <path id="Caminho_228" data-name="Caminho 228" class="cls-1" d="M106.241,161.182a4.465,4.465,0,0,0,4.46-4.46V117.14a4.465,4.465,0,0,0-4.46-4.46H99.323a4.465,4.465,0,0,0-4.46,4.46V121.3a1.289,1.289,0,0,0,2.578,0V117.14a1.884,1.884,0,0,1,1.882-1.882h6.918a1.884,1.884,0,0,1,1.882,1.882v39.582a1.884,1.884,0,0,1-1.882,1.882H99.323a1.884,1.884,0,0,1-1.882-1.882V127.07a1.289,1.289,0,1,0-2.578,0v29.652a4.465,4.465,0,0,0,4.46,4.46Z" transform="translate(-86.263 -93.313)"/>
  <path id="Caminho_229" data-name="Caminho 229" class="cls-1" d="M209.926,287.166v10.358a4.465,4.465,0,0,0,4.46,4.46H221.3a4.465,4.465,0,0,0,4.46-4.46V287.166a4.465,4.465,0,0,0-4.46-4.46h-6.919A4.465,4.465,0,0,0,209.926,287.166Zm2.578,0a1.884,1.884,0,0,1,1.882-1.882H221.3a1.884,1.884,0,0,1,1.882,1.882v10.358a1.884,1.884,0,0,1-1.882,1.882h-6.919a1.884,1.884,0,0,1-1.882-1.882Z" transform="translate(-181.549 -234.115)"/>
  <path id="Caminho_230" data-name="Caminho 230" class="cls-1" d="M336.363,188.773h-6.919a4.465,4.465,0,0,0-4.46,4.46v26.5a4.465,4.465,0,0,0,4.46,4.46h6.919a4.465,4.465,0,0,0,4.46-4.46v-26.5A4.465,4.465,0,0,0,336.363,188.773Zm1.882,30.963a1.884,1.884,0,0,1-1.882,1.882h-6.919a1.884,1.884,0,0,1-1.882-1.882v-26.5a1.884,1.884,0,0,1,1.882-1.882h6.919a1.884,1.884,0,0,1,1.882,1.882Z" transform="translate(-276.832 -156.327)"/>
</svg>
