<svg id="download" xmlns="http://www.w3.org/2000/svg" width="13.833" height="10.144" viewBox="0 0 13.833 10.144">
  <defs>
    <style>
      .cls-1 {
        fill: #fff;
      }
    </style>
  </defs>
  <path id="Caminho_205" data-name="Caminho 205" class="cls-1" d="M13.232,78.75a2.727,2.727,0,0,0-1.538-.976,1.841,1.841,0,0,0-1.549-2.839,1.761,1.761,0,0,0-1.2.447,3.693,3.693,0,0,0-3.415-2.291,3.554,3.554,0,0,0-2.608,1.081A3.553,3.553,0,0,0,1.844,76.78q0,.094.014.31A3.222,3.222,0,0,0,0,80.008a3.108,3.108,0,0,0,.947,2.28,3.108,3.108,0,0,0,2.28.948h7.839a2.763,2.763,0,0,0,2.165-4.485Zm-4.081.277L6.621,81.557a.244.244,0,0,1-.331,0L3.754,79.021a.224.224,0,0,1-.065-.166.234.234,0,0,1,.23-.23H5.533V76.088a.234.234,0,0,1,.231-.231H7.147a.233.233,0,0,1,.23.231v2.536H8.992a.222.222,0,0,1,.23.23A.27.27,0,0,1,9.15,79.028Z" transform="translate(0 -73.091)"/>
</svg>
