<svg id="_001-file" data-name="001-file" xmlns="http://www.w3.org/2000/svg" width="81.403" height="88.002" viewBox="0 0 81.403 88.002">
  <defs>
    <style>
      .cls-1 {
        fill: #404e67;
      }
    </style>
  </defs>
  <path id="Caminho_211" data-name="Caminho 211" class="cls-1" d="M100.6,34.079a20.838,20.838,0,0,0-6.143-14.832l-13.1-13.1A20.837,20.837,0,0,0,66.52,0H42.881a1.289,1.289,0,0,0,0,2.578H63.62a9.776,9.776,0,0,1,9.765,9.765v6.728a8.152,8.152,0,0,0,8.143,8.143h6.728a9.775,9.775,0,0,1,9.764,9.732V79.858a5.571,5.571,0,0,1-5.564,5.565H36.149a5.543,5.543,0,0,1-5.378-4.131l-.055-7.952H72.525A10.3,10.3,0,0,0,82.817,63.049V60.262a1.289,1.289,0,1,0-2.578,0v2.787a7.723,7.723,0,0,1-7.714,7.714H26.315a4.546,4.546,0,0,1-4.541-4.541v-27.9a7.086,7.086,0,0,0,4.541,1.641h46.21a7.723,7.723,0,0,1,7.714,7.714v7.43a1.289,1.289,0,1,0,2.578,0v-7.43A10.3,10.3,0,0,0,72.525,37.383H30.585V8.144a5.571,5.571,0,0,1,5.564-5.565h1.576a1.289,1.289,0,0,0,0-2.578H36.149a8.152,8.152,0,0,0-8.142,8.144v17.58H26.315A7.127,7.127,0,0,0,19.2,32.842V66.222a7.127,7.127,0,0,0,7.119,7.119h1.823l.056,8.125a1.293,1.293,0,0,0,.035.291A8.114,8.114,0,0,0,36.149,88H92.456a8.152,8.152,0,0,0,8.142-8.144ZM26.315,28.3h1.692v9.082H26.315a4.541,4.541,0,0,1,0-9.082Zm61.941-3.666H81.528a5.571,5.571,0,0,1-5.565-5.565V12.343a12.308,12.308,0,0,0-3.779-8.881,18.312,18.312,0,0,1,7.344,4.5l13.1,13.1a18.31,18.31,0,0,1,4.5,7.344,12.308,12.308,0,0,0-8.881-3.779Z" transform="translate(-19.196 0)"/>
  <path id="Caminho_212" data-name="Caminho 212" class="cls-1" d="M283.022,269.351a1.289,1.289,0,1,0,0-2.578h-6.646a1.289,1.289,0,0,0-1.289,1.289v16.4a1.289,1.289,0,1,0,2.578,0v-7.065h4.829a1.289,1.289,0,0,0,0-2.578h-4.829v-5.466Z" transform="translate(-231.105 -220.921)"/>
  <path id="Caminho_213" data-name="Caminho 213" class="cls-1" d="M178.035,266.773a1.289,1.289,0,0,0-1.289,1.292v.014h0v16.115a1.367,1.367,0,0,0,1.322,1.555h0c.14,0,3.447-.013,4.765-.036a7.266,7.266,0,0,0,5.736-2.918,10.762,10.762,0,0,0,2.017-6.534c0-5.675-3.179-9.488-7.911-9.488h-4.644Zm9.977,9.488c0,3.994-2.146,6.82-5.219,6.874-.784.014-2.329.024-3.44.03-.006-1.881-.017-5.324-.017-6.922,0-1.337-.006-4.943-.01-6.892h3.353c2.578,0,5.333,1.815,5.333,6.91Z" transform="translate(-149.667 -220.921)"/>
  <path id="Caminho_214" data-name="Caminho 214" class="cls-1" d="M96.37,266.069a1.289,1.289,0,0,0-1.289,1.286s0,0,0,0v16.519a1.289,1.289,0,0,0,2.578,0v-5.893c1.07-.006,2.554-.013,3.311-.013a5.951,5.951,0,1,0,0-11.9h-4.6Zm8.063,5.951a3.465,3.465,0,0,1-3.464,3.373c-.753,0-2.216.007-3.286.013-.006-1.1-.013-2.617-.013-3.386,0-.648,0-2.23-.008-3.373h3.307A3.465,3.465,0,0,1,104.434,272.02Z" transform="translate(-82.038 -220.338)"/>
</svg>
