<svg id="_002-file-1" data-name="002-file-1" xmlns="http://www.w3.org/2000/svg" width="81.403" height="88.002" viewBox="0 0 81.403 88.002">
  <defs>
    <style>
      .cls-1 {
        fill: #404e67;
      }
    </style>
  </defs>
  <path id="Caminho_215" data-name="Caminho 215" class="cls-1" d="M100.6,34.079a20.838,20.838,0,0,0-6.143-14.832l-13.1-13.1A20.838,20.838,0,0,0,66.519,0H36.148a8.152,8.152,0,0,0-8.142,8.144v17.58H26.314A7.127,7.127,0,0,0,19.2,32.842V50.878a1.289,1.289,0,1,0,2.578,0V38.324a7.063,7.063,0,0,0,4.541,1.638H72.524a7.723,7.723,0,0,1,7.714,7.714V63.049a7.723,7.723,0,0,1-7.714,7.714H26.314a4.546,4.546,0,0,1-4.541-4.541V56.646a1.289,1.289,0,0,0-2.578,0v9.575a7.127,7.127,0,0,0,7.119,7.119h1.823l.047,6.688a8,8,0,0,0,5.226,7.5A8.118,8.118,0,0,0,36.148,88H92.455a8.163,8.163,0,0,0,7.422-4.792,1.289,1.289,0,1,0-2.349-1.063,5.581,5.581,0,0,1-5.074,3.276H36.148a5.549,5.549,0,0,1-1.871-.322,5.415,5.415,0,0,1-3.515-5.091l-.046-6.67H72.523A10.3,10.3,0,0,0,82.815,63.048V47.676A10.3,10.3,0,0,0,72.523,37.383H30.584V8.144a5.571,5.571,0,0,1,5.564-5.565H63.62a9.776,9.776,0,0,1,9.765,9.765v6.728a8.152,8.152,0,0,0,8.143,8.143h6.728a9.775,9.775,0,0,1,9.763,9.7V76.974a1.289,1.289,0,1,0,2.578,0Zm-74.284,3.3a4.541,4.541,0,0,1,0-9.082h1.692v9.082ZM88.255,24.636H81.527a5.571,5.571,0,0,1-5.565-5.565V12.343a12.308,12.308,0,0,0-3.779-8.881,18.314,18.314,0,0,1,7.344,4.5l13.1,13.1a18.31,18.31,0,0,1,4.5,7.344A12.309,12.309,0,0,0,88.255,24.636Z" transform="translate(-19.195 0)"/>
  <path id="Caminho_216" data-name="Caminho 216" class="cls-1" d="M172.493,285.5a1.289,1.289,0,0,0,1.8-.311l5.126-7.277,5.119,7.276a1.289,1.289,0,1,0,2.109-1.484l-5.65-8.032,4.839-6.868a1.289,1.289,0,1,0-2.108-1.485l-4.307,6.113-4.3-6.112a1.289,1.289,0,1,0-2.108,1.483l4.831,6.868-5.658,8.032a1.289,1.289,0,0,0,.311,1.8Z" transform="translate(-145.691 -220.92)"/>
  <path id="Caminho_217" data-name="Caminho 217" class="cls-1" d="M102.015,285.736a1.289,1.289,0,0,0,1.289-1.289v-15.1h3.253a1.289,1.289,0,1,0,0-2.578H97.509a1.289,1.289,0,1,0,0,2.578h3.217v15.1A1.289,1.289,0,0,0,102.015,285.736Z" transform="translate(-82.981 -220.921)"/>
  <path id="Caminho_218" data-name="Caminho 218" class="cls-1" d="M272.7,285.736a1.289,1.289,0,0,0,1.289-1.289v-15.1h3.253a1.289,1.289,0,1,0,0-2.578H268.19a1.289,1.289,0,1,0,0,2.578h3.217v15.1A1.289,1.289,0,0,0,272.7,285.736Z" transform="translate(-224.326 -220.921)"/>
</svg>
