<svg id="_003-file-2" data-name="003-file-2" xmlns="http://www.w3.org/2000/svg" width="81.403" height="88.002" viewBox="0 0 81.403 88.002">
  <defs>
    <style>
      .cls-1 {
        fill: #404e67;
      }
    </style>
  </defs>
  <path id="Caminho_219" data-name="Caminho 219" class="cls-1" d="M100.6,34.08a20.832,20.832,0,0,0-6.144-14.832L83.391,8.183a1.289,1.289,0,1,0-1.823,1.823L92.632,21.071a18.3,18.3,0,0,1,4.5,7.342,12.307,12.307,0,0,0-8.88-3.779H81.527a5.571,5.571,0,0,1-5.564-5.565V12.343a12.307,12.307,0,0,0-3.753-8.855,18.416,18.416,0,0,1,5.277,2.719,1.289,1.289,0,1,0,1.538-2.069A21.107,21.107,0,0,0,66.52,0H36.149a8.152,8.152,0,0,0-8.142,8.144v17.58H26.315A7.127,7.127,0,0,0,19.2,32.842V66.222a7.127,7.127,0,0,0,7.119,7.119h1.823l.056,8.125a1.293,1.293,0,0,0,.035.291A8.114,8.114,0,0,0,36.149,88H92.456a8.152,8.152,0,0,0,8.142-8.144ZM26.315,28.3h1.692v9.082H26.315a4.541,4.541,0,0,1,0-9.082ZM92.456,85.423H36.149a5.543,5.543,0,0,1-5.378-4.131l-.055-7.952H72.525A10.3,10.3,0,0,0,82.817,63.049V47.676A10.3,10.3,0,0,0,72.525,37.384H43.246a1.289,1.289,0,1,0,0,2.578h29.28a7.723,7.723,0,0,1,7.714,7.714V63.049a7.723,7.723,0,0,1-7.714,7.714H26.315a4.546,4.546,0,0,1-4.541-4.541v-27.9a7.086,7.086,0,0,0,4.541,1.641H38.089a1.289,1.289,0,0,0,0-2.578h-7.5V8.144a5.571,5.571,0,0,1,5.564-5.565H63.621a9.775,9.775,0,0,1,9.764,9.764V19.07a8.152,8.152,0,0,0,8.142,8.144h6.729a9.775,9.775,0,0,1,9.764,9.731V79.858a5.571,5.571,0,0,1-5.564,5.565Z" transform="translate(-19.196 0)"/>
  <path id="Caminho_220" data-name="Caminho 220" class="cls-1" d="M192.347,285.718a17.308,17.308,0,0,0,1.968.033c.868,0,2.136,0,4-.014a1.289,1.289,0,1,0-.014-2.578c-1.324.007-3.218.014-4.446.014V268.063a1.289,1.289,0,0,0-2.578,0v16.384A1.289,1.289,0,0,0,192.347,285.718Z" transform="translate(-161.698 -220.921)"/>
  <path id="Caminho_221" data-name="Caminho 221" class="cls-1" d="M260.917,285.744c3.037,0,5.682-1.985,6.151-4.616.54-3.025-1.858-5.058-4.281-5.952-2.14-.789-4.122-1.651-4.588-1.857a1.879,1.879,0,0,1-.768-1.836,2.439,2.439,0,0,1,1.838-1.934,6.232,6.232,0,0,1,5.215,1.184,1.289,1.289,0,0,0,1.655-1.977c-.142-.119-3.523-2.908-7.613-1.676a5.016,5.016,0,0,0-3.646,4.036,4.458,4.458,0,0,0,1.987,4.414,1.283,1.283,0,0,0,.179.1c.094.042,2.33,1.037,4.849,1.967,1.9.7,2.86,1.823,2.636,3.08a3.481,3.481,0,0,1-3.613,2.491,6.48,6.48,0,0,1-4.759-2.007,1.289,1.289,0,1,0-1.91,1.731A9.1,9.1,0,0,0,260.917,285.744Z" transform="translate(-213.571 -220.915)"/>
  <path id="Caminho_222" data-name="Caminho 222" class="cls-1" d="M86.415,267.321a1.289,1.289,0,1,0-2.109,1.483l4.836,6.874-5.664,8.039a1.289,1.289,0,1,0,2.108,1.485l5.132-7.284,5.124,7.284a1.289,1.289,0,1,0,2.109-1.483l-5.655-8.039,4.843-6.875a1.289,1.289,0,1,0-2.108-1.485l-4.311,6.12Z" transform="translate(-72.235 -220.921)"/>
</svg>
