<svg id="surface1" xmlns="http://www.w3.org/2000/svg" width="23.284" height="29.724"><defs><style>.cls-1{fill:#404e67}</style></defs><path id="Caminho_114" data-name="Caminho 114" class="cls-1" d="M2.832 12.487a.5.5 0 01-.7 0L.645 11a.5.5 0 010-.7L10.8.144a.5.5 0 01.7 0l1.487 1.486a.5.5 0 010 .7zM1.7 10.65l.786.786L4.01 9.907l-.786-.786zm9.455-9.455l-7.23 7.226.786.786 7.226-7.226zm0 0" transform="translate(10.151 .001)"/><path id="Caminho_115" data-name="Caminho 115" class="cls-1" d="M203.516 421.313a64.411 64.411 0 0115.976 0 .5.5 0 01.434.492v1.982a.5.5 0 01-.557.492c-.95-.118-1.9-.208-2.858-.284l.937 12.636a.495.495 0 01-.5.532h-10.9a.5.5 0 01-.5-.532l.937-12.636c-.954.076-1.907.166-2.858.284a.532.532 0 01-.061 0 .5.5 0 01-.5-.5V421.8a.5.5 0 01.45-.487zm12.9 14.858l-.7-9.413h-8.438l-.7 9.413zm-.77-10.4l-.137-1.851a63.436 63.436 0 00-8.016 0l-.137 1.851zm-11.577-2.54a64.478 64.478 0 0114.862 0v-.984a63.507 63.507 0 00-14.862 0zm0 0" transform="translate(-203.082 -407.438)"/><path id="Caminho_116" data-name="Caminho 116" class="cls-1" d="M392.09 156.3a.5.5 0 01.977 0 1.917 1.917 0 001.575 1.575.5.5 0 010 .977 1.917 1.917 0 00-1.575 1.575.5.5 0 01-.977 0 1.917 1.917 0 00-1.575-1.575.5.5 0 010-.977 1.917 1.917 0 001.575-1.575zm.488 2.77a2.914 2.914 0 01.707-.707 2.905 2.905 0 01-.707-.708 2.906 2.906 0 01-.707.708 2.915 2.915 0 01.707.703zm0 0" transform="translate(-384.156 -150.927)"/><path id="Caminho_117" data-name="Caminho 117" class="cls-1" d="M534.891 34.179a1.916 1.916 0 00-1.575 1.575.5.5 0 01-.977 0 1.917 1.917 0 00-1.575-1.575.5.5 0 010-.977 1.917 1.917 0 001.575-1.574.5.5 0 01.977 0 1.916 1.916 0 001.575 1.574.5.5 0 010 .977zm-2.063-1.2a2.907 2.907 0 01-.707.708.707.707 0 001.415 0 2.909 2.909 0 01-.708-.704zm0 0" transform="translate(-528.865 -30.222)"/><path id="Caminho_118" data-name="Caminho 118" class="cls-1" d="M360.328 720l-.371-4.459-.987.082.371 4.458zm0 0" transform="translate(-348.44 -692.796)"/><path id="Caminho_119" data-name="Caminho 119" class="cls-1" d="M373.637 654.5l-.062-.991-.989.062.062.991zm0 0" transform="translate(-362.182 -632.733)"/><path id="Caminho_120" data-name="Caminho 120" class="cls-1" d="M283.481 46.75v1.486h1.486v.991h-1.486v1.486h-.991v-1.486H281v-.991h1.486V46.75zm0 0" transform="translate(-270.601 -45.264)"/></svg>
