<svg xmlns="http://www.w3.org/2000/svg" width="23.284" height="29.724" viewBox="0 0 23.284 29.724">
  <g id="Grupo_867" data-name="Grupo 867" transform="translate(1428.445 3293.37)">
    <path id="Caminho_114" data-name="Caminho 114" d="M2.832,12.487a.5.5,0,0,1-.7,0L.645,11a.5.5,0,0,1,0-.7L10.8.144a.5.5,0,0,1,.7,0L12.987,1.63a.5.5,0,0,1,0,.7ZM1.7,10.65l.786.786L4.01,9.907l-.786-.786Zm9.455-9.455L3.925,8.421l.786.786,7.226-7.226Zm0,0" transform="translate(-1418.294 -3293.369)" fill="#404e67"/>
    <path id="Caminho_115" data-name="Caminho 115" d="M203.516,421.313a64.411,64.411,0,0,1,15.976,0,.5.5,0,0,1,.434.492v1.982a.5.5,0,0,1-.557.492c-.95-.118-1.9-.208-2.858-.284l.937,12.636a.495.495,0,0,1-.5.532h-10.9a.5.5,0,0,1-.5-.532l.937-12.636c-.954.076-1.907.166-2.858.284a.532.532,0,0,1-.061,0,.5.5,0,0,1-.5-.5V421.8A.5.5,0,0,1,203.516,421.313Zm12.9,14.858-.7-9.413h-8.438l-.7,9.413Zm-.77-10.4-.137-1.851a63.436,63.436,0,0,0-8.016,0l-.137,1.851Zm-11.577-2.54a64.478,64.478,0,0,1,14.862,0v-.984a63.507,63.507,0,0,0-14.862,0Zm0,0" transform="translate(-1631.527 -3700.807)" fill="#404e67"/>
    <path id="Caminho_116" data-name="Caminho 116" d="M392.09,156.3a.5.5,0,0,1,.977,0,1.917,1.917,0,0,0,1.575,1.575.5.5,0,0,1,0,.977,1.917,1.917,0,0,0-1.575,1.575.5.5,0,0,1-.977,0,1.917,1.917,0,0,0-1.575-1.575.5.5,0,0,1,0-.977A1.917,1.917,0,0,0,392.09,156.3Zm.488,2.77a2.914,2.914,0,0,1,.707-.707,2.905,2.905,0,0,1-.707-.708,2.906,2.906,0,0,1-.707.708A2.915,2.915,0,0,1,392.578,159.066Zm0,0" transform="translate(-1812.602 -3444.297)" fill="#404e67"/>
    <path id="Caminho_117" data-name="Caminho 117" d="M534.891,34.179a1.916,1.916,0,0,0-1.575,1.575.5.5,0,0,1-.977,0,1.917,1.917,0,0,0-1.575-1.575.5.5,0,0,1,0-.977,1.917,1.917,0,0,0,1.575-1.574.5.5,0,0,1,.977,0,1.916,1.916,0,0,0,1.575,1.574.5.5,0,0,1,0,.977Zm-2.063-1.2a2.907,2.907,0,0,1-.707.708.707.707,0,0,0,1.415,0A2.909,2.909,0,0,1,532.828,32.983Zm0,0" transform="translate(-1957.31 -3323.592)" fill="#404e67"/>
    <path id="Caminho_118" data-name="Caminho 118" d="M360.328,720l-.371-4.459-.987.082.371,4.458Zm0,0" transform="translate(-1776.885 -3986.165)" fill="#404e67"/>
    <path id="Caminho_119" data-name="Caminho 119" d="M373.637,654.5l-.062-.991-.989.062.062.991Zm0,0" transform="translate(-1790.627 -3926.102)" fill="#404e67"/>
    <path id="Caminho_120" data-name="Caminho 120" d="M283.481,46.75v1.486h1.486v.991h-1.486v1.486h-.991V49.227H281v-.991h1.486V46.75Zm0,0" transform="translate(-1699.046 -3338.633)" fill="#404e67"/>
  </g>
</svg>
