<svg id="_016-factory" data-name="016-factory" xmlns="http://www.w3.org/2000/svg" width="22.396" height="23.995"><defs><style>.cls-1{fill:#404e67}</style></defs><g id="Grupo_35" data-name="Grupo 35"><g id="Grupo_34" data-name="Grupo 34"><path id="Caminho_110" data-name="Caminho 110" class="cls-1" d="M38.2 10.453a.4.4 0 00-.4 0l-1.1.611L36.4.389A.4.4 0 0036 0h-2.8a.4.4 0 00-.4.389l-.373 13.048-1.227.68V10.8a.4.4 0 00-.594-.35L24 14.117V10.8a.4.4 0 00-.594-.35l-7.2 4a.4.4 0 00-.206.35v8.8a.4.4 0 00.4.4H38a.4.4 0 00.4-.4V10.8a.4.4 0 00-.2-.347zM33.585.8h2.022l.023.8h-2.068zm-.046 1.6h2.114l.26 9.1-2.677 1.486zM26.8 23.195h-2.4v-2h2.4zm3.2 0h-2.4v-2H30zm7.6 0h-6.8V20.8a.4.4 0 00-.4-.4H24a.4.4 0 00-.4.4v2.4h-6.8v-8.168l6.4-3.555V14.8a.4.4 0 00.594.35l6.6-3.669V14.8a.4.4 0 00.594.35l3.772-2.1 1.753-.974 1.08-.6z" transform="translate(-16)"/></g></g><g id="Grupo_37" data-name="Grupo 37" transform="translate(2 15.996)"><g id="Grupo_36" data-name="Grupo 36"><path id="Caminho_111" data-name="Caminho 111" class="cls-1" d="M59.6 320h-3.2a.4.4 0 00-.4.4v1.6a.4.4 0 00.4.4h3.2a.4.4 0 00.4-.4v-1.6a.4.4 0 00-.4-.4zm-.4 1.6h-2.4v-.8h2.4z" transform="translate(-56 -320)"/></g></g><g id="Grupo_39" data-name="Grupo 39" transform="translate(9.198 15.996)"><g id="Grupo_38" data-name="Grupo 38"><path id="Caminho_112" data-name="Caminho 112" class="cls-1" d="M203.6 320h-3.2a.4.4 0 00-.4.4v1.6a.4.4 0 00.4.4h3.2a.4.4 0 00.4-.4v-1.6a.4.4 0 00-.4-.4zm-.4 1.6h-2.4v-.8h2.4z" transform="translate(-200 -320)"/></g></g><g id="Grupo_41" data-name="Grupo 41" transform="translate(16.396 15.996)"><g id="Grupo_40" data-name="Grupo 40"><path id="Caminho_113" data-name="Caminho 113" class="cls-1" d="M347.6 320h-3.2a.4.4 0 00-.4.4v1.6a.4.4 0 00.4.4h3.2a.4.4 0 00.4-.4v-1.6a.4.4 0 00-.4-.4zm-.4 1.6h-2.4v-.8h2.4z" transform="translate(-344 -320)"/></g></g></svg>
