<svg id="goal" xmlns="http://www.w3.org/2000/svg" width="27.549" height="27.213"><defs><style>.cls-1{fill:#404e67}</style></defs><g id="Grupo_49" data-name="Grupo 49" transform="translate(10.885 9.982)"><g id="Grupo_48" data-name="Grupo 48"><path id="Caminho_145" data-name="Caminho 145" class="cls-1" d="M203.062 179.592a8.164 8.164 0 00-10.509 10.52l.848-.32a7.249 7.249 0 114.23 4.23l-.32.848a8.162 8.162 0 105.751-15.278z" transform="translate(-192.03 -179.069)"/></g></g><g id="Grupo_51" data-name="Grupo 51" transform="translate(14.964 14.062)"><g id="Grupo_50" data-name="Grupo 50"><path id="Caminho_146" data-name="Caminho 146" class="cls-1" d="M270.122 251.593a4.081 4.081 0 00-5.574 5.574l.785-.453a3.175 3.175 0 111.165 1.165l-.453.785a4.081 4.081 0 004.078-7.071z" transform="translate(-264.002 -251.047)"/></g></g><g id="Grupo_53" data-name="Grupo 53" transform="translate(12.697 11.806)"><g id="Grupo_52" data-name="Grupo 52"><path id="Caminho_147" data-name="Caminho 147" class="cls-1" d="M232.785 211.743a6.342 6.342 0 00-8.286 8.3l.837-.35a5.436 5.436 0 112.93 2.928l-.349.834a6.342 6.342 0 104.868-11.712z" transform="translate(-224.01 -211.256)"/></g></g><g id="Grupo_55" data-name="Grupo 55"><g id="Grupo_54" data-name="Grupo 54"><path id="Caminho_148" data-name="Caminho 148" class="cls-1" d="M19.047 19.3a1.814 1.814 0 00-1.814 1.814 1.79 1.79 0 00.257.916l-2.675 2.67-2.026-.4a.453.453 0 00-.458.181l-2.267 3.174a.453.453 0 00.227.694l.345.115a9.094 9.094 0 01-3.755.815H1.362a.453.453 0 010-.907H7.71a1.36 1.36 0 100-2.721H1.362a.453.453 0 110-.907h3.174A2.721 2.721 0 007.227 22.4a1.357 1.357 0 00.936-1.286v-.453a1.36 1.36 0 001.36-1.36v-3.295a6.8 6.8 0 10-5.441 0V19.3a1.36 1.36 0 001.36 1.36v.453a1.36 1.36 0 00.871 1.266 1.816 1.816 0 01-1.778 1.455H1.362a1.36 1.36 0 100 2.721H7.71a.453.453 0 110 .907H1.362a1.36 1.36 0 000 2.721H6.88a10 10 0 004.654-1.153l.281.843a.453.453 0 00.43.31.449.449 0 00.263-.085l3.174-2.267a.453.453 0 00.181-.458l-.406-2.029 2.675-2.675a1.79 1.79 0 00.913.259 1.814 1.814 0 000-3.628zm-11.79 1.813a.453.453 0 01-.907 0v-.453h.907zm1.36-2.721H4.99v-.453h3.627zm0-1.36H4.99v-.706a6.628 6.628 0 003.628 0zM6.5 12.5h.6l-.26 3.171h-.073zM.908 9.776a5.895 5.895 0 116.847 5.811l.258-3.09h1.058a1.814 1.814 0 10-1.814-1.851l-.077.945h-.754l-.076-.907A1.814 1.814 0 104.536 12.5h1.057l.258 3.09A5.9 5.9 0 01.908 9.776zm7.18 1.814l.075-.907a.907.907 0 11.907.907zm-2.572 0h-.98a.907.907 0 110-1.814.919.919 0 01.907.93v.015zm-.074 8.162a.453.453 0 01-.452-.452h3.627a.453.453 0 01-.453.453zm6.226 8.1l-.512-.171 1.74-2.436 1.149.23zM12.481 29l-.171-.512 2.377-2.377.229 1.148zm6.566-6.983a.89.89 0 01-.232-.034l.552-.552-.641-.641-.552.552a.89.89 0 01-.034-.232.907.907 0 11.907.907z" transform="translate(0 -2.969)"/></g></g><g id="Grupo_57" data-name="Grupo 57" transform="translate(14.247 .653)"><g id="Grupo_56" data-name="Grupo 56"><path id="Caminho_149" data-name="Caminho 149" class="cls-1" d="M253.862 20.884c.019-.244.029-.47.029-.691a9.916 9.916 0 00-1.788-5.7l-.744.519a8.891 8.891 0 011.534 6.4.453.453 0 00.566.5 10.523 10.523 0 017.914 1.043l.453-.785a11.42 11.42 0 00-7.964-1.286z" transform="translate(-251.358 -14.493)"/></g></g><g id="Grupo_59" data-name="Grupo 59" transform="translate(25.945 9.642)"><g id="Grupo_58" data-name="Grupo 58"><path id="Caminho_150" data-name="Caminho 150" class="cls-1" d="M458.334 173.069l-.6.68a10.452 10.452 0 01.924.924l.68-.6a11.522 11.522 0 00-1.004-1.004z" transform="translate(-457.734 -173.069)"/></g></g></svg>
