<svg xmlns="http://www.w3.org/2000/svg" width="29.882" height="23.286"><defs><style>.cls-1{fill:#404e67}</style></defs><g id="Grupo_168" data-name="Grupo 168" transform="translate(-393.889 -94)"><g id="_018-control" data-name="018-control" transform="translate(393.889 94)"><path id="Caminho_95" data-name="Caminho 95" class="cls-1" d="M38.053 152.3v5.1l-2.8 1.963.59.841 1.315-.923v9.388h13.9v-9.388l1.314.923.59-.841-4.51-3.167-.59.841 2.169 1.523v9.082h-3.006v-6.917H41.2v6.917h-3.01v-9.082l5.924-4.16 2.915 2.047.59-.841-3.505-2.461-2.294 1.611V152.3zm4.178 9.451H46v5.89h-3.769zm-1.438-6.274l-1.712 1.2v-3.352h1.712zm0 0" transform="translate(-35.258 -148.735)"/><path id="Caminho_96" data-name="Caminho 96" class="cls-1" d="M238.305 132.094a1.884 1.884 0 10.707.746l1.558-1.558h9.787v-1.027h-10.212zm-.961 2.475a.856.856 0 11.856-.856.857.857 0 01-.856.856zm0 0" transform="translate(-221.776 -128.199)"/><path id="Caminho_97" data-name="Caminho 97" class="cls-1" d="M317 250.488h-6.719l-1.84 1.84a1.884 1.884 0 10.707.746l1.558-1.558H317zm-9.52 4.315a.856.856 0 11.856-.856.857.857 0 01-.855.853zm0 0" transform="translate(-287.119 -240.215)"/><path id="Caminho_98" data-name="Caminho 98" class="cls-1" d="M289.446 362.707a1.884 1.884 0 10.961 3.5l1.84 1.84h7.4v-1.027h-6.979l-1.558-1.558a1.883 1.883 0 00-1.668-2.757zm0 2.74a.856.856 0 11.856-.856.857.857 0 01-.856.856zm0 0" transform="translate(-270.316 -344.763)"/><path id="Caminho_103" data-name="Caminho 103" class="cls-1" d="M318.121 100.195h4.109v1.027h-4.109zm0 0" transform="translate(-298.786 -100.195)"/><path id="Caminho_104" data-name="Caminho 104" class="cls-1" d="M423.328 100.195h1.027v1.027h-1.027zm0 0" transform="translate(-396.801 -100.195)"/><path id="Caminho_105" data-name="Caminho 105" class="cls-1" d="M393.27 100.195h1.03v1.027h-1.03zm0 0" transform="translate(-368.798 -100.195)"/><path id="Caminho_106" data-name="Caminho 106" class="cls-1" d="M437.355 395.773h1.027v1.027h-1.027zm0 0" transform="translate(-409.87 -375.569)"/><path id="Caminho_107" data-name="Caminho 107" class="cls-1" d="M372.227 395.773h3.424v1.027h-3.424zm0 0" transform="translate(-349.193 -375.569)"/><path id="Caminho_108" data-name="Caminho 108" class="cls-1" d="M442.363 220.43h1.027v1.027h-1.027zm0 0" transform="translate(-414.535 -212.211)"/><path id="Caminho_109" data-name="Caminho 109" class="cls-1" d="M388.258 220.43h2.671v1.027h-2.671zm0 0" transform="translate(-364.129 -212.211)"/></g></g></svg>
