<svg id="Grupo_47" data-name="Grupo 47" xmlns="http://www.w3.org/2000/svg" width="28.11" height="28.111" viewBox="0 0 28.11 28.111">
  <defs>
    <style>
      .cls-1 {
        fill: #404e67;
      }
    </style>
  </defs>
  <g id="surface1">
    <path id="Caminho_121" data-name="Caminho 121" class="cls-1" d="M147.02,0H127.343A2.346,2.346,0,0,0,125,2.343v7.5h.937v-7.5A1.406,1.406,0,0,1,127.343.937H147.02a1.406,1.406,0,0,1,1.406,1.406V16.866a1.406,1.406,0,0,1-1.406,1.406h-6.091v.937h6.091a2.346,2.346,0,0,0,2.343-2.343V2.343A2.346,2.346,0,0,0,147.02,0Zm0,0" transform="translate(-121.252)"/>
    <path id="Caminho_122" data-name="Caminho 122" class="cls-1" d="M187.5,62.5h.937v.937H187.5Zm0,0" transform="translate(-181.878 -60.626)"/>
    <path id="Caminho_123" data-name="Caminho 123" class="cls-1" d="M250,62.5h.937v.937H250Zm0,0" transform="translate(-242.504 -60.626)"/>
    <path id="Caminho_124" data-name="Caminho 124" class="cls-1" d="M312.5,62.5h.937v.937H312.5Zm0,0" transform="translate(-303.13 -60.626)"/>
    <path id="Caminho_125" data-name="Caminho 125" class="cls-1" d="M187.5,125h20.615v.937H187.5Zm0,0" transform="translate(-181.878 -121.252)"/>
    <path id="Caminho_126" data-name="Caminho 126" class="cls-1" d="M187.5,187.5h4.685v.937H187.5Zm0,0" transform="translate(-181.878 -181.878)"/>
    <path id="Caminho_127" data-name="Caminho 127" class="cls-1" d="M187.5,250h2.811v.937H187.5Zm0,0" transform="translate(-181.878 -242.504)"/>
    <path id="Caminho_128" data-name="Caminho 128" class="cls-1" d="M362.186,251.406v-.937a.468.468,0,0,0-.468-.469h-1.874a.468.468,0,0,0-.469.469v.469h1.874v.469Zm0,0" transform="translate(-348.599 -242.504)"/>
    <path id="Caminho_129" data-name="Caminho 129" class="cls-1" d="M487.186,208.279v-4.685a.468.468,0,0,0-.469-.469h-1.874a.468.468,0,0,0-.469.469v3.28h.937v-2.811h.937v4.217Zm0,0" transform="translate(-469.851 -197.034)"/>
    <path id="Caminho_130" data-name="Caminho 130" class="cls-1" d="M611.249,212.964h-.469v.937h6.559v-.937h-1.406v-9.37a.468.468,0,0,0-.469-.469h-1.874a.468.468,0,0,0-.469.469v9.37h-.937v-6.091a.468.468,0,0,0-.469-.469h-1.874a.468.468,0,0,0-.469.469v4.217h.937v-3.748h.937Zm2.811-8.9H615v8.9h-.937Zm0,0" transform="translate(-591.103 -197.034)"/>
    <path id="Caminho_131" data-name="Caminho 131" class="cls-1" d="M9.37,312.5a9.37,9.37,0,1,0,9.37,9.37A9.37,9.37,0,0,0,9.37,312.5Zm0,17.8A8.433,8.433,0,0,1,8.9,313.45v8.421c0,.01.005.019.006.029a.448.448,0,0,0,.024.121c0,.009,0,.021.007.03a.133.133,0,0,0,.01.017.473.473,0,0,0,.088.132l0,0,5.953,5.953A8.369,8.369,0,0,1,9.37,330.3Zm6.285-2.811L10.5,322.339h7.289A8.361,8.361,0,0,1,15.655,327.492ZM9.839,321.4V313.45a8.446,8.446,0,0,1,7.952,7.952Zm0,0" transform="translate(0 -303.13)"/>
  </g>
</svg>
