<svg data-name="Grupo 99" xmlns="http://www.w3.org/2000/svg" width="17.272" height="17.269"><g data-name="Grupo 98"><path data-name="Caminho 177" d="M15.437 1.832a6.265 6.265 0 00-9.164 8.535l-.746.746-.76-.76a.444.444 0 00-.628 0L.575 13.916a1.964 1.964 0 102.778 2.778l3.563-3.563a.444.444 0 000-.628l-.76-.76.746-.746a6.265 6.265 0 008.535-9.164zM2.725 16.065A1.077 1.077 0 111.2 14.544l1.992-1.987 1.521 1.52zm2.617-2.617l-1.522-1.52.632-.632 1.521 1.521zm9.467-3.384a5.377 5.377 0 111.575-3.8 5.383 5.383 0 01-1.576 3.8z" fill="#404e67"/></g></svg>
