<svg xmlns="http://www.w3.org/2000/svg" width="31.951" height="27.755"><defs><style>.cls-1{fill:#404e67}</style></defs><g id="plan" transform="translate(0 -.5)"><path id="Caminho_167" data-name="Caminho 167" class="cls-1" d="M235.18 203.358a1.3 1.3 0 101.3-1.3 1.3 1.3 0 00-1.3 1.3zm1.3-.363a.363.363 0 11-.363.363.363.363 0 01.362-.363zm0 0" transform="translate(-220.504 -188.981)"/><path id="Caminho_168" data-name="Caminho 168" class="cls-1" d="M8.329 346.215a.468.468 0 00-.468.468v3.557H3.307a1.687 1.687 0 100 .936h5.022a.468.468 0 00.468-.468v-4.026a.468.468 0 00-.468-.467zm-6.642 5.244a.751.751 0 11.751-.751.752.752 0 01-.751.751zm0 0" transform="translate(0 -324.141)"/><path id="Caminho_169" data-name="Caminho 169" class="cls-1" d="M378.142.5a1.69 1.69 0 00-1.621 1.219H371.5a.468.468 0 00-.468.468v4.025a.468.468 0 10.936 0V2.655h4.554A1.687 1.687 0 10378.142.5zm0 2.438a.751.751 0 11.751-.751.751.751 0 01-.751.751zm0 0" transform="translate(-347.877)"/><path id="Caminho_170" data-name="Caminho 170" class="cls-1" d="M378.142 349.022a1.69 1.69 0 00-1.621 1.219h-4.554v-3.557a.468.468 0 00-.936 0v4.026a.468.468 0 00.468.468h5.022a1.687 1.687 0 101.621-2.155zm0 2.438a.751.751 0 11.751-.751.752.752 0 01-.751.751zm0 0" transform="translate(-347.877 -324.141)"/><path id="Caminho_171" data-name="Caminho 171" class="cls-1" d="M1.687 3.874a1.689 1.689 0 001.62-1.219h4.554v3.557a.468.468 0 10.936 0V2.187a.468.468 0 00-.468-.468H3.307a1.687 1.687 0 10-1.62 2.155zm0-2.438a.751.751 0 11-.751.751.752.752 0 01.751-.751zm0 0"/><path id="Caminho_172" data-name="Caminho 172" class="cls-1" d="M432.4 195.844a1.69 1.69 0 00-1.621 1.219h-1.41a.468.468 0 100 .936h1.41a1.687 1.687 0 101.621-2.155zm0 2.438a.751.751 0 11.751-.751.751.751 0 01-.751.751zm0 0" transform="translate(-402.141 -183.154)"/><path id="Caminho_173" data-name="Caminho 173" class="cls-1" d="M1.687 199.217A1.689 1.689 0 003.307 198h1.41a.468.468 0 000-.936h-1.41a1.687 1.687 0 10-1.62 2.155zm0-2.438a.751.751 0 11-.751.751.752.752 0 01.751-.75zm0 0" transform="translate(0 -183.153)"/><path id="Caminho_174" data-name="Caminho 174" class="cls-1" d="M205.9 175.375h-.021a1.04 1.04 0 00-.9.518l-1.113 1.928a1.039 1.039 0 000 1.036l1.113 1.928a1.04 1.04 0 00.9.518h2.221a1.039 1.039 0 00.9-.518l1.113-1.928a1.04 1.04 0 000-1.036L209 175.893a1.039 1.039 0 00-.9-.518h-.021a.468.468 0 000 .936h.021a.1.1 0 01.087.05l1.113 1.928a.1.1 0 010 .1l-1.113 1.928a.1.1 0 01-.087.05h-2.226a.1.1 0 01-.087-.05l-1.113-1.928a.1.1 0 010-.1l1.113-1.928a.1.1 0 01.087-.05h.021a.468.468 0 000-.936zm0 0" transform="translate(-191.014 -163.962)"/><path id="Caminho_175" data-name="Caminho 175" class="cls-1" d="M114.547 78.8l-.948-.948a7.728 7.728 0 00.9-2.182h1.34a1.013 1.013 0 001.012-1.012v-1.695a1.013 1.013 0 00-1.012-1.012H114.5a7.735 7.735 0 00-.9-2.182l.948-.948a1.013 1.013 0 000-1.431l-1.2-1.2a1.013 1.013 0 00-1.431 0l-.948.948a7.723 7.723 0 00-2.182-.9V64.9a1.013 1.013 0 00-1.012-1.012h-1.691a1.013 1.013 0 00-1.012 1.012v1.34a7.725 7.725 0 00-2.182.9l-.948-.948a1.013 1.013 0 00-1.431 0l-1.2 1.2a1.013 1.013 0 000 1.431l.948.948a7.728 7.728 0 00-.9 2.182h-1.34a1.013 1.013 0 00-1.012 1.012v1.691a1.013 1.013 0 001.012 1.012h1.34a7.729 7.729 0 00.9 2.182l-.948.948a1.013 1.013 0 000 1.431l1.2 1.2a1.013 1.013 0 001.431 0l.948-.948a7.737 7.737 0 002.182.9v1.34a1.013 1.013 0 001.012 1.012h1.691a1.013 1.013 0 001.012-1.012v-1.34a7.737 7.737 0 002.182-.9l.948.948a1.013 1.013 0 001.431 0l1.2-1.2a1.013 1.013 0 00-.001-1.429zm-.662.769l-1.2 1.2a.076.076 0 01-.107 0l-1.052-1.069a.74.74 0 00-.925-.1 6.794 6.794 0 01-2.164.9.74.74 0 00-.583.726v1.494a.076.076 0 01-.076.076h-1.691a.076.076 0 01-.076-.076v-1.495a.74.74 0 00-.582-.726 6.8 6.8 0 01-2.164-.9.74.74 0 00-.925.1l-1.056 1.056a.076.076 0 01-.107 0l-1.2-1.2a.076.076 0 010-.107l1.056-1.056a.74.74 0 00.1-.925 6.811 6.811 0 01-.9-2.164.739.739 0 00-.725-.582h-1.484a.076.076 0 01-.076-.076v-1.682a.076.076 0 01.076-.076h1.493a.74.74 0 00.726-.582 6.805 6.805 0 01.9-2.164.74.74 0 00-.1-.925l-1.056-1.056a.076.076 0 010-.107l1.2-1.2a.076.076 0 01.107 0l1.056 1.056a.74.74 0 00.925.1 6.8 6.8 0 012.164-.9.74.74 0 00.583-.726V64.9a.076.076 0 01.076-.076h1.691a.076.076 0 01.076.076v1.493a.74.74 0 00.583.726 6.8 6.8 0 012.164.9.74.74 0 00.925-.1l1.056-1.056a.076.076 0 01.107 0l1.2 1.2a.076.076 0 010 .107l-1.056 1.056a.74.74 0 00-.1.925 6.8 6.8 0 01.9 2.164.74.74 0 00.726.582h1.493a.076.076 0 01.076.076v1.691a.076.076 0 01-.076.076h-1.513a.74.74 0 00-.726.582 6.8 6.8 0 01-.9 2.164.74.74 0 00.1.925l1.056 1.056a.076.076 0 010 .107zm0 0" transform="translate(-90.958 -59.431)"/><path id="Caminho_176" data-name="Caminho 176" class="cls-1" d="M173.842 134.975a.468.468 0 10.916-.191 5.784 5.784 0 100 2.376.468.468 0 10-.916-.191 4.848 4.848 0 110-1.993zm0 0" transform="translate(-153.121 -121.594)"/></g></svg>
