<svg id="_021-research" data-name="021-research" xmlns="http://www.w3.org/2000/svg" width="26.656" height="26.661"><defs><style>.cls-1{fill:#404e67}</style></defs><path id="Caminho_45" data-name="Caminho 45" class="cls-1" d="M106.717 74.23a.444.444 0 00.444.444h3.554a.444.444 0 00.444-.444v-3.554a2.221 2.221 0 00-1.649-2.137 2.665 2.665 0 10-3.81 0 2.221 2.221 0 00-1.649 2.137V72.2a.444.444 0 10.889 0v-1.524a1.333 1.333 0 011.333-1.333h2.666a1.333 1.333 0 011.333 1.333v3.11h-3.11a.444.444 0 00-.445.444zm.889-9.329a1.777 1.777 0 11-1.777 1.777 1.777 1.777 0 011.776-1.778zm0 0" transform="translate(-98.275 -60.453)"/><path id="Caminho_46" data-name="Caminho 46" class="cls-1" d="M169.384 184.959a.444.444 0 000-.889h-.884a.444.444 0 000 .889zm0 0" transform="translate(-158.721 -173.848)"/><path id="Caminho_47" data-name="Caminho 47" class="cls-1" d="M26.3 22.489l-5.34-5.34a1.367 1.367 0 00-1.51-.252l-2.35-2.355a9.329 9.329 0 10-13.66 1.98.444.444 0 00.56-.686A8.451 8.451 0 1116.1 14.4a8.8 8.8 0 01-.33.414l-.031.035a8.422 8.422 0 01-.835.835l-.041.037q-.2.17-.408.326a8.388 8.388 0 01-5.082 1.717 7.3 7.3 0 01-.42-.015.445.445 0 10-.049.889c.156.008.311.016.469.016a9.277 9.277 0 005.217-1.6l2.608 2.608a.444.444 0 00.628 0l1.885-1.885a.456.456 0 01.629 0l5.34 5.341a.444.444 0 010 .628l-1.884 1.885a.444.444 0 01-.629 0l-3.5-3.5a.444.444 0 00-.628.628l3.5 3.5a1.333 1.333 0 001.885 0l1.876-1.884a1.333 1.333 0 000-1.885zm-9.743-7.23l2.2 2.2-1.249 1.261-2.2-2.2a9.408 9.408 0 001.252-1.261zm0 0" transform="translate(-.038 .011)"/><path id="Caminho_48" data-name="Caminho 48" class="cls-1" d="M160.5 136.953a.444.444 0 100 .889 7.528 7.528 0 007.305-9.44.444.444 0 00-.861.222 6.639 6.639 0 01-6.445 8.33zm0 0" transform="translate(-151.165 -120.956)"/><path id="Caminho_49" data-name="Caminho 49" class="cls-1" d="M43.25 32.963a7.547 7.547 0 00-8.7 12.22.444.444 0 10.593-.661 6.659 6.659 0 017.677-10.781.444.444 0 10.43-.777zm0 0" transform="translate(-30.266 -30.238)"/><path id="Caminho_50" data-name="Caminho 50" class="cls-1" d="M64.5 424.07a.444.444 0 100 .888h2.666a.444.444 0 100-.888zm0 0" transform="translate(-60.496 -400.52)"/><path id="Caminho_51" data-name="Caminho 51" class="cls-1" d="M35.157 246.263h-4.886v-5.775a.444.444 0 00-.83-.222l-3.426 6h-.631a1.333 1.333 0 00-1.333 1.333v4.443a1.333 1.333 0 001.333 1.333h9.774a1.333 1.333 0 001.333-1.333v-.889a.444.444 0 10-.889 0v.889a.444.444 0 01-.444.444h-9.774a.444.444 0 01-.444-.444V247.6a.444.444 0 01.444-.444h.889a.444.444 0 00.386-.222l2.724-4.769v4.546a.444.444 0 00.444.444h5.331a.444.444 0 01.444.444v.888a.444.444 0 10.889 0v-.887a1.333 1.333 0 00-1.334-1.337zm0 0" transform="translate(-22.718 -226.712)"/><path id="Caminho_52" data-name="Caminho 52" class="cls-1" d="M84.049 392.514a.444.444 0 00-.444-.444H80.5a.444.444 0 100 .888h3.11a.444.444 0 00.439-.444zm0 0" transform="translate(-75.608 -370.297)"/><path id="Caminho_53" data-name="Caminho 53" class="cls-1" d="M170.717 392.514a.444.444 0 00-.444-.444H168.5a.444.444 0 100 .888h1.777a.444.444 0 00.44-.444zm0 0" transform="translate(-158.721 -370.297)"/><path id="Caminho_54" data-name="Caminho 54" class="cls-1" d="M144.5 424.959h1.777a.444.444 0 100-.888H144.5a.444.444 0 100 .888zm0 0" transform="translate(-136.054 -400.52)"/><path id="Caminho_55" data-name="Caminho 55" class="cls-1" d="M344.5 48.959h4a.444.444 0 000-.889h-4a.444.444 0 100 .889zm0 0" transform="translate(-324.947 -45.4)"/><path id="Caminho_56" data-name="Caminho 56" class="cls-1" d="M344.5 88.959h4a.444.444 0 000-.889h-4a.444.444 0 100 .889zm0 0" transform="translate(-324.947 -83.179)"/><path id="Caminho_57" data-name="Caminho 57" class="cls-1" d="M378.717 128.07H376.5a.444.444 0 000 .889h2.221a.444.444 0 000-.889zm0 0" transform="translate(-355.17 -120.957)"/><path id="Caminho_58" data-name="Caminho 58" class="cls-1" d="M378.717 168.07H376.5a.444.444 0 000 .889h2.221a.444.444 0 000-.889zm0 0" transform="translate(-355.17 -158.736)"/><path id="Caminho_59" data-name="Caminho 59" class="cls-1" d="M360.5 201.847a.444.444 0 100 .889h2.666a.889.889 0 00.889-.889v-.889a.889.889 0 00-.889-.889H360.5a.444.444 0 100 .889h2.666v.889zm0 0" transform="translate(-340.059 -188.959)"/></svg>
