<svg id="_019-evaluation" data-name="019-evaluation" xmlns="http://www.w3.org/2000/svg" width="26.661" height="26.661"><defs><style>.cls-1{fill:#404e67}</style></defs><g id="Grupo_33" data-name="Grupo 33"><g id="Grupo_32" data-name="Grupo 32"><path id="Caminho_74" data-name="Caminho 74" class="cls-1" d="M24.941 6.064V4.122L20.819 0H8.6v6.02H2.15A2.153 2.153 0 000 8.17v13.76a2.153 2.153 0 002.15 2.15h5.16v1.72H5.59v.86h15.48v-.86h-1.72v-1.72h5.16a2.153 2.153 0 002.15-2.15V8.17a2.154 2.154 0 00-1.719-2.106zm-4.3-5.026L23.9 4.3h-3.259zM9.46.86h10.32v4.3h4.3v13.76H9.46zm9.031 24.94H8.17v-1.72h10.32zm7.31-3.87a1.292 1.292 0 01-1.29 1.29H2.15a1.292 1.292 0 01-1.29-1.29v-.43H25.8zm0-1.29H.86V8.17a1.292 1.292 0 011.29-1.29H8.6v12.9h16.34V6.959a1.288 1.288 0 01.86 1.211z"/><path id="Caminho_75" data-name="Caminho 75" class="cls-1" d="M38.02 147.01a3.01 3.01 0 10-3.01 3.01 3.014 3.014 0 003.01-3.01zm-2.58-.86a.43.43 0 11-.43-.43.43.43 0 01.43.43zm-.43 3.01a2.133 2.133 0 01-.842-.173.86.86 0 011.685 0 2.133 2.133 0 01-.843.173zm0-1.72a1.719 1.719 0 00-1.571 1.027 2.134 2.134 0 011.312-3.581 1.29 1.29 0 10.519 0 2.134 2.134 0 011.312 3.581 1.719 1.719 0 00-1.572-1.027z" transform="translate(-30.28 -136.26)"/><path id="Caminho_76" data-name="Caminho 76" class="cls-1" d="M32 259.01a3.01 3.01 0 103.01-3.01 3.014 3.014 0 00-3.01 3.01zm3.01 2.15a2.134 2.134 0 01-.842-.173.86.86 0 011.685 0 2.134 2.134 0 01-.843.173zm.43-3.01a.43.43 0 11-.43-.43.43.43 0 01.43.43zm-.69-1.264a1.29 1.29 0 10.519 0 2.134 2.134 0 011.312 3.581 1.716 1.716 0 00-3.143 0 2.134 2.134 0 011.312-3.581z" transform="translate(-30.28 -242.24)"/><path id="Caminho_77" data-name="Caminho 77" class="cls-1" d="M212.3 48.823V48H208v4.3h4.3v-2.42l1.54-1.1-.5-.7zm-.86.614l-.814.581-.6-.6-.608.608 1.118 1.118.906-.648v.946h-2.58V48.86h2.58z" transform="translate(-196.82 -45.42)"/><path id="Caminho_78" data-name="Caminho 78" class="cls-1" d="M212.3 144.823V144H208v4.3h4.3v-2.42l1.54-1.1-.5-.7zm-.86.615l-.814.581-.6-.6-.608.608 1.118 1.118.906-.648v.946h-2.58v-2.58h2.58z" transform="translate(-196.82 -136.26)"/><path id="Caminho_79" data-name="Caminho 79" class="cls-1" d="M212.3 240.823V240H208v4.3h4.3v-2.42l1.54-1.1-.5-.7zm-.86.614l-.814.581-.6-.6-.608.608 1.118 1.118.906-.648v.946h-2.58v-2.58h2.58z" transform="translate(-196.82 -227.1)"/><path id="Retângulo_7" data-name="Retângulo 7" class="cls-1" transform="translate(17.2 6.02)" d="M0 0h5.16v.86H0z"/><path id="Retângulo_8" data-name="Retângulo 8" class="cls-1" transform="translate(17.2 11.18)" d="M0 0h5.16v.86H0z"/><path id="Retângulo_9" data-name="Retângulo 9" class="cls-1" transform="translate(17.2 16.34)" d="M0 0h5.16v.86H0z"/><path id="Retângulo_10" data-name="Retângulo 10" class="cls-1" transform="translate(17.2 14.62)" d="M0 0h5.16v.86H0z"/><path id="Retângulo_11" data-name="Retângulo 11" class="cls-1" transform="translate(17.2 9.46)" d="M0 0h5.16v.86H0z"/><path id="Retângulo_12" data-name="Retângulo 12" class="cls-1" transform="translate(17.2 4.3)" d="M0 0h1.72v.86H0z"/></g></g></svg>
