<svg xmlns="http://www.w3.org/2000/svg" width="30.264" height="22.217"><defs><style>.cls-1{fill:#404e67}</style></defs><g id="Grupo_24" data-name="Grupo 24"><g id="Grupo_23" data-name="Grupo 23"><g id="Grupo_21" data-name="Grupo 21"><g id="Grupo_8" data-name="Grupo 8" transform="translate(23.215 9.48)"><g id="Grupo_7" data-name="Grupo 7"><path id="Caminho_26" data-name="Caminho 26" class="cls-1" d="M396.237 228.97a8.65 8.65 0 00-3.042-.521.443.443 0 000 .887 7.655 7.655 0 012.646.427.443.443 0 00.4-.793z" transform="translate(-392.751 -228.449)"/></g></g><g id="Grupo_10" data-name="Grupo 10"><g id="Grupo_9" data-name="Grupo 9"><path id="Caminho_27" data-name="Caminho 27" class="cls-1" d="M28.911 84.379l-1.831-.523a.186.186 0 01-.134-.178v-.611a3.331 3.331 0 00.424-.348 3.261 3.261 0 001-2.359v-.843l.177-.354a2.828 2.828 0 00.3-1.258v-2.286a.443.443 0 00-.443-.443h-4.271a2.817 2.817 0 00-2.813 2.813v.026a2.351 2.351 0 00.247 1.046l.227.454v.724a3.459 3.459 0 001.422 2.8v.641c0 .1 0 .14-.366.244l-.893.255-2.584-.94a.443.443 0 00-.121-.339l-.826-.868v-1.458c.087-.072.173-.146.257-.224a5.2 5.2 0 001.639-3.782V75.4a5.124 5.124 0 00.474-2.155v-4.74a.443.443 0 00-.443-.443h-6.637A4.24 4.24 0 009.48 72.3v.948a5.124 5.124 0 00.474 2.152v1a5.417 5.417 0 001.9 4.134v1.496l-.826.868a.443.443 0 00-.121.339l-2.728.992a2.324 2.324 0 00-.548.287L7.2 84.3a3.386 3.386 0 001.7-1.374.443.443 0 000-.4 7.876 7.876 0 01-.389-2.752c-.01-.313-.02-.609-.039-.873a3.856 3.856 0 00-3.76-3.73 3.856 3.856 0 00-3.76 3.73c-.019.264-.029.56-.039.873a7.876 7.876 0 01-.389 2.752.443.443 0 000 .4 3.385 3.385 0 001.7 1.373l-1.19.595A1.856 1.856 0 000 86.565v3.275a.443.443 0 10.887 0v-3.275a.973.973 0 01.541-.875l1.481-.741.515.49a1.864 1.864 0 002.57 0l.515-.49.483.242a2.334 2.334 0 00-.357 1.238v3.411a.443.443 0 00.887 0v-3.412a1.457 1.457 0 01.956-1.365l2.876-1.046 1.2 1.8a.914.914 0 00.673.4h.091a.914.914 0 00.648-.269l.73-.73v4.622a.443.443 0 00.887 0v-4.618l.73.73a.913.913 0 00.648.269h.091a.914.914 0 00.673-.4l1.2-1.8 2.875 1.042a1.457 1.457 0 01.956 1.365v3.412a.443.443 0 00.887 0v-3.412a2.344 2.344 0 00-.656-1.622l.11-.031a2.432 2.432 0 00.413-.149l1.132 1.132v4.082a.443.443 0 00.887 0v-4.082l1.124-1.124a1.054 1.054 0 00.189.075l1.831.523a.983.983 0 01.71.941v3.667a.443.443 0 00.887 0v-3.667a1.873 1.873 0 00-1.359-1.794zM2.844 83.6a3.187 3.187 0 01-1.423-.913 4.887 4.887 0 00.253-1.062 3.306 3.306 0 001.17 1.444zm2.54 1.2a.978.978 0 01-1.348 0l-.413-.4a.917.917 0 00.108-.433V83.5a3.3 3.3 0 001.957 0v.472a.917.917 0 00.112.428zm-.674-2.04a2.4 2.4 0 01-2.4-2.4.441.441 0 00-.516-.437v-.114c.01-.3.019-.593.037-.84a3.291 3.291 0 01.9-2.067 2.754 2.754 0 013.959 0 3.291 3.291 0 01.9 2.067c.017.247.027.535.037.84v.079a3.983 3.983 0 00-2.19-1.6 5.564 5.564 0 00-1.686-.267.443.443 0 00-.307.135l-.8.83a.443.443 0 00.638.615l.666-.69a3.586 3.586 0 013.134 1.822A2.4 2.4 0 014.71 82.76zm1.865.837v-.529a3.279 3.279 0 001.17-1.445A4.88 4.88 0 008 82.682a3.2 3.2 0 01-1.425.918zm4.266-7.192v-1.1a.443.443 0 00-.044-.193 4.252 4.252 0 01-.43-1.863V72.3a3.353 3.353 0 013.349-3.349h6.193v4.3a4.252 4.252 0 01-.43 1.863.443.443 0 00-.044.193v1.262a4.256 4.256 0 01-1.36 3.131 4.411 4.411 0 01-.34.288l-.008.012a4.263 4.263 0 01-2.877.858 4.391 4.391 0 01-4.009-4.453zm2.5 8.92a.028.028 0 01-.025.009.028.028 0 01-.023-.014l-1.379-2.068.444-.466 2.092 1.43zm1.8-1.711l-2.4-1.641v-.828a4.992 4.992 0 002.056.594q.175.011.349.011a5.135 5.135 0 002.4-.587v.81zm1.848 1.706a.028.028 0 01-.023.014.027.027 0 01-.025-.009l-1.109-1.109 2.092-1.43.444.466zm8.1-.374l-1.006-1.006a1.217 1.217 0 00.027-.263v-.187a3.108 3.108 0 00.878.155h.1a3.293 3.293 0 00.977-.148v.178a1.06 1.06 0 00.032.258zm1.672-2.864a2.383 2.383 0 01-1.746.677 2.482 2.482 0 01-2.335-2.519v-.829a.443.443 0 00-.047-.2l-.274-.548a1.46 1.46 0 01-.153-.65v-.023a1.929 1.929 0 011.927-1.927h3.823V77.9a1.937 1.937 0 01-.2.862l-.224.448a.443.443 0 00-.047.2v.948a2.382 2.382 0 01-.733 1.725z" transform="translate(0 -68.066)"/></g></g><g id="Grupo_12" data-name="Grupo 12" transform="translate(27.481 18.486)"><g id="Grupo_11" data-name="Grupo 11"><path id="Caminho_28" data-name="Caminho 28" class="cls-1" d="M465.366 380.814a.443.443 0 00-.443.443v2.843a.443.443 0 10.887 0v-2.844a.443.443 0 00-.444-.442z" transform="translate(-464.923 -380.814)"/></g></g><g id="Grupo_14" data-name="Grupo 14" transform="translate(1.896 19.072)"><g id="Grupo_13" data-name="Grupo 13"><path id="Caminho_29" data-name="Caminho 29" class="cls-1" d="M32.52 390.728a.443.443 0 00-.443.443v2.258a.443.443 0 00.887 0v-2.258a.443.443 0 00-.444-.443z" transform="translate(-32.077 -390.728)"/></g></g><g id="Grupo_16" data-name="Grupo 16" transform="translate(11.376 4.028)"><g id="Grupo_15" data-name="Grupo 15"><path id="Caminho_30" data-name="Caminho 30" class="cls-1" d="M199.853 137.519c-1.677-1.677-5.185-1.356-6.615-1.141a.91.91 0 00-.778.907v1.021a.443.443 0 10.887 0v-1.021a.029.029 0 01.023-.03 14 14 0 012.88-.141 4.576 4.576 0 012.976 1.031.443.443 0 10.627-.627z" transform="translate(-192.46 -136.203)"/></g></g><g id="Grupo_18" data-name="Grupo 18" transform="translate(9.48 19.434)"><g id="Grupo_17" data-name="Grupo 17"><path id="Caminho_31" data-name="Caminho 31" class="cls-1" d="M160.827 396.853a.443.443 0 00-.443.443v1.9a.443.443 0 00.887 0v-1.9a.443.443 0 00-.444-.443z" transform="translate(-160.384 -396.853)"/></g></g><g id="Grupo_20" data-name="Grupo 20" transform="translate(19.908 19.434)"><g id="Grupo_19" data-name="Grupo 19"><path id="Caminho_32" data-name="Caminho 32" class="cls-1" d="M337.249 396.853a.443.443 0 00-.443.443v1.9a.443.443 0 00.887 0v-1.9a.443.443 0 00-.444-.443z" transform="translate(-336.806 -396.853)"/></g></g></g></g></g></svg>
