<svg xmlns="http://www.w3.org/2000/svg" width="30.264" height="22.217" viewBox="0 0 30.264 22.217">
  <g id="Grupo_864" data-name="Grupo 864" transform="translate(1432 3464.571)">
    <g id="Grupo_21" data-name="Grupo 21" transform="translate(-1432 -3464.571)">
      <g id="Grupo_8" data-name="Grupo 8" transform="translate(23.215 9.48)">
        <g id="Grupo_7" data-name="Grupo 7">
          <path id="Caminho_26" data-name="Caminho 26" d="M396.237,228.97a8.65,8.65,0,0,0-3.042-.521.443.443,0,0,0,0,.887,7.655,7.655,0,0,1,2.646.427.443.443,0,0,0,.4-.793Z" transform="translate(-392.751 -228.449)" fill="#404e67"/>
        </g>
      </g>
      <g id="Grupo_10" data-name="Grupo 10">
        <g id="Grupo_9" data-name="Grupo 9">
          <path id="Caminho_27" data-name="Caminho 27" d="M28.911,84.379l-1.831-.523a.186.186,0,0,1-.134-.178v-.611a3.331,3.331,0,0,0,.424-.348,3.261,3.261,0,0,0,1-2.359v-.843l.177-.354a2.828,2.828,0,0,0,.3-1.258V75.619a.443.443,0,0,0-.443-.443H24.133a2.817,2.817,0,0,0-2.813,2.813v.026a2.351,2.351,0,0,0,.247,1.046l.227.454v.724a3.459,3.459,0,0,0,1.422,2.8v.641c0,.1,0,.14-.366.244l-.893.255-2.584-.94a.443.443,0,0,0-.121-.339l-.826-.868V80.574c.087-.072.173-.146.257-.224a5.2,5.2,0,0,0,1.639-3.782V75.4a5.124,5.124,0,0,0,.474-2.155v-4.74a.443.443,0,0,0-.443-.443H13.716A4.24,4.24,0,0,0,9.48,72.3v.948A5.124,5.124,0,0,0,9.954,75.4v1a5.417,5.417,0,0,0,1.9,4.134V82.03l-.826.868a.443.443,0,0,0-.121.339l-2.728.992a2.324,2.324,0,0,0-.548.287L7.2,84.3a3.386,3.386,0,0,0,1.7-1.374.443.443,0,0,0,0-.4,7.876,7.876,0,0,1-.389-2.752c-.01-.313-.02-.609-.039-.873a3.856,3.856,0,0,0-3.76-3.73,3.856,3.856,0,0,0-3.76,3.73c-.019.264-.029.56-.039.873a7.876,7.876,0,0,1-.389,2.752.443.443,0,0,0,0,.4,3.385,3.385,0,0,0,1.7,1.373l-1.19.595A1.856,1.856,0,0,0,0,86.565V89.84a.443.443,0,1,0,.887,0V86.565a.973.973,0,0,1,.541-.875l1.481-.741.515.49a1.864,1.864,0,0,0,2.57,0l.515-.49.483.242a2.334,2.334,0,0,0-.357,1.238V89.84a.443.443,0,0,0,.887,0V86.428a1.457,1.457,0,0,1,.956-1.365l2.876-1.046,1.2,1.8a.914.914,0,0,0,.673.4q.046,0,.091,0a.914.914,0,0,0,.648-.269l.73-.73V89.84a.443.443,0,0,0,.887,0V85.222l.73.73a.913.913,0,0,0,.648.269q.045,0,.091,0a.914.914,0,0,0,.673-.4l1.2-1.8L21.8,85.063a1.457,1.457,0,0,1,.956,1.365V89.84a.443.443,0,0,0,.887,0V86.428a2.344,2.344,0,0,0-.656-1.622l.11-.031a2.432,2.432,0,0,0,.413-.149l1.132,1.132V89.84a.443.443,0,0,0,.887,0V85.758l1.124-1.124a1.054,1.054,0,0,0,.189.075l1.831.523a.983.983,0,0,1,.71.941V89.84a.443.443,0,0,0,.887,0V86.173A1.873,1.873,0,0,0,28.911,84.379ZM2.844,83.6a3.187,3.187,0,0,1-1.423-.913,4.887,4.887,0,0,0,.253-1.062,3.306,3.306,0,0,0,1.17,1.444Zm2.54,1.2a.978.978,0,0,1-1.348,0L3.623,84.4a.917.917,0,0,0,.108-.433V83.5a3.3,3.3,0,0,0,1.957,0v.472A.917.917,0,0,0,5.8,84.4ZM4.71,82.76a2.4,2.4,0,0,1-2.4-2.4.441.441,0,0,0-.516-.437l0-.114c.01-.3.019-.593.037-.84a3.291,3.291,0,0,1,.9-2.067,2.754,2.754,0,0,1,3.959,0,3.291,3.291,0,0,1,.9,2.067c.017.247.027.535.037.84l0,.079a3.983,3.983,0,0,0-2.19-1.6,5.564,5.564,0,0,0-1.686-.267.443.443,0,0,0-.307.135l-.8.83a.443.443,0,0,0,.638.615l.666-.69a3.586,3.586,0,0,1,3.134,1.822A2.4,2.4,0,0,1,4.71,82.76Zm1.865.837v-.529a3.279,3.279,0,0,0,1.17-1.445A4.88,4.88,0,0,0,8,82.682,3.2,3.2,0,0,1,6.575,83.6Zm4.266-7.192v-1.1a.443.443,0,0,0-.044-.193,4.252,4.252,0,0,1-.43-1.863V72.3a3.353,3.353,0,0,1,3.349-3.349h6.193v4.3a4.252,4.252,0,0,1-.43,1.863.443.443,0,0,0-.044.193v1.262A4.256,4.256,0,0,1,18.075,79.7a4.411,4.411,0,0,1-.34.288L17.727,80a4.263,4.263,0,0,1-2.877.858A4.391,4.391,0,0,1,10.841,76.405Zm2.5,8.92a.028.028,0,0,1-.025.009.028.028,0,0,1-.023-.014l-1.379-2.068.444-.466,2.092,1.43Zm1.8-1.711-2.4-1.641v-.828a4.992,4.992,0,0,0,2.056.594q.175.011.349.011a5.135,5.135,0,0,0,2.4-.587v.81Zm1.848,1.706a.028.028,0,0,1-.023.014.027.027,0,0,1-.025-.009l-1.109-1.109,2.092-1.43.444.466Zm8.1-.374-1.006-1.006a1.217,1.217,0,0,0,.027-.263V83.49a3.108,3.108,0,0,0,.878.155l.1,0a3.293,3.293,0,0,0,.977-.148v.178a1.06,1.06,0,0,0,.032.258Zm1.672-2.864a2.383,2.383,0,0,1-1.746.677A2.482,2.482,0,0,1,22.68,80.24v-.829a.443.443,0,0,0-.047-.2l-.274-.548a1.46,1.46,0,0,1-.153-.65V77.99a1.929,1.929,0,0,1,1.927-1.927h3.823V77.9a1.937,1.937,0,0,1-.2.862l-.224.448a.443.443,0,0,0-.047.2v.948A2.382,2.382,0,0,1,26.752,82.083Z" transform="translate(0 -68.066)" fill="#404e67"/>
        </g>
      </g>
      <g id="Grupo_12" data-name="Grupo 12" transform="translate(27.481 18.486)">
        <g id="Grupo_11" data-name="Grupo 11">
          <path id="Caminho_28" data-name="Caminho 28" d="M465.366,380.814a.443.443,0,0,0-.443.443V384.1a.443.443,0,1,0,.887,0v-2.844A.443.443,0,0,0,465.366,380.814Z" transform="translate(-464.923 -380.814)" fill="#404e67"/>
        </g>
      </g>
      <g id="Grupo_14" data-name="Grupo 14" transform="translate(1.896 19.072)">
        <g id="Grupo_13" data-name="Grupo 13">
          <path id="Caminho_29" data-name="Caminho 29" d="M32.52,390.728a.443.443,0,0,0-.443.443v2.258a.443.443,0,0,0,.887,0v-2.258A.443.443,0,0,0,32.52,390.728Z" transform="translate(-32.077 -390.728)" fill="#404e67"/>
        </g>
      </g>
      <g id="Grupo_16" data-name="Grupo 16" transform="translate(11.376 4.028)">
        <g id="Grupo_15" data-name="Grupo 15">
          <path id="Caminho_30" data-name="Caminho 30" d="M199.853,137.519c-1.677-1.677-5.185-1.356-6.615-1.141a.91.91,0,0,0-.778.907v1.021a.443.443,0,1,0,.887,0v-1.021a.029.029,0,0,1,.023-.03,14,14,0,0,1,2.88-.141,4.576,4.576,0,0,1,2.976,1.031.443.443,0,1,0,.627-.627Z" transform="translate(-192.46 -136.203)" fill="#404e67"/>
        </g>
      </g>
      <g id="Grupo_18" data-name="Grupo 18" transform="translate(9.48 19.434)">
        <g id="Grupo_17" data-name="Grupo 17">
          <path id="Caminho_31" data-name="Caminho 31" d="M160.827,396.853a.443.443,0,0,0-.443.443v1.9a.443.443,0,0,0,.887,0v-1.9A.443.443,0,0,0,160.827,396.853Z" transform="translate(-160.384 -396.853)" fill="#404e67"/>
        </g>
      </g>
      <g id="Grupo_20" data-name="Grupo 20" transform="translate(19.908 19.434)">
        <g id="Grupo_19" data-name="Grupo 19">
          <path id="Caminho_32" data-name="Caminho 32" d="M337.249,396.853a.443.443,0,0,0-.443.443v1.9a.443.443,0,0,0,.887,0v-1.9A.443.443,0,0,0,337.249,396.853Z" transform="translate(-336.806 -396.853)" fill="#404e67"/>
        </g>
      </g>
    </g>
  </g>
</svg>
