<svg xmlns="http://www.w3.org/2000/svg" width="19.333" height="22.083" viewBox="0 0 19.333 22.083">
  <defs>
    <style>
      .cls-1 {
        fill: none;
        stroke: #fff;
        stroke-linecap: round;
        stroke-linejoin: round;
        stroke-miterlimit: 10;
      }
    </style>
  </defs>
  <g id="Group_9" data-name="Group 9" transform="translate(0.042 0.042)">
    <path id="Stroke_1" data-name="Stroke 1" class="cls-1" d="M1.833.917A.917.917,0,1,1,.917,0,.916.916,0,0,1,1.833.917Z" transform="translate(8.708 0.458)"/>
    <path id="Stroke_3" data-name="Stroke 3" class="cls-1" d="M0,0A2.75,2.75,0,0,0,5.5,0" transform="translate(6.875 18.792)"/>
    <path id="Stroke_5" data-name="Stroke 5" class="cls-1" d="M0,14.667l.018-.037A12.883,12.883,0,0,0,1.375,8.892V6.38a6.417,6.417,0,0,1,12.833,0V8.892a12.883,12.883,0,0,0,1.357,5.738l.018.037" transform="translate(1.833 2.292)"/>
    <path id="Stroke_7" data-name="Stroke 7" class="cls-1" d="M17.417,0H.917a.917.917,0,0,0,0,1.833h16.5a.917.917,0,1,0,0-1.833Z" transform="translate(0.458 16.958)"/>
  </g>
</svg>
