<svg xmlns="http://www.w3.org/2000/svg" width="24.772" height="24.55" viewBox="0 0 24.772 24.55">
  <g id="configurar_empresa" data-name="configurar empresa" transform="translate(0 -2.2)">
    <g id="Grupo_442" data-name="Grupo 442" transform="translate(0 2.2)">
      <path id="Caminho_279" data-name="Caminho 279" d="M121.078,2.3l-1.239.511a1.3,1.3,0,0,0-.7,1.694l.319.769A7.888,7.888,0,0,0,117.827,6.9l-.769-.319a1.3,1.3,0,0,0-1.694.7l-.516,1.239a1.3,1.3,0,0,0,.7,1.694l1.138.47a.5.5,0,1,0,.379-.925l-1.138-.47a.3.3,0,0,1-.162-.389l.516-1.239a.3.3,0,0,1,.389-.162l1.138.47a.5.5,0,0,0,.607-.182,6.852,6.852,0,0,1,1.926-1.926.5.5,0,0,0,.187-.607l-.47-1.138a.3.3,0,0,1,.162-.389l1.239-.511a.3.3,0,0,1,.389.162l.47,1.138a.493.493,0,0,0,.561.3,6.938,6.938,0,0,1,2.72,0,.507.507,0,0,0,.561-.3l.47-1.138a.3.3,0,0,1,.389-.162l1.239.516a.3.3,0,0,1,.162.389l-.47,1.138a.5.5,0,0,0,.182.607,6.852,6.852,0,0,1,1.926,1.926.5.5,0,0,0,.607.187l1.138-.47a.3.3,0,0,1,.389.162l.511,1.239a.3.3,0,0,1-.162.389l-1.138.47a.5.5,0,0,0-.3.561,6.938,6.938,0,0,1,0,2.72.507.507,0,0,0,.3.561l1.138.47a.3.3,0,0,1,.162.389l-.516,1.239a.3.3,0,0,1-.389.162l-1.138-.47a.5.5,0,0,0-.607.182,6.853,6.853,0,0,1-1.926,1.926.5.5,0,0,0-.187.607l.47,1.138a.3.3,0,0,1-.162.389l-1.239.511a.3.3,0,0,1-.389-.162l-.47-1.138a.5.5,0,1,0-.925.379l.47,1.138a1.294,1.294,0,0,0,.7.7,1.315,1.315,0,0,0,.5.1,1.3,1.3,0,0,0,.5-.1l1.239-.511a1.3,1.3,0,0,0,.7-1.694l-.319-.769a7.888,7.888,0,0,0,1.628-1.628l.769.319a1.3,1.3,0,0,0,1.694-.7l.516-1.239a1.3,1.3,0,0,0-.7-1.694l-.769-.319a7.971,7.971,0,0,0,0-2.3l.769-.319a1.3,1.3,0,0,0,.7-1.694l-.511-1.239a1.3,1.3,0,0,0-1.694-.7l-.769.319a7.863,7.863,0,0,0-1.623-1.628l.319-.769a1.3,1.3,0,0,0-.7-1.694L127.4,2.3a1.3,1.3,0,0,0-1.694.7l-.319.769a7.972,7.972,0,0,0-2.3,0L122.772,3a1.3,1.3,0,0,0-1.694-.7Z" transform="translate(-108.949 -2.2)" fill="#404e67"/>
      <path id="Caminho_280" data-name="Caminho 280" d="M229.945,113.39a4.074,4.074,0,0,0-4.07-4.04h-.03a4.074,4.074,0,0,0-4.045,4.1.5.5,0,0,0,.5.5h.005a.5.5,0,0,0,.5-.506,3.073,3.073,0,0,1,3.049-3.094h.02a3.072,3.072,0,0,1,.02,6.143.5.5,0,0,0-.5.506.5.5,0,0,0,.5.5h.005A4.075,4.075,0,0,0,229.945,113.39Z" transform="translate(-210.585 -103.932)" fill="#404e67"/>
      <path id="Caminho_281" data-name="Caminho 281" d="M6.841,212.508h.976A1.083,1.083,0,0,0,8.9,211.426v-.5a5.733,5.733,0,0,0,1.385-.576l.354.354a1.079,1.079,0,0,0,.763.319,1.059,1.059,0,0,0,.763-.319l.688-.688a1.079,1.079,0,0,0,.319-.763,1.059,1.059,0,0,0-.319-.763l-.354-.354a5.734,5.734,0,0,0,.576-1.385h.5a1.083,1.083,0,0,0,1.082-1.082v-.976a1.083,1.083,0,0,0-1.082-1.082h-.5a5.734,5.734,0,0,0-.576-1.385l.354-.354a1.079,1.079,0,0,0,.319-.763,1.059,1.059,0,0,0-.319-.763l-.688-.688a1.079,1.079,0,0,0-.763-.319,1.059,1.059,0,0,0-.763.319l-.354.354a5.733,5.733,0,0,0-1.385-.576v-.5a1.083,1.083,0,0,0-1.082-1.082H6.841a1.083,1.083,0,0,0-1.082,1.082v.5a5.733,5.733,0,0,0-1.385.576l-.354-.354a1.079,1.079,0,0,0-.763-.319,1.059,1.059,0,0,0-.763.319l-.688.688a1.083,1.083,0,0,0,0,1.527l.354.354a5.734,5.734,0,0,0-.576,1.385h-.5A1.083,1.083,0,0,0,0,204.691v.976a1.083,1.083,0,0,0,1.082,1.082h.5a5.734,5.734,0,0,0,.576,1.385l-.354.354a1.083,1.083,0,0,0,0,1.527l.688.688a1.079,1.079,0,0,0,.763.319,1.059,1.059,0,0,0,.763-.319l.354-.354a5.733,5.733,0,0,0,1.385.576v.5A1.09,1.09,0,0,0,6.841,212.508ZM4.581,209.3a.514.514,0,0,0-.278-.086.5.5,0,0,0-.354.147l-.632.632a.074.074,0,0,1-.111,0l-.688-.688a.079.079,0,0,1,0-.111l.632-.632a.5.5,0,0,0,.061-.632,4.876,4.876,0,0,1-.738-1.78.5.5,0,0,0-.49-.4H1.087a.08.08,0,0,1-.081-.081v-.976a.08.08,0,0,1,.081-.081h.895a.5.5,0,0,0,.49-.4,4.876,4.876,0,0,1,.738-1.78.5.5,0,0,0-.061-.632l-.632-.632a.079.079,0,0,1,0-.111l.688-.688a.074.074,0,0,1,.111,0l.632.642a.5.5,0,0,0,.632.061,4.876,4.876,0,0,1,1.78-.738.5.5,0,0,0,.4-.49v-.895a.08.08,0,0,1,.081-.081h.976a.08.08,0,0,1,.081.081v.895a.5.5,0,0,0,.4.49,4.876,4.876,0,0,1,1.78.738.5.5,0,0,0,.632-.061l.632-.632a.074.074,0,0,1,.111,0l.688.688a.074.074,0,0,1,0,.111l-.632.632a.5.5,0,0,0-.061.632,4.876,4.876,0,0,1,.738,1.78.5.5,0,0,0,.49.4h.895a.08.08,0,0,1,.081.081v.976a.08.08,0,0,1-.081.081h-.895a.5.5,0,0,0-.49.4,4.876,4.876,0,0,1-.738,1.78.5.5,0,0,0,.061.632l.632.632a.074.074,0,0,1,0,.111l-.688.688a.074.074,0,0,1-.111,0l-.632-.632a.5.5,0,0,0-.632-.061,4.876,4.876,0,0,1-1.78.738.5.5,0,0,0-.4.49v.895a.08.08,0,0,1-.081.081H6.846a.08.08,0,0,1-.081-.081v-.895a.5.5,0,0,0-.4-.49A5.078,5.078,0,0,1,4.581,209.3Z" transform="translate(0 -187.958)" fill="#404e67"/>
      <path id="Caminho_282" data-name="Caminho 282" d="M92.141,287.123a2.97,2.97,0,1,0-2.968,2.973A2.978,2.978,0,0,0,92.141,287.123Zm-4.94,0a1.972,1.972,0,1,1,1.972,1.972A1.974,1.974,0,0,1,87.2,287.123Z" transform="translate(-81.842 -269.894)" fill="#404e67"/>
    </g>
  </g>
</svg>
