<svg id="inbox" xmlns="http://www.w3.org/2000/svg" width="26.661" height="21.329">
	<g id="Grupo_43" data-name="Grupo 43" transform="translate(9.479 14.774)">
		<g id="Grupo_42" data-name="Grupo 42">
			<path id="Caminho_132" data-name="Caminho 132" class="cls-1" d="M190.98 332.734h-6.048a.828.828 0 00-.827.827v1.855a.828.828 0 00.827.827h6.048a.828.828 0 00.827-.827v-1.855a.828.828 0 00-.827-.827zm-.236 2.446h-5.576v-1.38h5.576z" transform="translate(-184.105 -332.734)"></path>
		</g>
	</g>
	<g id="Grupo_45" data-name="Grupo 45">
		<g id="Grupo_44" data-name="Grupo 44">
			<path id="Caminho_133" data-name="Caminho 133" class="cls-1" d="M26.4 67.082h.008L22.533 59.2a1.816 1.816 0 00-1.633-1.034h-.736v-.732a.524.524 0 00-.517-.531H7.013a.524.524 0 00-.517.531v.732H5.76A1.816 1.816 0 004.128 59.2L.253 67.078h.008a1.89 1.89 0 00-.261.967v8.324a1.838 1.838 0 001.81 1.861h23.041a1.838 1.838 0 001.81-1.861v-8.324a1.89 1.89 0 00-.261-.963zm-6.235-7.735h.735a.676.676 0 01.608.385l3.173 6.452h-2.157V64.2a.524.524 0 00-.517-.531h-.639v-2.853a.524.524 0 00-.517-.531h-.687zm1.326 5.383v1.454h-2.727a1.193 1.193 0 00-1.086.722l-.744 1.7a.044.044 0 01-.04.026H9.767a.044.044 0 01-.04-.026l-.744-1.7a1.193 1.193 0 00-1.083-.722H5.17V64.73zM7.53 57.965h11.6v2.32H7.53zm12.8 3.382v2.32H6.326v-2.32h14.009zM5.152 59.731a.676.676 0 01.608-.385h.74v.938h-.691a.524.524 0 00-.517.531v2.851h-.638a.524.524 0 00-.517.531v1.985H1.98zm19.7 17.318H1.81a.672.672 0 01-.661-.68v-8.324a.672.672 0 01.661-.68H7.9a.044.044 0 01.04.027l.744 1.7a1.192 1.192 0 001.086.722h7.126a1.192 1.192 0 001.086-.722l.744-1.7a.044.044 0 01.04-.026h6.087a.672.672 0 01.661.68v8.324a.672.672 0 01-.663.68z" transform="translate(0 -56.902)"></path>
		</g>
	</g>
</svg>
