<svg xmlns="http://www.w3.org/2000/svg" width="11.333" height="12.364" viewBox="0 0 11.333 12.364">
  <defs>
    <style>
      .cls-1 {
        fill: #ff5e5e;
      }
    </style>
  </defs>
  <g id="trash" transform="translate(-18.269)">
    <g id="Grupo_124" data-name="Grupo 124" transform="translate(18.269)">
      <path id="Caminho_186" data-name="Caminho 186" class="cls-1" d="M29.53,2.133a.251.251,0,0,0-.185-.072H26.858L26.294.716A1.115,1.115,0,0,0,25.86.209,1.137,1.137,0,0,0,25.224,0H22.648a1.136,1.136,0,0,0-.636.209,1.115,1.115,0,0,0-.435.507l-.563,1.344H18.527a.248.248,0,0,0-.258.258v.515a.248.248,0,0,0,.258.257H19.3v7.663a1.761,1.761,0,0,0,.378,1.139,1.133,1.133,0,0,0,.91.471h6.7a1.122,1.122,0,0,0,.91-.487,1.828,1.828,0,0,0,.378-1.155V3.091h.773a.248.248,0,0,0,.257-.257V2.318A.251.251,0,0,0,29.53,2.133Zm-7-1.014a.227.227,0,0,1,.137-.089h2.552a.227.227,0,0,1,.137.089l.387.942H22.133Zm5.015,9.6a.912.912,0,0,1-.056.326.726.726,0,0,1-.117.217c-.04.046-.068.068-.085.068h-6.7c-.016,0-.044-.023-.084-.068a.722.722,0,0,1-.117-.217.915.915,0,0,1-.056-.326V3.091h7.212v7.631Z" transform="translate(-18.269)"/>
      <path id="Caminho_187" data-name="Caminho 187" class="cls-1" d="M128.163,169.6h.515a.248.248,0,0,0,.258-.258v-4.637a.248.248,0,0,0-.258-.257h-.515a.248.248,0,0,0-.258.257v4.637a.248.248,0,0,0,.258.258Z" transform="translate(-124.814 -159.813)"/>
      <path id="Caminho_188" data-name="Caminho 188" class="cls-1" d="M201.252,169.6h.515a.248.248,0,0,0,.257-.258v-4.637a.248.248,0,0,0-.257-.257h-.515a.248.248,0,0,0-.258.257v4.637a.248.248,0,0,0,.258.258Z" transform="translate(-195.842 -159.813)"/>
      <path id="Caminho_189" data-name="Caminho 189" class="cls-1" d="M274.341,169.6h.515a.248.248,0,0,0,.257-.258v-4.637a.247.247,0,0,0-.257-.257h-.515a.248.248,0,0,0-.258.257v4.637a.248.248,0,0,0,.258.258Z" transform="translate(-266.871 -159.813)"/>
    </g>
  </g>
</svg>
