<svg xmlns="http://www.w3.org/2000/svg" width="50.79" height="47.47" viewBox="0 0 50.79 47.47">
  <defs>
    <style>
      .cls-1 {
        opacity: 0.1;
      }
    </style>
  </defs>
  <g id="webcam" class="cls-1" transform="translate(0 -16.735)">
    <path id="Caminho_276" data-name="Caminho 276" d="M200.132,130.605a6.152,6.152,0,1,0,6.152,6.152A6.159,6.159,0,0,0,200.132,130.605Zm0,9.329a3.176,3.176,0,1,1,3.176-3.176A3.179,3.179,0,0,1,200.132,139.934Z" transform="translate(-174.737 -102.574)"/>
    <path id="Caminho_277" data-name="Caminho 277" d="M30.151,54.753h-.686V51.721H43.807a25.4,25.4,0,0,0,0-34.986H6.984a25.4,25.4,0,0,0,0,34.986H20.731v3.033h-.046a8.467,8.467,0,0,0-8.23,6.476H6.763V64.2H44.31V61.229H38.38a8.466,8.466,0,0,0-8.23-6.476ZM8.308,19.711H42.482A22.3,22.3,0,0,1,47.766,32.74H38.56a13.244,13.244,0,0,0-26.33,0H3.025A22.3,22.3,0,0,1,8.308,19.711ZM25.4,44.45A10.267,10.267,0,1,1,35.662,34.183,10.279,10.279,0,0,1,25.4,44.45ZM8.308,48.745A22.3,22.3,0,0,1,3.025,35.716H12.24a13.244,13.244,0,0,0,26.31,0h9.216a22.3,22.3,0,0,1-5.283,13.029Zm18.18,2.976v3.033H23.707V51.721Zm-10.92,9.508a5.5,5.5,0,0,1,5.117-3.5h9.466a5.5,5.5,0,0,1,5.117,3.5Z" transform="translate(0 0)"/>
  </g>
</svg>
